<svg width="176" height="175" viewBox="0 0 176 175" fill="none" xmlns="http://www.w3.org/2000/svg">
<path d="M175.5 87.5C175.5 135.825 136.325 175 88 175C39.6751 175 0.5 135.825 0.5 87.5C0.5 39.1751 39.6751 0 88 0C136.325 0 175.5 39.1751 175.5 87.5ZM25.7805 87.5C25.7805 121.863 53.6371 149.72 88 149.72C122.363 149.72 150.22 121.863 150.22 87.5C150.22 53.1371 122.363 25.2805 88 25.2805C53.6371 25.2805 25.7805 53.1371 25.7805 87.5Z" fill="url(#paint0_linear_1462_2572)"/>
<path d="M88 0C107.015 2.26757e-07 125.513 6.19451 140.694 17.646C155.875 29.0974 166.912 45.1825 172.135 63.4666L147.405 70.5306C143.718 57.6207 135.925 46.2634 125.206 38.1778C114.487 30.0922 101.426 25.7184 88 25.7184V0Z" fill="#FAFAFA"/>
<path d="M55.028 81.16C56.148 80.28 57.54 79.84 59.204 79.84C60.868 79.84 62.252 80.28 63.356 81.16C64.46 82.04 65.012 83.128 65.012 84.424C65.012 85.704 64.516 86.808 63.524 87.736C64.916 88.808 65.612 90.216 65.612 91.96C65.612 93.432 65.02 94.672 63.836 95.68C62.652 96.688 61.108 97.192 59.204 97.192C57.3 97.192 55.756 96.688 54.572 95.68C53.388 94.672 52.796 93.432 52.796 91.96C52.796 90.216 53.492 88.808 54.884 87.736C53.876 86.792 53.372 85.68 53.372 84.4C53.372 83.12 53.924 82.04 55.028 81.16ZM57.38 93.52C57.94 93.888 58.548 94.072 59.204 94.072C59.86 94.072 60.468 93.888 61.028 93.52C61.588 93.136 61.868 92.584 61.868 91.864C61.868 91.144 61.596 90.592 61.052 90.208C60.508 89.824 59.892 89.632 59.204 89.632C58.516 89.632 57.9 89.824 57.356 90.208C56.812 90.592 56.54 91.144 56.54 91.864C56.54 92.584 56.82 93.136 57.38 93.52ZM57.596 86.176C58.06 86.56 58.596 86.752 59.204 86.752C59.812 86.752 60.34 86.56 60.788 86.176C61.252 85.792 61.484 85.32 61.484 84.76C61.484 84.184 61.26 83.704 60.812 83.32C60.364 82.936 59.828 82.744 59.204 82.744C58.58 82.744 58.044 82.936 57.596 83.32C57.148 83.704 56.924 84.184 56.924 84.76C56.924 85.32 57.148 85.792 57.596 86.176ZM72.7064 84.472C72.1784 85.496 71.9144 86.848 71.9144 88.528C71.9144 90.208 72.1784 91.56 72.7064 92.584C73.2344 93.608 74.0584 94.12 75.1784 94.12C76.2984 94.12 77.1224 93.608 77.6504 92.584C78.1784 91.56 78.4424 90.208 78.4424 88.528C78.4424 86.848 78.1784 85.496 77.6504 84.472C77.1224 83.448 76.2984 82.936 75.1784 82.936C74.0584 82.936 73.2344 83.448 72.7064 84.472ZM75.1784 97.192C72.8584 97.192 71.1224 96.408 69.9704 94.84C68.8184 93.256 68.2424 91.152 68.2424 88.528C68.2424 85.888 68.8184 83.784 69.9704 82.216C71.1224 80.632 72.8584 79.84 75.1784 79.84C77.4984 79.84 79.2344 80.632 80.3864 82.216C81.5384 83.784 82.1144 85.888 82.1144 88.528C82.1144 91.152 81.5384 93.256 80.3864 94.84C79.2344 96.408 77.4984 97.192 75.1784 97.192ZM85.6528 96.712C85.0928 96.312 84.8128 95.792 84.8128 95.152C84.8128 94.512 85.0288 93.992 85.4608 93.592C85.8928 93.176 86.4128 92.968 87.0208 92.968C87.6288 92.968 88.1488 93.168 88.5808 93.568C89.0288 93.968 89.2528 94.44 89.2528 94.984C89.2528 95.512 89.0208 96.152 88.5568 96.904L87.1168 99.376H84.7408L85.6528 96.712ZM98.2018 89.752V86.824H101.802V89.752H103.698V92.992H101.802V97H98.2018V92.992H91.4578V90.136L97.4338 80.224H101.514L95.8258 89.752H98.2018ZM122.535 80.224L110.511 97H106.383L118.431 80.224H122.535ZM118.503 94.696C118.695 94.904 118.935 95.008 119.223 95.008C119.511 95.008 119.751 94.904 119.943 94.696C120.135 94.472 120.231 94.184 120.231 93.832C120.231 93.48 120.135 93.192 119.943 92.968C119.751 92.728 119.511 92.608 119.223 92.608C118.951 92.608 118.719 92.728 118.527 92.968C118.335 93.192 118.239 93.48 118.239 93.832C118.239 94.184 118.327 94.472 118.503 94.696ZM122.775 93.832C122.775 94.776 122.439 95.576 121.767 96.232C121.095 96.872 120.247 97.192 119.223 97.192C118.215 97.192 117.375 96.864 116.703 96.208C116.031 95.552 115.695 94.76 115.695 93.832C115.695 92.888 116.031 92.088 116.703 91.432C117.375 90.776 118.215 90.448 119.223 90.448C120.247 90.448 121.095 90.776 121.767 91.432C122.439 92.088 122.775 92.888 122.775 93.832ZM109.047 84.88C109.239 85.088 109.479 85.192 109.767 85.192C110.055 85.192 110.295 85.088 110.487 84.88C110.679 84.656 110.775 84.368 110.775 84.016C110.775 83.664 110.679 83.376 110.487 83.152C110.295 82.912 110.055 82.792 109.767 82.792C109.495 82.792 109.263 82.912 109.071 83.152C108.879 83.376 108.783 83.664 108.783 84.016C108.783 84.368 108.871 84.656 109.047 84.88ZM113.319 84.016C113.319 84.96 112.983 85.76 112.311 86.416C111.639 87.056 110.791 87.376 109.767 87.376C108.759 87.376 107.919 87.048 107.247 86.392C106.575 85.736 106.239 84.944 106.239 84.016C106.239 83.072 106.575 82.272 107.247 81.616C107.919 80.96 108.759 80.632 109.767 80.632C110.791 80.632 111.639 80.96 112.311 81.616C112.983 82.272 113.319 83.072 113.319 84.016Z" fill="#383838"/>
<defs>
<linearGradient id="paint0_linear_1462_2572" x1="151.491" y1="96.5701" x2="46.9177" y2="14.939" gradientUnits="userSpaceOnUse">
<stop stop-color="#FDB415"/>
<stop offset="0.537444" stop-color="#E5F52F"/>
<stop offset="0.749052" stop-color="#16D3FD"/>
</linearGradient>
</defs>
</svg>
