<?xml version="1.0" encoding="utf-8"?>
<!-- Generator: Adobe Illustrator 23.0.0, SVG Export Plug-In . SVG Version: 6.00 Build 0)  -->
<svg version="1.1" id="Layer_1" xmlns="http://www.w3.org/2000/svg" xmlns:xlink="http://www.w3.org/1999/xlink" x="0px" y="0px"
	 width="842px" height="873.78px" viewBox="0 0 842 873.78" style="enable-background:new 0 0 842 873.78;" xml:space="preserve">
<g>
	<g>
		<g>
			<g>
				<g>
					<path style="fill:#F5F5F5;" d="M188.42,125.36c9.09-3.81,15.56-13.19,15.61-24.24c0.06-14.47-10.89-26.25-24.46-26.32
						c-13.56-0.06-24.61,11.62-24.67,26.09c-0.05,11.15,6.47,20.64,15.66,24.46c-37.81,5.7-36.09,46.79-36.09,46.79l89.41,0.41
						C223.86,172.56,225.9,131.02,188.42,125.36z"/>
				</g>
			</g>
		</g>
	</g>
</g>
<g>
	<path style="fill:#E1E1E1;" d="M762.34,359.73l10.27-4.79l3.35,8.06l-10.76,4.54l8.99,6.44l-5.12,6.9l-8.9-6.72l-1.14,11.67
		l-8.64-0.94l1.6-11.22l-10.34,4.74l-3.41-7.99l10.84-4.48l-9.01-6.57l5.12-6.9l8.85,6.79l1.14-11.67l8.69,0.87L762.34,359.73z"/>
	<path style="fill:#E1E1E1;" d="M787.06,326.4l10.27-4.79l3.35,8.06l-10.76,4.54l8.99,6.44l-5.12,6.9l-8.9-6.72l-1.14,11.67
		l-8.64-0.94l1.6-11.22l-10.34,4.74l-3.41-7.99l10.84-4.48l-9.01-6.57l5.12-6.9l8.85,6.79l1.14-11.67l8.69,0.87L787.06,326.4z"/>
	<path style="fill:#E1E1E1;" d="M811.78,293.07l10.27-4.79l3.35,8.06l-10.76,4.54l8.99,6.44l-5.12,6.9l-8.9-6.72l-1.14,11.67
		l-8.64-0.94l1.6-11.22l-10.34,4.74l-3.41-7.99l10.84-4.48l-9.01-6.57l5.12-6.9l8.85,6.79l1.14-11.67l8.69,0.87L811.78,293.07z"/>
</g>
<g>
	<g>
		<g>
			<g>
				<g>
					<g>
						<g>
							<g>
								<polygon style="fill:#F5F5F5;" points="409.82,805.44 409.82,866.7 499.4,866.7 598.21,866.7 598.21,805.44 								"/>
							</g>
						</g>
					</g>
				</g>
			</g>
		</g>
		<g>
			<g>
				<g>
					<g>
						<g>
							<g>
								<polygon style="fill:#ECECEC;" points="401.91,788.32 401.91,805.44 604.8,805.44 604.8,788.32 499.4,788.32 								"/>
							</g>
						</g>
					</g>
				</g>
			</g>
		</g>
		<g>
			<g>
				<g>
					<g>
						<g>
							<g>
								<polygon style="fill:#ECECEC;" points="503.36,866.7 598.21,866.7 598.21,805.44 604.8,805.44 604.8,788.32 499.4,788.32 
									499.4,803.86 								"/>
							</g>
						</g>
					</g>
				</g>
			</g>
		</g>
		<g>
			<g>
				<g>
					<g>
						<g>
							<g>
								<rect x="436.17" y="815.32" style="fill:#E1E1E1;" width="38.2" height="9.22"/>
							</g>
						</g>
					</g>
				</g>
			</g>
		</g>
		<g>
			<g>
				<g>
					<g>
						<g>
							<g>
								<rect x="431.25" y="836.07" style="fill:#FFFFFF;" width="49.06" height="19.47"/>
							</g>
						</g>
					</g>
				</g>
			</g>
		</g>
	</g>
</g>
<g>
	<g>
		<g>
			<g>
				<g>
					<g>
						<g>
							<g>
								<polygon style="fill:#F5F5F5;" points="438.8,727.14 438.8,788.4 528.39,788.4 627.19,788.4 627.19,727.14 								"/>
							</g>
						</g>
					</g>
				</g>
			</g>
		</g>
		<g>
			<g>
				<g>
					<g>
						<g>
							<g>
								<polygon style="fill:#ECECEC;" points="430.9,710.01 430.9,727.14 633.78,727.14 633.78,710.01 528.39,710.01 								"/>
							</g>
						</g>
					</g>
				</g>
			</g>
		</g>
		<g>
			<g>
				<g>
					<g>
						<g>
							<g>
								<polygon style="fill:#ECECEC;" points="532.34,788.4 627.19,788.4 627.19,727.14 633.78,727.14 633.78,710.01 
									528.39,710.01 528.39,725.55 								"/>
							</g>
						</g>
					</g>
				</g>
			</g>
		</g>
		<g>
			<g>
				<g>
					<g>
						<g>
							<g>
								<rect x="465.15" y="737.02" style="fill:#E1E1E1;" width="38.21" height="9.22"/>
							</g>
						</g>
					</g>
				</g>
			</g>
		</g>
		<g>
			<g>
				<g>
					<g>
						<g>
							<g>
								<rect x="460.23" y="757.77" style="fill:#FFFFFF;" width="49.06" height="19.47"/>
							</g>
						</g>
					</g>
				</g>
			</g>
		</g>
	</g>
</g>
<g>
	<g>
		<path style="fill:#1A2E35;" d="M844.35,867.17c0,0.28-189.03,0.51-422.15,0.51C188.99,867.69,0,867.46,0,867.17
			c0-0.28,188.99-0.51,422.19-0.51C655.32,866.66,844.35,866.89,844.35,867.17z"/>
	</g>
</g>
<g>
	<g>
		<g>
			<path style="fill:#FFFFFF;" d="M670.09,387.16H317.79c-7.15,0-12.94-5.79-12.94-12.94V50.1c0-7.15,5.79-12.94,12.94-12.94h352.29
				c7.15,0,12.94,5.79,12.94,12.94v324.12C683.02,381.36,677.23,387.16,670.09,387.16z"/>
		</g>
		<g>
			<g>
				<path style="fill:#1A2E35;" d="M670.09,387.16c0,0,0.31-0.03,0.93-0.07c0.61-0.04,1.54-0.17,2.71-0.51
					c1.16-0.36,2.58-0.96,4.02-2.04c1.43-1.08,2.92-2.64,3.92-4.8c1.12-2.13,1.34-4.83,1.23-7.77c-0.01-2.95-0.02-6.17-0.02-9.66
					c-0.01-6.99-0.03-15.04-0.05-24.11c-0.04-36.3-0.09-88.8-0.16-153.67c-0.02-32.44-0.04-67.97-0.06-106.12
					c-0.02-9.53-0.04-19.22-0.05-29.06c-0.23-4.78-3.52-9.27-8.1-10.92c-2.26-0.94-4.74-0.79-7.28-0.8c-2.52,0-5.05,0-7.59,0
					c-20.32,0.01-41.23,0.01-62.68,0.02c-85.78,0.01-180.09,0.03-279.08,0.04c-2.98,0-5.93,1.09-8.16,3.04
					c-2.26,1.93-3.76,4.69-4.16,7.62c-0.2,1.44-0.12,2.99-0.14,4.53v4.6c0,3.07,0,6.13,0,9.18c0,12.22,0,24.37,0,36.42
					c0,24.11-0.01,47.86-0.01,71.21c-0.01,46.68-0.02,91.71-0.03,134.61c-0.01,21.45-0.01,42.36-0.02,62.68
					c0.01,1.26-0.03,2.56,0.06,3.76c0.13,1.21,0.38,2.42,0.85,3.54c0.91,2.26,2.49,4.22,4.48,5.61c1.99,1.37,4.36,2.16,6.77,2.21
					c2.48,0.01,4.95,0.01,7.41,0.02c9.86,0,19.56,0.01,29.09,0.01c38.15,0.02,73.68,0.04,106.12,0.06
					c64.87,0.07,117.37,0.12,153.66,0.16c18.13,0.04,32.21,0.07,41.78,0.1c4.77,0.02,8.4,0.04,10.86,0.05
					C668.83,387.12,670.09,387.16,670.09,387.16s-1.25,0.04-3.7,0.05c-2.46,0.01-6.1,0.03-10.86,0.05
					c-9.56,0.02-23.65,0.05-41.78,0.1c-36.29,0.04-88.79,0.09-153.66,0.16c-32.44,0.02-67.97,0.04-106.12,0.06
					c-9.54,0-19.24,0.01-29.09,0.01c-2.47,0-4.95-0.01-7.43-0.01c-2.57-0.06-5.12-0.89-7.25-2.36c-2.13-1.48-3.82-3.58-4.8-6
					c-0.5-1.21-0.77-2.5-0.92-3.8c-0.1-1.33-0.05-2.56-0.06-3.84c-0.01-20.32-0.01-41.24-0.02-62.68
					c-0.01-42.9-0.02-87.93-0.03-134.61c0-23.34-0.01-47.1-0.01-71.21c0-12.05,0-24.2,0-36.42c0-3.06,0-6.12,0-9.18l0-4.6
					c0.02-1.53-0.07-3.07,0.15-4.67c0.43-3.17,2.06-6.17,4.5-8.25c2.42-2.11,5.62-3.29,8.84-3.29
					c98.99,0.01,193.29,0.03,279.08,0.04c21.44,0.01,42.36,0.01,62.68,0.02c2.54,0,5.07,0,7.59,0c2.47,0.01,5.16-0.15,7.59,0.86
					c4.9,1.77,8.42,6.59,8.66,11.7c0.01,9.86,0.02,19.57,0.03,29.12c-0.02,38.14-0.04,73.68-0.06,106.12
					c-0.07,64.87-0.12,117.37-0.16,153.67c-0.02,9.07-0.03,17.13-0.05,24.11c-0.01,3.49-0.02,6.71-0.02,9.66
					c0.1,2.92-0.15,5.72-1.3,7.86c-1.03,2.19-2.55,3.76-4.01,4.84c-1.47,1.09-2.91,1.67-4.09,2.02c-1.19,0.32-2.11,0.44-2.73,0.46
					C670.4,387.16,670.09,387.16,670.09,387.16z"/>
			</g>
		</g>
	</g>
	<g>
		<path style="fill:#1A2E35;" d="M333.39,61.42c0,3.61-2.93,6.54-6.54,6.54c-3.61,0-6.54-2.93-6.54-6.54c0-3.61,2.93-6.54,6.54-6.54
			C330.47,54.88,333.39,57.81,333.39,61.42z"/>
	</g>
	<g>
		<circle style="fill:#1A2E35;" cx="345.95" cy="61.42" r="6.54"/>
	</g>
	<g>
		<circle style="fill:#1A2E35;" cx="365.05" cy="61.42" r="6.54"/>
	</g>
	<g>
		<g>
			<path style="fill:#1A2E35;" d="M683.02,79.97c0,0.28-84.66,0.51-189.08,0.51c-104.45,0-189.09-0.23-189.09-0.51
				s84.64-0.51,189.09-0.51C598.36,79.45,683.02,79.68,683.02,79.97z"/>
		</g>
	</g>
	<g>
		<g>
			<g>
				<g>
					<g>
						<g>
							<path style="fill:#5143D9;" d="M547.36,211.81c0,0,0.15-0.21,0.45-0.61c0.08-0.1,0.16-0.21,0.25-0.33
								c0.09-0.13,0.16-0.28,0.26-0.44c0.18-0.32,0.41-0.69,0.57-1.15c0.09-0.23,0.2-0.46,0.29-0.72c0.07-0.26,0.15-0.54,0.23-0.83
								c0.09-0.29,0.14-0.6,0.19-0.92c0.04-0.33,0.13-0.66,0.14-1.02c0.15-1.42,0.06-3.08-0.22-4.91c-0.57-3.67-2.12-7.99-4.5-12.69
								c-2.38-4.71-5.65-9.77-9.68-15.05c-4.02-5.28-8.86-10.73-14.43-16.21c-5.57-5.47-11.87-10.96-18.94-16.17
								c-3.54-2.6-7.26-5.12-11.2-7.49c-3.93-2.38-8.07-4.6-12.44-6.52c-4.37-1.9-8.98-3.55-13.84-4.34
								c-2.42-0.37-4.92-0.55-7.38-0.18c-1.23,0.19-2.43,0.52-3.56,1.03c-1.12,0.54-2.14,1.27-2.99,2.19
								c-0.82,0.95-1.42,2.05-1.84,3.22c-0.38,1.19-0.58,2.42-0.62,3.66c-0.09,2.48,0.37,4.95,1.02,7.31
								c1.33,4.74,3.5,9.13,5.88,13.26c2.41,4.12,5.08,7.98,7.89,11.62c2.81,3.64,5.74,7.06,8.72,10.27
								c5.98,6.43,12.15,12.07,18.22,16.98c6.07,4.9,12.04,9.09,17.74,12.49c5.7,3.4,11.1,6.07,16.05,7.9
								c4.94,1.83,9.41,2.89,13.12,3.03c1.85,0.07,3.51-0.02,4.9-0.34c0.35-0.05,0.68-0.18,0.99-0.26c0.32-0.09,0.62-0.17,0.9-0.3
								c0.28-0.11,0.54-0.22,0.8-0.32c0.24-0.12,0.47-0.25,0.68-0.37c0.44-0.21,0.78-0.48,1.08-0.7c0.15-0.11,0.29-0.21,0.41-0.31
								c0.11-0.11,0.21-0.2,0.3-0.29C547.17,211.98,547.36,211.81,547.36,211.81s-0.18,0.19-0.53,0.54c-0.09,0.09-0.19,0.19-0.3,0.3
								c-0.12,0.1-0.26,0.2-0.41,0.31c-0.3,0.22-0.63,0.5-1.07,0.72c-0.21,0.12-0.44,0.25-0.68,0.38c-0.25,0.1-0.52,0.21-0.8,0.33
								c-0.28,0.13-0.58,0.22-0.9,0.3c-0.32,0.08-0.64,0.21-1,0.26c-1.4,0.32-3.06,0.43-4.92,0.36c-3.73-0.13-8.21-1.17-13.17-2.99
								c-4.96-1.82-10.38-4.49-16.1-7.88c-5.72-3.39-11.7-7.58-17.79-12.48c-6.08-4.91-12.27-10.55-18.26-16.98
								c-2.99-3.22-5.93-6.64-8.74-10.29c-2.82-3.64-5.5-7.51-7.92-11.64c-2.39-4.14-4.57-8.55-5.92-13.32
								c-0.65-2.38-1.12-4.87-1.03-7.4c0.05-1.26,0.25-2.52,0.64-3.74c0.43-1.2,1.05-2.34,1.9-3.32c0.88-0.95,1.94-1.7,3.09-2.26
								c1.17-0.52,2.4-0.86,3.64-1.06c2.5-0.38,5.03-0.19,7.47,0.18c4.9,0.79,9.52,2.46,13.91,4.36c4.38,1.93,8.53,4.16,12.47,6.54
								c3.94,2.38,7.67,4.91,11.21,7.52c7.07,5.22,13.38,10.73,18.95,16.21c5.56,5.49,10.4,10.96,14.42,16.25
								c4.02,5.29,7.29,10.37,9.66,15.1c2.37,4.71,3.92,9.05,4.47,12.74c0.28,1.84,0.36,3.5,0.2,4.93c-0.01,0.36-0.1,0.7-0.15,1.02
								c-0.05,0.33-0.1,0.64-0.2,0.93c-0.08,0.29-0.16,0.57-0.24,0.83c-0.09,0.26-0.2,0.49-0.3,0.72c-0.17,0.46-0.4,0.83-0.59,1.15
								c-0.1,0.16-0.18,0.31-0.26,0.44c-0.1,0.12-0.18,0.23-0.26,0.33C547.52,211.62,547.36,211.81,547.36,211.81z"/>
						</g>
					</g>
				</g>
				<g>
					<g>
						<g>
							<path style="fill:#5143D9;" d="M565.26,168.6c0,0-0.03-0.26-0.07-0.76c-0.01-0.13-0.02-0.26-0.03-0.42
								c-0.02-0.15-0.07-0.32-0.1-0.5c-0.08-0.36-0.15-0.79-0.34-1.24c-0.08-0.23-0.16-0.48-0.26-0.73
								c-0.12-0.24-0.25-0.5-0.38-0.77c-0.12-0.28-0.29-0.54-0.47-0.82c-0.19-0.27-0.34-0.58-0.57-0.85c-0.83-1.16-2-2.34-3.43-3.51
								c-2.87-2.36-6.9-4.55-11.81-6.47c-4.91-1.93-10.72-3.53-17.24-4.79c-6.52-1.26-13.76-2.11-21.55-2.49
								c-7.8-0.37-16.16-0.28-24.9,0.54c-4.37,0.41-8.83,1.02-13.34,1.86c-4.51,0.84-9.08,1.94-13.62,3.41
								c-4.52,1.49-9.06,3.32-13.21,5.97c-2.06,1.33-4.04,2.86-5.63,4.78c-0.79,0.96-1.47,2.01-1.97,3.14
								c-0.47,1.15-0.75,2.37-0.78,3.62c0.02,1.25,0.3,2.48,0.77,3.63c0.51,1.14,1.18,2.19,1.97,3.15c1.58,1.92,3.57,3.45,5.63,4.78
								c4.15,2.65,8.69,4.49,13.22,5.98c4.54,1.47,9.11,2.57,13.62,3.41c4.52,0.85,8.98,1.45,13.35,1.86
								c8.74,0.82,17.1,0.92,24.9,0.54c7.8-0.38,15.04-1.23,21.55-2.49c6.51-1.26,12.33-2.86,17.24-4.79
								c4.9-1.92,8.94-4.11,11.81-6.47c1.43-1.18,2.6-2.35,3.43-3.51c0.23-0.27,0.39-0.58,0.57-0.85c0.18-0.28,0.35-0.54,0.47-0.82
								c0.13-0.27,0.26-0.53,0.38-0.77c0.1-0.25,0.18-0.5,0.26-0.73c0.19-0.45,0.26-0.88,0.34-1.24c0.04-0.18,0.08-0.35,0.1-0.5
								c0.01-0.15,0.02-0.29,0.03-0.42C565.23,168.85,565.26,168.6,565.26,168.6s-0.01,0.26-0.04,0.76
								c-0.01,0.13-0.02,0.27-0.03,0.42c-0.02,0.15-0.06,0.32-0.1,0.5c-0.07,0.36-0.14,0.79-0.32,1.25
								c-0.08,0.23-0.16,0.48-0.26,0.73c-0.12,0.25-0.25,0.51-0.38,0.78c-0.12,0.28-0.29,0.55-0.47,0.83
								c-0.18,0.27-0.34,0.59-0.57,0.86c-0.83,1.17-2,2.36-3.43,3.55c-2.87,2.38-6.91,4.6-11.82,6.53
								c-4.91,1.95-10.73,3.56-17.26,4.84c-6.53,1.28-13.77,2.14-21.58,2.53c-7.81,0.38-16.18,0.3-24.94-0.52
								c-4.38-0.41-8.85-1.01-13.37-1.86c-4.53-0.84-9.11-1.94-13.66-3.42c-4.54-1.5-9.1-3.33-13.28-6.01
								c-2.07-1.35-4.08-2.89-5.69-4.84c-0.8-0.97-1.49-2.05-2.02-3.22c-0.48-1.18-0.77-2.45-0.79-3.74
								c0.02-1.29,0.32-2.56,0.8-3.74c0.52-1.17,1.21-2.24,2.02-3.21c1.61-1.95,3.62-3.49,5.69-4.83c4.18-2.67,8.74-4.51,13.28-6
								c4.55-1.48,9.13-2.58,13.66-3.41c4.52-0.84,8.99-1.44,13.37-1.86c8.75-0.81,17.13-0.9,24.93-0.52
								c7.81,0.39,15.06,1.25,21.58,2.53c6.52,1.27,12.34,2.89,17.26,4.84c4.91,1.94,8.95,4.15,11.82,6.53
								c1.43,1.19,2.6,2.37,3.43,3.55c0.23,0.28,0.39,0.59,0.57,0.86c0.18,0.28,0.35,0.55,0.47,0.83c0.13,0.27,0.26,0.53,0.38,0.78
								c0.1,0.25,0.18,0.5,0.26,0.73c0.18,0.46,0.25,0.89,0.32,1.25c0.03,0.18,0.08,0.35,0.1,0.5c0.01,0.16,0.02,0.3,0.03,0.42
								C565.25,168.34,565.26,168.6,565.26,168.6z"/>
						</g>
					</g>
				</g>
				<g>
					<g>
						<g>
							<path style="fill:#5143D9;" d="M541.54,114.8c0,0-0.22-0.14-0.64-0.41c-0.1-0.07-0.22-0.15-0.35-0.23
								c-0.13-0.08-0.29-0.14-0.46-0.23c-0.33-0.16-0.71-0.36-1.19-0.49c-0.23-0.07-0.47-0.16-0.74-0.24
								c-0.27-0.05-0.55-0.11-0.84-0.17c-0.29-0.07-0.61-0.1-0.93-0.13c-0.33-0.02-0.67-0.09-1.02-0.07
								c-1.43-0.06-3.07,0.15-4.88,0.56c-3.62,0.82-7.83,2.67-12.35,5.37c-4.53,2.7-9.36,6.31-14.34,10.69
								c-4.99,4.38-10.09,9.58-15.17,15.51c-5.07,5.93-10.12,12.6-14.82,20.01c-2.35,3.71-4.61,7.6-6.7,11.69
								c-2.1,4.08-4.03,8.37-5.65,12.86c-1.59,4.49-2.93,9.2-3.37,14.1c-0.21,2.44-0.21,4.95,0.33,7.37
								c0.27,1.21,0.69,2.39,1.28,3.49c0.62,1.08,1.42,2.05,2.39,2.83c1,0.75,2.14,1.28,3.34,1.61c1.21,0.29,2.45,0.41,3.69,0.37
								c2.49-0.08,4.91-0.71,7.23-1.52c4.64-1.65,8.87-4.12,12.82-6.78c3.95-2.69,7.62-5.62,11.04-8.68
								c3.43-3.05,6.64-6.21,9.65-9.41c6-6.41,11.2-12.96,15.68-19.35c4.47-6.4,8.24-12.64,11.24-18.56
								c3-5.92,5.29-11.49,6.78-16.56c1.49-5.05,2.23-9.58,2.12-13.29c-0.05-1.85-0.26-3.5-0.67-4.86
								c-0.08-0.35-0.22-0.66-0.32-0.97c-0.11-0.31-0.21-0.61-0.36-0.87c-0.13-0.27-0.26-0.53-0.38-0.77
								c-0.14-0.24-0.28-0.45-0.41-0.65c-0.24-0.42-0.54-0.74-0.77-1.03c-0.12-0.14-0.22-0.28-0.33-0.39
								c-0.11-0.1-0.22-0.2-0.31-0.28C541.73,114.98,541.54,114.8,541.54,114.8s0.2,0.16,0.58,0.49c0.09,0.08,0.2,0.18,0.32,0.28
								c0.11,0.11,0.22,0.25,0.34,0.38c0.24,0.28,0.54,0.6,0.79,1.02c0.13,0.21,0.28,0.42,0.42,0.65c0.12,0.25,0.25,0.5,0.38,0.78
								c0.15,0.27,0.25,0.56,0.36,0.88c0.1,0.31,0.25,0.63,0.33,0.98c0.42,1.37,0.64,3.03,0.7,4.88c0.13,3.73-0.6,8.28-2.08,13.34
								c-1.47,5.08-3.76,10.67-6.75,16.6c-2.99,5.94-6.75,12.2-11.22,18.61c-4.48,6.41-9.68,12.97-15.69,19.39
								c-3.01,3.21-6.22,6.37-9.66,9.43c-3.44,3.06-7.11,6.01-11.07,8.7c-3.96,2.67-8.21,5.15-12.89,6.82
								c-2.33,0.81-4.78,1.46-7.31,1.54c-1.26,0.04-2.54-0.08-3.78-0.38c-1.23-0.34-2.41-0.89-3.44-1.66
								c-1.01-0.81-1.83-1.82-2.46-2.92c-0.6-1.13-1.03-2.33-1.3-3.56c-0.55-2.47-0.54-5-0.33-7.46c0.45-4.94,1.79-9.67,3.39-14.17
								c1.62-4.5,3.56-8.8,5.67-12.89c2.1-4.09,4.37-7.99,6.72-11.7c4.72-7.42,9.78-14.09,14.87-20.02
								c5.09-5.93,10.22-11.13,15.22-15.51c5-4.37,9.85-7.98,14.4-10.67c4.54-2.69,8.76-4.53,12.4-5.34c1.81-0.4,3.47-0.6,4.91-0.54
								c0.36-0.01,0.7,0.06,1.03,0.08c0.33,0.03,0.65,0.06,0.94,0.13c0.3,0.06,0.58,0.12,0.85,0.18c0.26,0.08,0.51,0.17,0.74,0.25
								c0.47,0.14,0.85,0.34,1.19,0.51c0.17,0.08,0.32,0.15,0.46,0.23c0.13,0.09,0.24,0.17,0.35,0.24
								C541.33,114.65,541.54,114.8,541.54,114.8z"/>
						</g>
					</g>
				</g>
				<g>
					<g>
						<path style="fill:#5143D9;" d="M434.7,195.39c0.94,0.94,0.94,2.47,0,3.41c-0.94,0.94-2.47,0.94-3.41,0
							c-0.94-0.94-0.94-2.47,0-3.41C432.23,194.45,433.76,194.45,434.7,195.39z"/>
					</g>
				</g>
				<g>
					<g>
						<path style="fill:#5143D9;" d="M570.75,120.67c0,1.33-1.08,2.41-2.41,2.41c-1.33,0-2.41-1.08-2.41-2.41
							c0-1.33,1.08-2.41,2.41-2.41C569.67,118.26,570.75,119.34,570.75,120.67z"/>
					</g>
				</g>
				<g>
					<g>
						<path style="fill:#5143D9;" d="M449.93,203.32c0,0.34-0.27,0.61-0.61,0.61s-0.61-0.27-0.61-0.61c0-0.34,0.27-0.61,0.61-0.61
							S449.93,202.98,449.93,203.32z"/>
					</g>
				</g>
				<g>
					<g>
						<path style="fill:#5143D9;" d="M463.01,135.75c0,0.34-0.27,0.61-0.61,0.61c-0.34,0-0.61-0.27-0.61-0.61
							c0-0.34,0.27-0.61,0.61-0.61C462.73,135.14,463.01,135.41,463.01,135.75z"/>
					</g>
				</g>
				<g>
					<g>
						<path style="fill:#5143D9;" d="M558.64,168.6c0,0.34-0.27,0.61-0.61,0.61c-0.34,0-0.61-0.27-0.61-0.61
							c0-0.34,0.27-0.61,0.61-0.61C558.36,167.98,558.64,168.26,558.64,168.6z"/>
					</g>
				</g>
				<g>
					<g>
						<path style="fill:#5143D9;" d="M567.15,140.03c0,0.34-0.27,0.61-0.61,0.61c-0.34,0-0.61-0.27-0.61-0.61s0.27-0.61,0.61-0.61
							C566.88,139.41,567.15,139.69,567.15,140.03z"/>
					</g>
				</g>
			</g>
		</g>
		<g>
			<g>
				<g>
					<g>
						<g>
							<g>
								<g>
									<path style="fill:#5143D9;" d="M525.85,182.07h-7.58v-41.25c0-9.71-7.9-17.61-17.61-17.61c-9.71,0-17.61,7.9-17.61,17.61
										v41.25h-7.58v-41.25c0-13.89,11.3-25.19,25.19-25.19c13.89,0,25.19,11.3,25.19,25.19V182.07z"/>
								</g>
							</g>
						</g>
						<g style="opacity:0.3;">
							<g>
								<g>
									<path d="M525.85,182.07h-7.58v-41.25c0-9.71-7.9-17.61-17.61-17.61c-9.71,0-17.61,7.9-17.61,17.61v41.25h-7.58v-41.25
										c0-13.89,11.3-25.19,25.19-25.19c13.89,0,25.19,11.3,25.19,25.19V182.07z"/>
								</g>
							</g>
						</g>
						<g>
							<g>
								<g>
									<path style="fill:#5143D9;" d="M530.16,207.27h-59c-2.45,0-4.44-1.99-4.44-4.44v-34.67c0-2.45,1.99-4.44,4.44-4.44h59
										c2.45,0,4.44,1.99,4.44,4.44v34.67C534.61,205.28,532.62,207.27,530.16,207.27z"/>
								</g>
							</g>
						</g>
						<g style="opacity:0.3;">
							<g>
								<path d="M506.34,179.82c0-3.13-2.54-5.67-5.67-5.67c-3.13,0-5.67,2.54-5.67,5.67c0,2.59,1.75,4.76,4.13,5.43v8.48h3.1v-8.48
									C504.59,184.58,506.34,182.42,506.34,179.82z"/>
							</g>
						</g>
					</g>
					<g>
						<g>
							<g>
								<g>
									<path style="fill:#FAFAFA;" d="M470.34,203.14c-0.16,0-0.28-7.26-0.28-16.22c0-8.96,0.13-16.22,0.28-16.22
										c0.16,0,0.28,7.26,0.28,16.22C470.63,195.88,470.5,203.14,470.34,203.14z"/>
								</g>
							</g>
						</g>
					</g>
					<g>
						<g>
							<g>
								<g>
									<path style="fill:#FAFAFA;" d="M496.22,187.1c-0.02,0.03-0.27-0.09-0.67-0.38c-0.4-0.29-0.93-0.78-1.46-1.49
										c-1.06-1.39-2.03-3.91-1.4-6.63c0.66-2.72,2.65-4.53,4.22-5.3c0.79-0.4,1.49-0.6,1.98-0.68c0.49-0.08,0.76-0.07,0.76-0.04
										c0.02,0.11-1.08,0.21-2.55,1.06c-1.45,0.82-3.26,2.57-3.87,5.08c-0.58,2.51,0.25,4.89,1.18,6.27
										C495.35,186.43,496.29,187.01,496.22,187.1z"/>
								</g>
							</g>
						</g>
					</g>
				</g>
			</g>
		</g>
	</g>
	<g>
		<path style="fill:#F5F5F5;" d="M601.45,283.61H392.44c-10.15,0-18.37-8.23-18.37-18.37v-2.26c0-10.15,8.23-18.37,18.37-18.37
			h209.01c10.15,0,18.37,8.23,18.37,18.37v2.26C619.82,275.38,611.6,283.61,601.45,283.61z"/>
	</g>
	<g>
		<path style="fill:#F5F5F5;" d="M603.26,337.1H394.25c-10.15,0-18.37-8.23-18.37-18.37v-2.26c0-10.15,8.23-18.37,18.37-18.37
			h209.01c10.15,0,18.37,8.23,18.37,18.37v2.26C621.63,328.87,613.4,337.1,603.26,337.1z"/>
	</g>
	<g>
		<path style="fill:#1A2E35;" d="M412.91,263.79v-5.65h2.34v5.56c0,1.92,0.84,2.71,2.25,2.71c1.43,0,2.25-0.79,2.25-2.71v-5.56h2.31
			v5.65c0,2.97-1.7,4.61-4.57,4.61C414.61,268.41,412.91,266.76,412.91,263.79z"/>
		<path style="fill:#1A2E35;" d="M423.45,267.51l0.75-1.61c0.69,0.45,1.74,0.75,2.69,0.75c1.04,0,1.43-0.27,1.43-0.71
			c0-1.27-4.68,0.03-4.68-3.07c0-1.47,1.33-2.51,3.59-2.51c1.06,0,2.25,0.25,2.98,0.68l-0.75,1.6c-0.76-0.43-1.53-0.58-2.23-0.58
			c-1.01,0-1.44,0.32-1.44,0.72c0,1.33,4.69,0.04,4.69,3.1c0,1.44-1.34,2.47-3.66,2.47C425.49,268.35,424.17,267.99,423.45,267.51z"
			/>
		<path style="fill:#1A2E35;" d="M439.4,264.99h-5.87c0.22,0.97,1.04,1.56,2.22,1.56c0.82,0,1.41-0.25,1.95-0.75l1.2,1.3
			c-0.72,0.82-1.8,1.25-3.2,1.25c-2.68,0-4.43-1.69-4.43-3.99c0-2.32,1.77-3.99,4.14-3.99c2.28,0,4.03,1.53,4.03,4.02
			C439.44,264.56,439.42,264.8,439.4,264.99z M433.51,263.68h3.82c-0.16-0.98-0.89-1.61-1.9-1.61
			C434.4,262.06,433.67,262.68,433.51,263.68z"/>
		<path style="fill:#1A2E35;" d="M445.76,260.36v2.08c-0.19-0.01-0.33-0.03-0.5-0.03c-1.24,0-2.06,0.68-2.06,2.16v3.66h-2.25v-7.75
			h2.15v1.02C443.64,260.75,444.56,260.36,445.76,260.36z"/>
		<path style="fill:#1A2E35;" d="M455.03,263.79v4.44h-2.25v-4.09c0-1.25-0.58-1.83-1.57-1.83c-1.08,0-1.86,0.66-1.86,2.09v3.83
			h-2.25v-7.75h2.15v0.91c0.6-0.66,1.51-1.02,2.57-1.02C453.64,260.36,455.03,261.43,455.03,263.79z"/>
		<path style="fill:#1A2E35;" d="M463.92,263.81v4.42h-2.1v-0.97c-0.42,0.71-1.22,1.08-2.36,1.08c-1.82,0-2.9-1.01-2.9-2.35
			c0-1.37,0.96-2.32,3.33-2.32h1.79c0-0.97-0.58-1.53-1.79-1.53c-0.82,0-1.67,0.27-2.23,0.72l-0.81-1.57
			c0.85-0.61,2.1-0.94,3.34-0.94C462.55,260.36,463.92,261.46,463.92,263.81z M461.67,265.78v-0.79h-1.54
			c-1.05,0-1.38,0.39-1.38,0.91c0,0.56,0.48,0.94,1.27,0.94C460.76,266.83,461.41,266.49,461.67,265.78z"/>
		<path style="fill:#1A2E35;" d="M479.06,263.79v4.44h-2.25v-4.09c0-1.25-0.56-1.83-1.47-1.83c-1.01,0-1.71,0.65-1.71,2.03v3.89
			h-2.25v-4.09c0-1.25-0.53-1.83-1.47-1.83c-1,0-1.7,0.65-1.7,2.03v3.89h-2.25v-7.75h2.15v0.89c0.58-0.66,1.44-1.01,2.44-1.01
			c1.08,0,2,0.42,2.55,1.27c0.62-0.79,1.63-1.27,2.8-1.27C477.73,260.36,479.06,261.43,479.06,263.79z"/>
		<path style="fill:#1A2E35;" d="M488.72,264.99h-5.87c0.22,0.97,1.04,1.56,2.22,1.56c0.82,0,1.41-0.25,1.95-0.75l1.2,1.3
			c-0.72,0.82-1.8,1.25-3.2,1.25c-2.68,0-4.42-1.69-4.42-3.99c0-2.32,1.77-3.99,4.14-3.99c2.28,0,4.03,1.53,4.03,4.02
			C488.76,264.56,488.73,264.8,488.72,264.99z M482.82,263.68h3.82c-0.16-0.98-0.89-1.61-1.9-1.61
			C483.71,262.06,482.98,262.68,482.82,263.68z"/>
		<path style="fill:#1A2E35;" d="M503.58,264.28c0,2.58-1.18,4.05-2.95,4.05c-0.98,0-1.67-0.43-1.97-1.25
			c-0.5,0.81-1.33,1.25-2.47,1.25c-1.86,0-3.33-1.47-3.33-3.65c0-2.16,1.46-3.63,3.33-3.63c0.95,0,1.7,0.33,2.22,0.95v-0.85h1.96
			v4.67c0,0.69,0.3,0.92,0.69,0.92c0.66,0,1.07-0.76,1.07-2.44c0-2.93-2.16-4.94-5.36-4.94c-3.21,0-5.36,2.19-5.36,5.2
			c0,3.07,2.11,5.25,5.3,5.25c0.91,0,1.93-0.19,2.84-0.63l0.46,1.33c-0.88,0.45-2.16,0.69-3.3,0.69c-4.17,0-6.92-2.83-6.92-6.63
			c0-3.76,2.78-6.57,6.98-6.57C500.81,258,503.58,260.67,503.58,264.28z M498.43,264.69c0-1.25-0.76-1.96-1.8-1.96
			c-1.05,0-1.79,0.73-1.79,1.96c0,1.24,0.74,1.99,1.79,1.99C497.67,266.68,498.43,265.96,498.43,264.69z"/>
		<path style="fill:#1A2E35;" d="M518.28,263.79v4.44h-2.25v-4.09c0-1.25-0.56-1.83-1.47-1.83c-1.01,0-1.71,0.65-1.71,2.03v3.89
			h-2.25v-4.09c0-1.25-0.53-1.83-1.47-1.83c-1,0-1.7,0.65-1.7,2.03v3.89h-2.25v-7.75h2.15v0.89c0.58-0.66,1.44-1.01,2.44-1.01
			c1.08,0,2,0.42,2.55,1.27c0.62-0.79,1.63-1.27,2.8-1.27C516.95,260.36,518.28,261.43,518.28,263.79z"/>
		<path style="fill:#1A2E35;" d="M527.16,263.81v4.42h-2.1v-0.97c-0.42,0.71-1.22,1.08-2.36,1.08c-1.82,0-2.9-1.01-2.9-2.35
			c0-1.37,0.96-2.32,3.33-2.32h1.79c0-0.97-0.58-1.53-1.79-1.53c-0.82,0-1.67,0.27-2.23,0.72l-0.81-1.57
			c0.85-0.61,2.1-0.94,3.34-0.94C525.79,260.36,527.16,261.46,527.16,263.81z M524.91,265.78v-0.79h-1.54
			c-1.05,0-1.38,0.39-1.38,0.91c0,0.56,0.48,0.94,1.27,0.94C524,266.83,524.65,266.49,524.91,265.78z"/>
		<path style="fill:#1A2E35;" d="M528.92,258.14c0-0.71,0.56-1.25,1.4-1.25c0.84,0,1.4,0.52,1.4,1.21c0,0.75-0.56,1.3-1.4,1.3
			C529.48,259.4,528.92,258.85,528.92,258.14z M529.19,260.48h2.25v7.75h-2.25V260.48z"/>
		<path style="fill:#1A2E35;" d="M533.53,257.54h2.25v10.7h-2.25V257.54z"/>
		<path style="fill:#1A2E35;" d="M537.32,266.94c0-0.84,0.62-1.38,1.4-1.38c0.78,0,1.4,0.55,1.4,1.38c0,0.82-0.62,1.41-1.4,1.41
			C537.94,268.35,537.32,267.76,537.32,266.94z"/>
		<path style="fill:#1A2E35;" d="M540.97,264.36c0-2.34,1.8-3.99,4.33-3.99c1.63,0,2.91,0.71,3.47,1.98l-1.74,0.94
			c-0.42-0.74-1.04-1.07-1.74-1.07c-1.14,0-2.03,0.79-2.03,2.15s0.89,2.15,2.03,2.15c0.71,0,1.33-0.32,1.74-1.07l1.74,0.95
			c-0.56,1.24-1.85,1.96-3.47,1.96C542.77,268.35,540.97,266.69,540.97,264.36z"/>
		<path style="fill:#1A2E35;" d="M549.39,264.36c0-2.34,1.8-3.99,4.27-3.99c2.47,0,4.25,1.66,4.25,3.99s-1.79,3.99-4.25,3.99
			C551.19,268.35,549.39,266.69,549.39,264.36z M555.63,264.36c0-1.34-0.85-2.15-1.97-2.15c-1.12,0-1.99,0.81-1.99,2.15
			c0,1.34,0.86,2.15,1.99,2.15C554.78,266.5,555.63,265.7,555.63,264.36z"/>
		<path style="fill:#1A2E35;" d="M572.51,263.79v4.44h-2.25v-4.09c0-1.25-0.56-1.83-1.47-1.83c-1.01,0-1.71,0.65-1.71,2.03v3.89
			h-2.25v-4.09c0-1.25-0.53-1.83-1.47-1.83c-1,0-1.7,0.65-1.7,2.03v3.89h-2.25v-7.75h2.15v0.89c0.58-0.66,1.44-1.01,2.44-1.01
			c1.08,0,2,0.42,2.55,1.27c0.62-0.79,1.63-1.27,2.8-1.27C571.18,260.36,572.51,261.43,572.51,263.79z"/>
	</g>
	<g>
		<path style="fill:#1A2E35;" d="M443.03,317.8l3.65,1.98l-1.64,2.75l-3.68-2.18l0.07,4.05h-3.15l0.03-4.09l-3.68,2.21l-1.61-2.75
			l3.65-1.98l-3.65-2.01l1.61-2.75l3.68,2.21l-0.03-4.09h3.15l-0.07,4.09l3.68-2.21l1.64,2.75L443.03,317.8z"/>
		<path style="fill:#1A2E35;" d="M458.22,317.8l3.65,1.98l-1.64,2.75l-3.68-2.18l0.07,4.05h-3.15l0.03-4.09l-3.68,2.21l-1.61-2.75
			l3.65-1.98l-3.65-2.01l1.61-2.75l3.68,2.21l-0.03-4.09h3.15l-0.07,4.09l3.68-2.21l1.64,2.75L458.22,317.8z"/>
		<path style="fill:#1A2E35;" d="M473.42,317.8l3.65,1.98l-1.64,2.75l-3.68-2.18l0.07,4.05h-3.15l0.03-4.09l-3.68,2.21l-1.61-2.75
			l3.65-1.98l-3.65-2.01l1.61-2.75l3.68,2.21l-0.03-4.09h3.15l-0.07,4.09l3.68-2.21l1.64,2.75L473.42,317.8z"/>
		<path style="fill:#1A2E35;" d="M488.62,317.8l3.65,1.98l-1.64,2.75l-3.68-2.18l0.07,4.05h-3.15l0.03-4.09l-3.68,2.21l-1.61-2.75
			l3.65-1.98l-3.65-2.01l1.61-2.75l3.68,2.21l-0.03-4.09h3.15l-0.07,4.09l3.68-2.21l1.64,2.75L488.62,317.8z"/>
		<path style="fill:#1A2E35;" d="M503.82,317.8l3.65,1.98l-1.64,2.75l-3.68-2.18l0.07,4.05h-3.15l0.03-4.09l-3.68,2.21l-1.61-2.75
			l3.65-1.98l-3.65-2.01l1.61-2.75l3.68,2.21l-0.03-4.09h3.15l-0.07,4.09l3.68-2.21l1.64,2.75L503.82,317.8z"/>
		<path style="fill:#1A2E35;" d="M519.02,317.8l3.65,1.98l-1.64,2.75l-3.68-2.18l0.07,4.05h-3.15l0.03-4.09l-3.68,2.21l-1.61-2.75
			l3.65-1.98l-3.65-2.01l1.61-2.75l3.68,2.21l-0.03-4.09h3.15l-0.07,4.09l3.68-2.21l1.64,2.75L519.02,317.8z"/>
		<path style="fill:#1A2E35;" d="M534.22,317.8l3.65,1.98l-1.64,2.75l-3.68-2.18l0.07,4.05h-3.15l0.03-4.09l-3.68,2.21l-1.61-2.75
			l3.65-1.98l-3.65-2.01l1.61-2.75l3.68,2.21l-0.03-4.09h3.15l-0.07,4.09l3.68-2.21l1.64,2.75L534.22,317.8z"/>
		<path style="fill:#1A2E35;" d="M549.42,317.8l3.65,1.98l-1.64,2.75l-3.68-2.18l0.07,4.05h-3.15l0.03-4.09l-3.68,2.21l-1.61-2.75
			l3.65-1.98l-3.65-2.01l1.61-2.75l3.68,2.21l-0.03-4.09h3.15l-0.07,4.09l3.68-2.21l1.64,2.75L549.42,317.8z"/>
	</g>
</g>
<g>
	<g>
		<g>
			<path style="fill:#FFFFFF;" d="M715.62,603.82h-293.9c-6.95,0-12.58-5.63-12.58-12.58V439.12c0-6.95,5.63-12.58,12.58-12.58
				h293.9c6.95,0,12.58,5.63,12.58,12.58v152.13C728.2,598.19,722.57,603.82,715.62,603.82z"/>
		</g>
		<g>
			<g>
				<path style="fill:#1A2E35;" d="M715.62,603.82c0-0.06,0.86,0.02,2.48-0.3c1.59-0.35,4.03-1.17,6.33-3.45
					c1.13-1.13,2.17-2.65,2.85-4.5c0.37-0.92,0.56-1.94,0.7-3.01c0.08-1.07,0.07-2.21,0.06-3.39c-0.01-4.73-0.03-10.19-0.05-16.33
					c-0.04-24.59-0.09-60.14-0.16-104.06c-0.01-5.49-0.01-11.11-0.02-16.86c0-2.87-0.01-5.78-0.01-8.72
					c-0.07-2.94,0.31-5.95-0.89-8.64c-1.09-2.69-3.18-5-5.83-6.32c-1.32-0.67-2.77-1.09-4.25-1.24c-1.47-0.11-3.07-0.04-4.61-0.06
					c-6.23,0-12.58,0.01-19.04,0.01c-25.83,0.01-53.43,0.03-82.47,0.05c-58.09,0.01-121.94,0.03-188.97,0.04
					c-2.01,0.01-4.01,0.52-5.78,1.46c-1.74,0.98-3.28,2.36-4.36,4.04c-1.07,1.68-1.78,3.61-1.9,5.6c-0.1,1.99-0.03,4.13-0.05,6.18
					c0,8.28,0,16.5,0,24.66c0,16.32-0.01,32.41-0.01,48.22c0,15.81-0.01,31.33-0.01,46.54c0,7.6-0.01,15.12-0.01,22.56
					c0.01,1.85-0.03,3.74,0.03,5.54c0.08,1.78,0.56,3.52,1.39,5.09c1.66,3.13,4.74,5.43,8.16,6.15c1.69,0.4,3.49,0.23,5.31,0.27
					c1.8,0,3.6,0,5.39,0c3.59,0,7.15,0,10.69,0.01c7.08,0,14.06,0.01,20.94,0.01c13.76,0.01,27.12,0.02,40.03,0.03
					c25.83,0.02,49.89,0.04,71.86,0.06c43.92,0.07,79.46,0.12,104.05,0.16c12.27,0.04,21.8,0.07,28.29,0.1
					c3.22,0.02,5.68,0.04,7.36,0.05C714.77,603.79,715.62,603.82,715.62,603.82s-0.85,0.04-2.51,0.05
					c-1.68,0.01-4.14,0.03-7.36,0.05c-6.49,0.02-16.02,0.05-28.29,0.1c-24.59,0.04-60.13,0.09-104.05,0.16
					c-21.97,0.02-46.03,0.04-71.86,0.06c-12.92,0.01-26.27,0.02-40.03,0.03c-6.88,0-13.86,0.01-20.94,0.01c-3.54,0-7.1,0-10.69,0.01
					c-1.79,0-3.59,0-5.39,0c-1.78-0.04-3.64,0.14-5.51-0.29c-3.69-0.78-7.01-3.25-8.8-6.63c-0.89-1.69-1.41-3.57-1.5-5.49
					c-0.06-1.89-0.02-3.72-0.03-5.58c0-7.44-0.01-14.96-0.01-22.56c0-15.21-0.01-30.73-0.01-46.54c0-15.81-0.01-31.89-0.01-48.22
					c0-8.16,0-16.38,0-24.66c0.02-2.09-0.05-4.1,0.05-6.26c0.14-2.16,0.91-4.26,2.07-6.08c1.17-1.83,2.83-3.32,4.73-4.38
					c1.92-1.02,4.09-1.57,6.27-1.58c67.03,0.01,130.89,0.03,188.97,0.04c29.04,0.02,56.64,0.03,82.47,0.05
					c6.46,0,12.8,0.01,19.04,0.01c1.57,0.02,3.08-0.05,4.69,0.07c1.59,0.16,3.13,0.62,4.54,1.33c2.82,1.42,5.05,3.88,6.2,6.75
					c0.59,1.43,0.9,2.97,0.92,4.49c0,1.49,0.01,2.97,0.01,4.44c0,2.94-0.01,5.84-0.01,8.72c-0.01,5.75-0.01,11.37-0.02,16.86
					c-0.07,43.92-0.12,79.47-0.16,104.06c-0.02,6.14-0.03,11.6-0.05,16.33c0,1.18,0.01,2.32-0.08,3.42
					c-0.16,1.09-0.36,2.13-0.74,3.07c-0.71,1.89-1.78,3.42-2.94,4.56c-2.36,2.29-4.85,3.09-6.46,3.41c-0.82,0.13-1.45,0.2-1.87,0.19
					C715.83,603.83,715.62,603.82,715.62,603.82z"/>
			</g>
		</g>
	</g>
	<g>
		<path style="fill:#1A2E35;" d="M520.3,489.18v2.21h-9.23v-11.92h9.01v2.21h-6.27v2.59h5.54v2.15h-5.54v2.76H520.3z"/>
		<path style="fill:#1A2E35;" d="M533.44,479.47v11.92h-2.26l-5.95-7.24v7.24h-2.73v-11.92h2.28l5.93,7.24v-7.24H533.44z"/>
		<path style="fill:#1A2E35;" d="M538.74,481.72h-3.82v-2.25h10.39v2.25h-3.82v9.67h-2.76V481.72z"/>
		<path style="fill:#1A2E35;" d="M556.03,489.18v2.21h-9.23v-11.92h9.01v2.21h-6.27v2.59h5.53v2.15h-5.53v2.76H556.03z"/>
		<path style="fill:#1A2E35;" d="M565.82,491.39l-2.3-3.32h-0.13h-2.4v3.32h-2.76v-11.92h5.16c3.18,0,5.18,1.65,5.18,4.33
			c0,1.79-0.9,3.1-2.45,3.76l2.67,3.83H565.82z M563.24,481.72h-2.25v4.16h2.25c1.69,0,2.54-0.78,2.54-2.08
			C565.77,482.49,564.92,481.72,563.24,481.72z"/>
		<path style="fill:#1A2E35;" d="M574.82,485.43c0-3.59,2.76-6.17,6.47-6.17c2.06,0,3.78,0.75,4.91,2.11l-1.77,1.64
			c-0.8-0.92-1.81-1.4-3-1.4c-2.23,0-3.82,1.57-3.82,3.82c0,2.25,1.58,3.82,3.82,3.82c1.19,0,2.2-0.48,3-1.41l1.77,1.64
			c-1.12,1.38-2.84,2.13-4.92,2.13C577.58,491.6,574.82,489.03,574.82,485.43z"/>
		<path style="fill:#1A2E35;" d="M587.05,485.43c0-3.54,2.76-6.17,6.52-6.17c3.75,0,6.52,2.61,6.52,6.17c0,3.56-2.78,6.16-6.52,6.16
			C589.81,491.6,587.05,488.98,587.05,485.43z M597.31,485.43c0-2.27-1.6-3.82-3.73-3.82c-2.13,0-3.73,1.55-3.73,3.82
			c0,2.26,1.6,3.82,3.73,3.82C595.71,489.25,597.31,487.7,597.31,485.43z"/>
		<path style="fill:#1A2E35;" d="M602.18,479.47h5.42c3.9,0,6.58,2.35,6.58,5.96c0,3.61-2.67,5.96-6.58,5.96h-5.42V479.47z
			 M607.46,489.13c2.37,0,3.92-1.41,3.92-3.7s-1.55-3.7-3.92-3.7h-2.52v7.39H607.46z"/>
		<path style="fill:#1A2E35;" d="M625.49,489.18v2.21h-9.23v-11.92h9.01v2.21H619v2.59h5.54v2.15H619v2.76H625.49z"/>
	</g>
	<g>
		<path style="fill:#ECECEC;" d="M475.06,571.12H446.1c-4.3,0-7.79-3.49-7.79-7.79v-45.1c0-4.3,3.49-7.79,7.79-7.79h28.96
			c4.3,0,7.79,3.49,7.79,7.79v45.1C482.86,567.63,479.37,571.12,475.06,571.12z"/>
	</g>
	<g>
		<path style="fill:#ECECEC;" d="M530.69,571.12h-28.96c-4.3,0-7.79-3.49-7.79-7.79v-45.1c0-4.3,3.49-7.79,7.79-7.79h28.96
			c4.3,0,7.79,3.49,7.79,7.79v45.1C538.49,567.63,535,571.12,530.69,571.12z"/>
	</g>
	<g>
		<path style="fill:#ECECEC;" d="M586.32,571.12h-28.96c-4.3,0-7.79-3.49-7.79-7.79v-45.1c0-4.3,3.49-7.79,7.79-7.79h28.96
			c4.3,0,7.79,3.49,7.79,7.79v45.1C594.11,567.63,590.62,571.12,586.32,571.12z"/>
	</g>
	<g>
		<path style="fill:#ECECEC;" d="M641.95,571.12h-28.96c-4.3,0-7.79-3.49-7.79-7.79v-45.1c0-4.3,3.49-7.79,7.79-7.79h28.96
			c4.3,0,7.79,3.49,7.79,7.79v45.1C649.74,567.63,646.25,571.12,641.95,571.12z"/>
	</g>
	<g>
		<path style="fill:#ECECEC;" d="M697.58,571.12h-28.96c-4.3,0-7.79-3.49-7.79-7.79v-45.1c0-4.3,3.49-7.79,7.79-7.79h28.96
			c4.3,0,7.79,3.49,7.79,7.79v45.1C705.37,567.63,701.88,571.12,697.58,571.12z"/>
	</g>
	<g>
		<path style="fill:#5143D9;" d="M470.29,545.46c0,4.33-3.35,7.14-7.89,7.14c-6.23,0-9.51-4.47-9.51-11.88
			c0-8.02,4.27-12.15,10.53-12.15c2.03,0,3.93,0.34,5.38,1.22l-0.71,1.39c-1.22-0.78-2.88-1.08-4.67-1.08
			c-5.32,0-8.8,3.49-8.8,10.36c0,0.71,0.03,1.76,0.2,2.84c0.98-3.11,3.96-4.87,7.55-4.87C467.11,538.42,470.29,541.2,470.29,545.46z
			 M468.56,545.5c0-3.38-2.44-5.59-6.43-5.59c-3.89,0-6.57,2.47-6.57,5.65c0,2.78,2.34,5.55,6.77,5.55
			C466.02,551.12,468.56,548.92,468.56,545.5z"/>
	</g>
	<g>
		<path style="fill:#5143D9;" d="M525.32,545.87h-4.98v6.57h-1.69v-6.57h-13.51v-1.25l12.87-15.88h1.93l-12.63,15.61h11.37v-5.79
			h1.66v5.79h4.98V545.87z"/>
	</g>
	<g>
		<g>
			<path style="fill:#5143D9;" d="M582.69,555.8c0,0.28-4.62,0.51-10.32,0.51c-5.7,0-10.32-0.23-10.32-0.51
				c0-0.28,4.62-0.51,10.32-0.51C578.07,555.29,582.69,555.52,582.69,555.8z"/>
		</g>
	</g>
	<g>
		<g>
			<circle style="fill:#1A2E35;" cx="429.4" cy="444.23" r="4.83"/>
		</g>
		<g>
			<path style="fill:#1A2E35;" d="M448.15,444.23c0,2.67-2.16,4.83-4.83,4.83c-2.67,0-4.83-2.16-4.83-4.83
				c0-2.67,2.16-4.83,4.83-4.83C445.99,439.4,448.15,441.56,448.15,444.23z"/>
		</g>
		<g>
			<circle style="fill:#1A2E35;" cx="456.99" cy="444.23" r="4.83"/>
		</g>
	</g>
	<g>
		<g>
			<path style="fill:#1A2E35;" d="M728.68,457.84c0,0.28-71.43,0.51-159.53,0.51c-88.13,0-159.55-0.23-159.55-0.51
				c0-0.28,71.42-0.51,159.55-0.51C657.24,457.33,728.68,457.56,728.68,457.84z"/>
		</g>
	</g>
</g>
<g>
	<g>
		<g>
			<g>
				<g>
					<g>
						<g>
							<g>
								<g>
									<path style="fill:#1A2E35;" d="M756.26,765.33c25.82-10.96,55.71-32.52,69.05-58.95
										C797.45,717.57,772.9,738.54,756.26,765.33"/>
								</g>
							</g>
						</g>
					</g>
				</g>
			</g>
			<g>
				<g>
					<g>
						<g>
							<g>
								<g>
									<path style="fill:#1A2E35;" d="M761.75,724.31c25.82-10.96,55.71-32.52,69.05-58.95
										C802.94,676.54,778.39,697.51,761.75,724.31"/>
								</g>
							</g>
						</g>
					</g>
				</g>
			</g>
			<g>
				<g>
					<g>
						<g>
							<g>
								<g>
									<path style="fill:#1A2E35;" d="M769.22,684.41c25.82-10.96,55.71-32.52,69.05-58.95
										C810.41,636.64,785.86,657.61,769.22,684.41"/>
								</g>
							</g>
						</g>
					</g>
				</g>
			</g>
			<g>
				<g>
					<g>
						<g>
							<g>
								<g>
									<path style="fill:#1A2E35;" d="M778.58,642.64c24.36-14.45,51.51-39.97,61.63-67.99
										C813.86,589.61,791.94,613.79,778.58,642.64"/>
								</g>
							</g>
						</g>
					</g>
				</g>
			</g>
			<g>
				<g>
					<g>
						<g>
							<g>
								<g>
									<path style="fill:#1A2E35;" d="M788.59,610.67c17.75-23.22,34.29-57.76,34.08-87.7
										C803.24,547.47,791.12,578.66,788.59,610.67"/>
								</g>
							</g>
						</g>
					</g>
				</g>
			</g>
			<g>
				<g>
					<g>
						<g>
							<g>
								<g>
									<path style="fill:#1A2E35;" d="M783.63,625.87c-3.58-31.39-15.8-70.86-36.53-94.4C750.4,565.1,763.39,598.68,783.63,625.87
										"/>
								</g>
							</g>
						</g>
					</g>
				</g>
			</g>
			<g>
				<g>
					<g>
						<g>
							<g>
								<g>
									<path style="fill:#1A2E35;" d="M775.28,660.2c-6.32-32.37-22.29-72.39-45.83-95.09
										C735.65,599.84,751.95,633.66,775.28,660.2"/>
								</g>
							</g>
						</g>
					</g>
				</g>
			</g>
			<g>
				<g>
					<g>
						<g>
							<g>
								<g>
									<path style="fill:#1A2E35;" d="M765.7,702.08c-6.32-32.36-22.29-72.39-45.83-95.09
										C726.07,641.71,742.37,675.53,765.7,702.08"/>
								</g>
							</g>
						</g>
					</g>
				</g>
			</g>
			<g>
				<g>
					<g>
						<g>
							<g>
								<g>
									<path style="fill:#1A2E35;" d="M758,753.48c-6.32-32.37-22.29-72.39-45.83-95.09C718.37,693.12,734.67,726.94,758,753.48"
										/>
								</g>
							</g>
						</g>
					</g>
				</g>
			</g>
			<g>
				<g>
					<g>
						<g>
							<g>
								<g>
									<g>
										<path style="fill:#1A2E35;" d="M789.79,604.52c-0.02,0-0.08,0.16-0.2,0.48c-0.13,0.38-0.29,0.86-0.49,1.45
											c-0.43,1.35-1.03,3.23-1.79,5.6c-1.55,4.86-3.65,11.95-6.11,20.74c-2.47,8.79-5.19,19.31-8,31.06
											c-2.75,11.75-5.56,24.73-8.15,38.41c-2.56,13.7-4.65,26.81-6.35,38.76c-1.65,11.96-2.94,22.76-3.83,31.84
											c-0.9,9.08-1.52,16.45-1.84,21.54c-0.16,2.49-0.28,4.45-0.37,5.87c-0.03,0.62-0.05,1.12-0.07,1.53
											c-0.01,0.34-0.01,0.52,0.01,0.52c0.02,0,0.05-0.17,0.09-0.52c0.04-0.4,0.1-0.9,0.17-1.52c0.13-1.41,0.32-3.37,0.56-5.85
											c0.44-5.08,1.17-12.43,2.16-21.5c0.98-9.07,2.34-19.85,4.04-31.79c1.75-11.93,3.86-25.02,6.42-38.71
											c2.59-13.67,5.36-26.64,8.07-38.39c2.75-11.74,5.4-22.27,7.78-31.08c2.37-8.81,4.36-15.92,5.8-20.81
											c0.68-2.4,1.22-4.29,1.61-5.65c0.16-0.6,0.29-1.09,0.39-1.48C789.78,604.7,789.81,604.52,789.79,604.52z"/>
									</g>
								</g>
							</g>
						</g>
					</g>
				</g>
			</g>
		</g>
		<g style="opacity:0.5;">
			<g>
				<g>
					<g>
						<g>
							<g>
								<g>
									<path d="M788.59,610.67"/>
								</g>
							</g>
						</g>
					</g>
				</g>
			</g>
		</g>
		<g>
			<g>
				<g>
					<g>
						<g>
							<g>
								<g>
									<path style="fill:#375A64;" d="M743.68,782.43c10.95-22.93,18.91-55.17,13.54-80.33
										C745.07,726.42,740.26,755,743.68,782.43"/>
								</g>
							</g>
						</g>
					</g>
				</g>
			</g>
			<g>
				<g>
					<g>
						<g>
							<g>
								<g>
									<path style="fill:#375A64;" d="M725.47,752.74c10.95-22.93,18.91-55.17,13.54-80.33
										C726.86,696.73,722.04,725.31,725.47,752.74"/>
								</g>
							</g>
						</g>
					</g>
				</g>
			</g>
			<g>
				<g>
					<g>
						<g>
							<g>
								<g>
									<path style="fill:#375A64;" d="M709.13,722.55c10.95-22.93,18.91-55.17,13.54-80.33
										C710.53,666.54,705.71,695.12,709.13,722.55"/>
								</g>
							</g>
						</g>
					</g>
				</g>
			</g>
			<g>
				<g>
					<g>
						<g>
							<g>
								<g>
									<path style="fill:#375A64;" d="M693.04,689.99c8.14-24.27,12.23-57.35,3.92-81.56
										C687.79,634.26,686.4,663.27,693.04,689.99"/>
								</g>
							</g>
						</g>
					</g>
				</g>
			</g>
			<g>
				<g>
					<g>
						<g>
							<g>
								<g>
									<path style="fill:#375A64;" d="M682.57,663.33c-0.8-25.82-8.39-58.16-24.43-77.23
										C658.53,613.78,667.22,641.25,682.57,663.33"/>
								</g>
							</g>
						</g>
					</g>
				</g>
			</g>
			<g>
				<g>
					<g>
						<g>
							<g>
								<g>
									<path style="fill:#375A64;" d="M687.41,676.13c-18.99-17.92-47.87-35.71-73.83-38.04
										C633.58,657.63,659.84,671.16,687.41,676.13"/>
								</g>
							</g>
						</g>
					</g>
				</g>
			</g>
			<g>
				<g>
					<g>
						<g>
							<g>
								<g>
									<path style="fill:#375A64;" d="M700.22,703.29c-21.28-16.86-52.91-32.7-80.24-32.76
										C642.44,688.99,670.98,700.64,700.22,703.29"/>
								</g>
							</g>
						</g>
					</g>
				</g>
			</g>
			<g>
				<g>
					<g>
						<g>
							<g>
								<g>
									<path style="fill:#375A64;" d="M716.23,736.05c-21.28-16.86-52.91-32.7-80.24-32.76
										C658.45,721.74,686.99,733.4,716.23,736.05"/>
								</g>
							</g>
						</g>
					</g>
				</g>
			</g>
			<g>
				<g>
					<g>
						<g>
							<g>
								<g>
									<path style="fill:#375A64;" d="M738.52,773.75c-21.28-16.86-52.91-32.7-80.24-32.76
										C680.74,759.45,709.28,771.1,738.52,773.75"/>
								</g>
							</g>
						</g>
					</g>
				</g>
			</g>
			<g>
				<g>
					<g>
						<g>
							<g>
								<g>
									<g>
										<path style="fill:#1A2E35;" d="M680.08,658.64c-0.02,0.01,0.03,0.15,0.12,0.43c0.12,0.33,0.26,0.73,0.44,1.22
											c0.44,1.14,1.03,2.69,1.78,4.64c1.55,4.03,3.92,9.81,6.96,16.91c6.08,14.19,15.08,33.56,26.26,54.31
											c5.61,10.37,11.22,20.1,16.48,28.85c5.31,8.72,10.22,16.5,14.51,22.92c4.27,6.43,7.81,11.58,10.33,15.08
											c1.23,1.7,2.2,3.04,2.91,4.03c0.31,0.42,0.57,0.75,0.78,1.03c0.18,0.23,0.28,0.34,0.29,0.33
											c0.01-0.01-0.06-0.14-0.21-0.39c-0.19-0.29-0.42-0.65-0.7-1.09c-0.68-1.01-1.6-2.39-2.76-4.13
											c-2.43-3.57-5.88-8.77-10.07-15.24c-4.21-6.46-9.06-14.27-14.32-23c-5.21-8.77-10.79-18.5-16.39-28.85
											c-11.17-20.72-20.25-40.01-26.48-54.13c-3.12-7.06-5.58-12.79-7.24-16.78c-0.82-1.93-1.47-3.45-1.95-4.57
											c-0.21-0.47-0.39-0.86-0.53-1.18C680.17,658.77,680.1,658.64,680.08,658.64z"/>
									</g>
								</g>
							</g>
						</g>
					</g>
				</g>
			</g>
		</g>
	</g>
	<g>
		<g>
			<g>
				<g>
					<g>
						<polygon style="fill:#5143D9;" points="691.53,785.2 800.32,785.2 800.32,806.16 789.14,806.16 779.72,865.96 712.48,865.96 
							702.8,806.16 691.53,806.16 						"/>
					</g>
				</g>
			</g>
		</g>
	</g>
	<g>
		<g>
			<g>
				<g>
					<g>
						<g>
							<path style="fill:#1A2E35;" d="M691.53,805.72c0-0.28,24.18-0.51,54-0.51c29.83,0,54,0.23,54,0.51c0,0.28-24.17,0.51-54,0.51
								C715.71,806.23,691.53,806,691.53,805.72z"/>
						</g>
					</g>
				</g>
			</g>
		</g>
	</g>
</g>
<g>
	<g>
		<g>
			<polygon style="fill:#1A2E35;" points="68.4,865.99 50.74,865.99 44.2,786.51 64.99,786.51 			"/>
		</g>
	</g>
	<g>
		<g>
			<polygon style="fill:#1A2E35;" points="221.42,865.99 239.08,865.99 245.62,786.51 224.83,786.51 			"/>
		</g>
	</g>
	<g>
		<g>
			<g>
				<path style="fill:#5143D9;" d="M257.76,796.57l-227.26,5.34l-6.92-146.79c-0.68-14.37,10.79-26.4,25.18-26.4h193.63
					c14.61,0,26.16,12.38,25.15,26.96L257.76,796.57z"/>
			</g>
		</g>
		<g>
			<g>
				<g>
					<path style="fill:#1A2E35;" d="M269.41,654.62c0,0.02-0.21,0.04-0.63,0.05c-0.48,0.01-1.09,0.03-1.86,0.06
						c-1.71,0.03-4.11,0.06-7.16,0.11c-6.29,0.02-15.27,0.05-26.35,0.09c-22.24,0.04-52.98-0.21-86.9,0.57
						c-33.94,1.13-64.7,0.94-86.94,0.6c-11.12-0.18-20.12-0.39-26.34-0.58c-3.06-0.1-5.45-0.19-7.16-0.25
						c-0.77-0.04-1.39-0.07-1.86-0.09c-0.42-0.03-0.63-0.05-0.63-0.07c0-0.02,0.22-0.03,0.64-0.04c0.48,0,1.09-0.01,1.86-0.01
						c1.71,0.01,4.11,0.03,7.16,0.05c6.29,0.06,15.27,0.15,26.34,0.25c22.24,0.15,52.97,0.23,86.9-0.9
						c33.95-0.79,64.68-0.42,86.92-0.27c11.07,0.1,20.05,0.18,26.34,0.23c3.06,0.04,5.46,0.06,7.16,0.08
						c0.77,0.02,1.39,0.03,1.86,0.05C269.19,654.58,269.41,654.6,269.41,654.62z"/>
				</g>
			</g>
		</g>
		<g>
			<g>
				<g>
					<path style="fill:#1A2E35;" d="M106.48,631.02c0.06,0.34-7.12,0.47-14.76,4.43c-7.69,3.86-12,9.6-12.25,9.35
						c-0.09-0.07,0.84-1.58,2.81-3.65c1.96-2.07,5.06-4.61,8.96-6.61c3.91-1.99,7.79-3,10.61-3.38
						C104.7,630.77,106.48,630.91,106.48,631.02z"/>
				</g>
			</g>
		</g>
	</g>
</g>
<g>
	<g>
		<g>
			<path style="fill:#FFC19D;" d="M226.66,451.17l23.04,42.08l33.75-18.87l16.41,5.42c0,0-41.4,44.89-48.12,47.18
				c-6.72,2.29-19.44,2.7-26.71-6.4c-6.62-8.29-25.9-51.8-25.9-51.8L226.66,451.17z"/>
		</g>
		<g>
			<g>
				<g>
					<g>
						<g>
							<g>
								<g>
									<g>
										<g>
											<g>
												<g>
													<path style="fill:#1A2E35;" d="M321.5,423.7c-0.6-0.74-1.54-1.12-2.49-0.99l-16.05,2.21
														c-1.41,0.22-2.66,1.02-3.43,2.22l-33.33,51.22l2.56,1.43l17.75-0.56L322,424.33L321.5,423.7z"/>
												</g>
											</g>
										</g>
									</g>
								</g>
							</g>
						</g>
					</g>
				</g>
			</g>
			<g>
				<g>
					<g>
						<g>
							<g>
								<g>
									<g>
										<g>
											<g>
												<g>
													<path style="fill:#FFFFFF;" d="M310.14,430.36c0.34,0.3,0.94,0.17,1.34-0.28c0.4-0.46,0.45-1.07,0.1-1.37
														c-0.34-0.3-0.94-0.17-1.34,0.28C309.84,429.44,309.8,430.06,310.14,430.36z"/>
												</g>
											</g>
										</g>
									</g>
								</g>
							</g>
						</g>
					</g>
				</g>
			</g>
			<g>
				<g>
					<g>
						<g>
							<g>
								<g>
									<g>
										<g>
											<g>
												<g>
													<g>
														<path style="fill:#375A64;" d="M322,424.33c0.01,0.07-1.1,0.28-3.1,0.61c-2.17,0.34-5.04,0.78-8.51,1.32
															c-1.81,0.27-3.78,0.55-5.88,0.86c-1.01,0.09-1.91,0.61-2.48,1.46c-0.62,0.96-1.25,1.94-1.9,2.94
															c-2.63,4.05-5.5,8.47-8.51,13.12c-6.06,9.29-11.59,17.68-15.64,23.72c-1.97,2.91-3.6,5.31-4.83,7.13
															c-1.16,1.67-1.83,2.58-1.88,2.54c-0.06-0.04,0.51-1.01,1.57-2.75c1.17-1.86,2.71-4.32,4.57-7.3
															c3.9-6.14,9.34-14.58,15.4-23.88c3.04-4.63,5.93-9.04,8.57-13.08c0.66-1,1.31-1.98,1.94-2.94
															c0.7-1.05,1.93-1.7,3.05-1.77c2.11-0.27,4.08-0.52,5.9-0.75c3.49-0.41,6.37-0.76,8.56-1.01
															C320.87,424.35,322,424.26,322,424.33z"/>
													</g>
												</g>
											</g>
										</g>
									</g>
								</g>
							</g>
						</g>
					</g>
				</g>
			</g>
		</g>
		<g>
			<g>
				<g>
					<g>
						<g>
							<g>
								<g>
									<g>
										<g>
											<g>
												<g>
													<path style="fill:#FFC19D;" d="M304.2,442.64c0,0-1.43-0.26-2.21,3.66c-0.78,3.91-3.31,15.14-3.31,15.14l-7.5-3.98
														l-9.38,1.22c0,0-2.05,1.89-0.55,2.92c1.5,1.03,7.43,2.08,7.43,2.08l4.37,6.28l-12.54-6.05c0,0-4.19,1.09-2.96,3.65
														c1.23,2.55,9.68,10.55,9.68,10.55l-6.28-0.48l-7.47-4.54c0,0-2.29,0.1-1.44,2.06c0.86,1.95,8.63,9.01,8.63,9.01
														l9.42,4.57c0,0,5.14-0.4,5.64-1.91c0.49-1.51,0.62-3.67,0.62-3.67s2.73-0.74,3.24-2.06c0.51-1.32,0.18-3.42,0.18-3.42
														s4.29,0.75,4.82-1.64c0.53-2.39,0.09-7.1-0.35-8.94c-0.43-1.84,1.83-18.92,1.65-19.44
														C305.73,447.14,306.89,441.51,304.2,442.64z"/>
												</g>
											</g>
										</g>
									</g>
								</g>
							</g>
						</g>
					</g>
				</g>
			</g>
			<g>
				<g>
					<g>
						<g>
							<g>
								<g>
									<g>
										<g>
											<g>
												<g>
													<g>
														<path style="fill:#FF9C6A;" d="M296.07,486.83c0.03,0.11-0.88,0.51-2.46,0.76c-1.57,0.26-3.82,0.28-6.21-0.28
															c-2.39-0.57-4.39-1.61-5.67-2.55c-1.3-0.94-1.93-1.7-1.85-1.79c0.18-0.24,3.16,2.34,7.75,3.39
															C292.19,487.5,296.02,486.54,296.07,486.83z"/>
													</g>
												</g>
											</g>
										</g>
									</g>
								</g>
							</g>
						</g>
					</g>
				</g>
			</g>
			<g>
				<g>
					<g>
						<g>
							<g>
								<g>
									<g>
										<g>
											<g>
												<g>
													<g>
														<path style="fill:#FF9C6A;" d="M293.84,483.45c-0.15,0.22-1.82-0.66-3.6-2.12c-1.79-1.46-2.97-2.93-2.79-3.11
															c0.19-0.19,1.65,0.94,3.4,2.37C292.59,482.02,293.99,483.23,293.84,483.45z"/>
													</g>
												</g>
											</g>
										</g>
									</g>
								</g>
							</g>
						</g>
					</g>
				</g>
			</g>
			<g>
				<g>
					<g>
						<g>
							<g>
								<g>
									<g>
										<g>
											<g>
												<g>
													<g>
														<path style="fill:#FF9C6A;" d="M298.79,475.32c-0.14,0.22-1.8-0.64-3.47-2.19c-1.68-1.54-2.66-3.13-2.45-3.29
															c0.21-0.17,1.49,1.09,3.11,2.58C297.59,473.92,298.95,475.1,298.79,475.32z"/>
													</g>
												</g>
											</g>
										</g>
									</g>
								</g>
							</g>
						</g>
					</g>
				</g>
			</g>
			<g>
				<g>
					<g>
						<g>
							<g>
								<g>
									<g>
										<g>
											<g>
												<g>
													<g>
														<path style="fill:#FF9C6A;" d="M304.01,468.77c-0.26,0.11-1.2-1.66-2.7-3.59c-1.48-1.94-2.94-3.31-2.77-3.53
															c0.15-0.21,1.97,0.89,3.54,2.94C303.66,466.64,304.25,468.69,304.01,468.77z"/>
													</g>
												</g>
											</g>
										</g>
									</g>
								</g>
							</g>
						</g>
					</g>
				</g>
			</g>
		</g>
	</g>
	<g>
		<g>
			<g>
				<g>
					<g>
						<g>
							<g>
								<g>
									<path style="fill:#1A2E35;" d="M310.38,772.06c0.06,0,0.11-0.56-0.05-1.55c-0.16-0.98-0.57-2.42-1.57-3.94
										c-0.26-0.37-0.51-0.77-0.93-1.14c-0.4-0.36-1.09-0.64-1.75-0.4c-0.33,0.11-0.66,0.41-0.78,0.78
										c-0.12,0.38-0.06,0.75,0.04,1.05c0.22,0.62,0.54,1.07,0.82,1.58c0.61,1.02,1.11,2.04,1.89,3.2
										c0.39,0.59,1.28,1.08,2.08,0.94c0.79-0.1,1.43-0.48,2.01-0.89c1.12-0.81,2.11-1.74,2.95-2.72c0.42-0.49,0.81-1,1.16-1.52
										c0.33-0.51,0.73-1.03,0.88-1.74c0.15-0.69-0.11-1.59-0.89-1.9c-0.79-0.29-1.43,0.11-1.87,0.42
										c-0.89,0.74-1.43,1.5-1.97,2.24c-1.04,1.47-1.61,2.82-1.93,3.75c-0.32,0.95-0.39,1.49-0.34,1.51
										c0.16,0.07,0.69-2.12,2.8-4.87c0.52-0.65,1.17-1.45,1.9-2c0.37-0.26,0.83-0.43,1.11-0.29c0.3,0.11,0.46,0.55,0.36,0.98
										c-0.09,0.44-0.42,0.91-0.77,1.41c-0.34,0.48-0.72,0.96-1.12,1.43c-0.81,0.93-1.76,1.8-2.81,2.57
										c-0.51,0.37-1.06,0.67-1.58,0.73c-0.52,0.06-0.92-0.14-1.26-0.58c-0.65-0.94-1.27-2.1-1.86-3.06
										c-0.29-0.5-0.63-0.99-0.78-1.41c-0.16-0.44-0.07-0.73,0.24-0.85c0.71-0.29,1.4,0.51,1.88,1.19
										C310.23,769.77,310.2,772.12,310.38,772.06z"/>
								</g>
							</g>
						</g>
					</g>
				</g>
			</g>
		</g>
		<g>
			<g>
				<g>
					<g>
						<g>
							<g>
								<polygon style="fill:#FFC19D;" points="270.2,773.43 250.24,816.68 218.04,801.8 238.68,748.28 								"/>
							</g>
						</g>
					</g>
				</g>
			</g>
			<g>
				<g>
					<g>
						<g>
							<g>
								<g>
									<g>
										<g>
											<g>
												<g>
													<g>
														<g>
															<g>
																<g>
																	<g>
																		<path style="fill:#375A64;" d="M254.01,813.79l-11.66,22.23c0,0,29.84,30.86,27.04,37.75l-70.15-33.64
																			l19.27-44.59L254.01,813.79z"/>
																	</g>
																</g>
															</g>
														</g>
													</g>
												</g>
											</g>
										</g>
									</g>
								</g>
							</g>
						</g>
						<g>
							<g>
								<g>
									<g>
										<g>
											<g>
												<g>
													<g>
														<g>
															<g>
																<g>
																	<g>
																		<g>
																			<path style="fill:#E1E1E1;" d="M222.12,822.59c-1.54-0.28-3.21,0.8-3.55,2.32c-0.34,1.52,0.74,3.23,2.27,3.54
																				c1.53,0.31,3.57-0.92,3.75-2.48c0.17-1.55-1.21-3.49-2.77-3.42"/>
																		</g>
																	</g>
																</g>
															</g>
														</g>
													</g>
												</g>
											</g>
										</g>
									</g>
								</g>
							</g>
						</g>
						<g style="opacity:0.6;">
							<g>
								<g>
									<g>
										<g>
											<g>
												<g>
													<g>
														<g>
															<g>
																<g>
																	<g>
																		<path style="fill:#FFFFFF;" d="M199.24,840.14l2.92-5.59l66.17,34.34c0,0,2.47,2.86,1.06,4.89L199.24,840.14z"/>
																	</g>
																</g>
															</g>
														</g>
													</g>
												</g>
											</g>
										</g>
									</g>
								</g>
							</g>
						</g>
						<g>
							<g>
								<g>
									<g>
										<g>
											<g>
												<g>
													<g>
														<g>
															<g>
																<g>
																	<g>
																		<g>
																			<path style="fill:#1A2E35;" d="M243.66,836.21c-0.18,0.34-1.96-0.33-4.18-0.04c-2.22,0.24-3.8,1.3-4.05,1.02
																				c-0.28-0.22,1.21-2.02,3.9-2.33C242.01,834.53,243.89,835.94,243.66,836.21z"/>
																		</g>
																	</g>
																</g>
															</g>
														</g>
													</g>
												</g>
											</g>
										</g>
									</g>
								</g>
							</g>
						</g>
						<g>
							<g>
								<g>
									<g>
										<g>
											<g>
												<g>
													<g>
														<g>
															<g>
																<g>
																	<g>
																		<g>
																			<path style="fill:#1A2E35;" d="M249.56,842.79c-0.08,0.37-1.84,0.24-3.7,1.13c-1.88,0.84-2.93,2.26-3.26,2.08
																				c-0.35-0.1,0.38-2.22,2.71-3.28C247.63,841.63,249.71,842.46,249.56,842.79z"/>
																		</g>
																	</g>
																</g>
															</g>
														</g>
													</g>
												</g>
											</g>
										</g>
									</g>
								</g>
							</g>
						</g>
						<g>
							<g>
								<g>
									<g>
										<g>
											<g>
												<g>
													<g>
														<g>
															<g>
																<g>
																	<g>
																		<g>
																			<path style="fill:#1A2E35;" d="M249.52,853.6c-0.35-0.08,0-2.02,1.78-3.47c1.77-1.47,3.74-1.43,3.75-1.08
																				c0.06,0.37-1.46,0.88-2.91,2.1C250.67,852.33,249.87,853.73,249.52,853.6z"/>
																		</g>
																	</g>
																</g>
															</g>
														</g>
													</g>
												</g>
											</g>
										</g>
									</g>
								</g>
							</g>
						</g>
						<g>
							<g>
								<g>
									<g>
										<g>
											<g>
												<g>
													<g>
														<g>
															<g>
																<g>
																	<g>
																		<g>
																			<path style="fill:#1A2E35;" d="M247.01,827.65c-0.29,0.24-1.64-0.98-3.64-1.78c-1.98-0.84-3.8-0.91-3.84-1.29
																				c-0.08-0.34,2-0.91,4.34,0.07C246.22,825.6,247.31,827.46,247.01,827.65z"/>
																		</g>
																	</g>
																</g>
															</g>
														</g>
													</g>
												</g>
											</g>
										</g>
									</g>
								</g>
							</g>
						</g>
					</g>
				</g>
			</g>
			<g>
				<g>
					<g>
						<g>
							<g>
								<path style="fill:#1A2E35;" d="M260.59,808.02l52.6-131.64c0,0-1.18-22.46-5.32-29.55c-4.14-7.09-129.44-48.47-129.44-48.47
									s-31.92-7.68-53.19,0c-21.28,7.68-37.24,34.28-34.28,49.06c2.96,14.78,15.43,25.63,15.43,25.63l92.14,2.74l50.22,18.32
									l-33.82,96.93L260.59,808.02z"/>
							</g>
						</g>
					</g>
				</g>
			</g>
			<g>
				<g>
					<g>
						<g>
							<g>
								<polygon style="fill:#FFC19D;" points="307.37,718.07 308.56,765.68 273.1,766.55 267.99,709.41 								"/>
							</g>
						</g>
					</g>
				</g>
			</g>
			<g>
				<g>
					<g>
						<g>
							<g>
								<g>
									<g>
										<g>
											<g>
												<g>
													<g>
														<g>
															<g>
																<g>
																	<g>
																		<path style="fill:#375A64;" d="M310.67,761.43l-0.65,25.1c0,0,40.4,14.51,40.93,21.94l-77.8,0.79l-2.39-48.52
																			L310.67,761.43z"/>
																	</g>
																</g>
															</g>
														</g>
													</g>
												</g>
											</g>
										</g>
									</g>
								</g>
							</g>
						</g>
						<g>
							<g>
								<g>
									<g>
										<g>
											<g>
												<g>
													<g>
														<g>
															<g>
																<g>
																	<g>
																		<g>
																			<path style="fill:#E1E1E1;" d="M285.93,783.4c-1.5,0.43-2.52,2.13-2.16,3.65c0.37,1.52,2.09,2.57,3.6,2.17
																				c1.51-0.4,2.8-2.41,2.27-3.88c-0.53-1.47-2.62-2.6-3.99-1.85"/>
																		</g>
																	</g>
																</g>
															</g>
														</g>
													</g>
												</g>
											</g>
										</g>
									</g>
								</g>
							</g>
						</g>
						<g style="opacity:0.6;">
							<g>
								<g>
									<g>
										<g>
											<g>
												<g>
													<g>
														<g>
															<g>
																<g>
																	<g>
																		<path style="fill:#FFFFFF;" d="M273.15,809.25l0.15-6.31l74.54,1.6c0,0,3.48,1.47,3.11,3.92L273.15,809.25z"/>
																	</g>
																</g>
															</g>
														</g>
													</g>
												</g>
											</g>
										</g>
									</g>
								</g>
							</g>
						</g>
						<g>
							<g>
								<g>
									<g>
										<g>
											<g>
												<g>
													<g>
														<g>
															<g>
																<g>
																	<g>
																		<g>
																			<path style="fill:#1A2E35;" d="M311.28,786.12c-0.01,0.38-1.91,0.57-3.76,1.81c-1.89,1.19-2.84,2.85-3.19,2.7
																				c-0.35-0.07,0.19-2.35,2.47-3.81C309.05,785.34,311.35,785.77,311.28,786.12z"/>
																		</g>
																	</g>
																</g>
															</g>
														</g>
													</g>
												</g>
											</g>
										</g>
									</g>
								</g>
							</g>
						</g>
						<g>
							<g>
								<g>
									<g>
										<g>
											<g>
												<g>
													<g>
														<g>
															<g>
																<g>
																	<g>
																		<g>
																			<path style="fill:#1A2E35;" d="M319.47,789.41c0.09,0.37-1.55,1.03-2.82,2.65c-1.32,1.58-1.63,3.32-2.01,3.31
																				c-0.36,0.06-0.64-2.16,0.98-4.14C317.22,789.23,319.46,789.05,319.47,789.41z"/>
																		</g>
																	</g>
																</g>
															</g>
														</g>
													</g>
												</g>
											</g>
										</g>
									</g>
								</g>
							</g>
						</g>
						<g>
							<g>
								<g>
									<g>
										<g>
											<g>
												<g>
													<g>
														<g>
															<g>
																<g>
																	<g>
																		<g>
																			<path style="fill:#1A2E35;" d="M324.2,799.13c-0.34,0.08-0.89-1.81,0.06-3.9c0.94-2.1,2.72-2.94,2.89-2.62
																				c0.22,0.31-0.92,1.44-1.68,3.17C324.67,797.48,324.58,799.09,324.2,799.13z"/>
																		</g>
																	</g>
																</g>
															</g>
														</g>
													</g>
												</g>
											</g>
										</g>
									</g>
								</g>
							</g>
						</g>
						<g>
							<g>
								<g>
									<g>
										<g>
											<g>
												<g>
													<g>
														<g>
															<g>
																<g>
																	<g>
																		<g>
																			<path style="fill:#1A2E35;" d="M310.5,776.95c-0.16,0.35-1.9-0.16-4.05,0.01c-2.15,0.12-3.81,0.86-4.01,0.54
																				c-0.22-0.27,1.39-1.7,3.92-1.86C308.89,775.46,310.68,776.65,310.5,776.95z"/>
																		</g>
																	</g>
																</g>
															</g>
														</g>
													</g>
												</g>
											</g>
										</g>
									</g>
								</g>
							</g>
						</g>
					</g>
				</g>
			</g>
			<g>
				<g>
					<g>
						<g>
							<g>
								<path style="fill:#1A2E35;" d="M286.66,585.88c0,0,21.25-1.7,23.61,21.35c2.36,23.05,4.69,130.62,4.69,130.62l-49.65,4.14
									l-7.68-109.93l-79.2-33.69C178.43,598.37,272.48,582.93,286.66,585.88z"/>
							</g>
						</g>
					</g>
				</g>
			</g>
			<g>
				<g>
					<g>
						<g>
							<g>
								<path style="fill:#1A2E35;" d="M199.09,554.78c0,0,12.89,36.15,10.44,40.18c-2.46,4.03-35.61,20.61-35.61,20.61
									l-82.97,31.86c0,0-8.52-13.56-8.52-34.38s28.86-58.27,28.86-58.27H199.09z"/>
							</g>
						</g>
					</g>
				</g>
			</g>
			<g>
				<g>
					<g>
						<g>
							<g>
								<g>
									<path style="fill:#375A64;" d="M174.5,596.53c-0.01,0.01,0.13,0.08,0.39,0.21c0.3,0.14,0.69,0.32,1.18,0.55
										c1.09,0.49,2.63,1.17,4.59,2.04c4.07,1.77,9.92,4.32,17.25,7.51c14.8,6.37,35.54,15.3,59.54,25.63l-0.27-0.38
										c0.75,10.86,1.57,22.59,2.41,34.72c2.02,28.36,3.88,54.52,5.35,75.21l0.03,0.37l0.37-0.03c15.1-1.33,27.49-2.41,36.17-3.17
										c4.27-0.4,7.62-0.71,9.96-0.93c1.1-0.11,1.97-0.2,2.6-0.27c0.59-0.07,0.89-0.11,0.89-0.13c0-0.02-0.31-0.01-0.9,0.02
										c-0.64,0.04-1.51,0.09-2.61,0.16c-2.35,0.17-5.7,0.42-9.98,0.73c-8.68,0.69-21.08,1.66-36.2,2.86l0.4,0.34
										c-1.42-20.69-3.22-46.85-5.16-75.22c-0.85-12.13-1.68-23.86-2.44-34.72l-0.02-0.27l-0.25-0.11
										c-24.05-10.21-44.84-19.03-59.67-25.33c-7.37-3.09-13.25-5.56-17.35-7.27c-1.99-0.82-3.54-1.45-4.65-1.91
										c-0.5-0.2-0.9-0.35-1.21-0.47C174.65,596.56,174.51,596.51,174.5,596.53z"/>
								</g>
							</g>
						</g>
					</g>
				</g>
			</g>
			<g>
				<g>
					<g>
						<g>
							<g>
								<g>
									<path style="fill:#375A64;" d="M108.52,600.14c0.02,0.06,0.85-0.17,2.33-0.64c1.65-0.53,3.74-1.21,6.25-2.01
										c5.27-1.67,12.58-4,20.91-5.28c8.32-1.28,16.02-0.89,21.4,0.28c5.4,1.12,8.51,2.66,8.58,2.48
										c0.02-0.05-0.73-0.47-2.16-1.09c-1.43-0.62-3.56-1.38-6.28-2.03c-5.42-1.35-13.26-1.85-21.68-0.55
										c-8.42,1.3-15.75,3.74-20.98,5.58c-2.62,0.93-4.71,1.72-6.16,2.29C109.29,599.74,108.5,600.08,108.52,600.14z"/>
								</g>
							</g>
						</g>
					</g>
				</g>
			</g>
			<g>
				<g>
					<g>
						<g>
							<g>
								<g>
									<path style="fill:#375A64;" d="M120.25,581.09c0.02,0.15,2.78-0.39,7.25-0.04c2.23,0.16,4.89,0.5,7.85,0.84
										c2.96,0.35,6.2,0.75,9.56,1.39c6.74,1.2,12.54,3.55,16.26,6.03c3.75,2.44,5.51,4.67,5.64,4.54
										c0.04-0.03-0.34-0.63-1.2-1.56c-0.86-0.93-2.19-2.22-4.07-3.52c-3.7-2.68-9.63-5.19-16.45-6.4
										c-3.4-0.64-6.67-1.02-9.64-1.32c-2.97-0.3-5.64-0.57-7.91-0.65c-2.27-0.08-4.11,0.05-5.37,0.24
										C120.91,580.82,120.24,581.03,120.25,581.09z"/>
								</g>
							</g>
						</g>
					</g>
				</g>
			</g>
		</g>
	</g>
	<g>
		<g>
			<g>
				<g>
					<path style="fill:#1A2E35;" d="M156.89,290.58c-9.55-1.62-17.94,2.05-25.99,7.43c-8.05,5.38-14.11,13.5-17.61,22.53
						c-3.69,9.51-4.58,20.21-1.75,30.01c2.83,9.8,9.54,18.57,18.64,23.19c12.42,6.31,28.3,4.11,39.41-4.29
						c11.11-8.4,17.46-22.29,17.99-36.21c0.37-9.59-1.92-19.4-7.28-27.36C174.94,297.92,166.39,291.97,156.89,290.58"/>
				</g>
			</g>
			<g>
				<g>
					<g>
						<g>
							<path style="fill:#1A2E35;" d="M129.74,323.04c1.4-3.65,0.85-7.73,1.41-11.6c1.22-8.52,8.08-15.36,16.03-18.68
								c7.39-3.09,16.41-2.42,25.32,0.46c6.1,1.97,11.84,5.41,15.91,10.37c5.4,6.58,7.3,15.87,4.92,24.04l-43.61-6.35
								c-4.08,3.38-8.26,6.81-13.22,8.7c-1.45,0.55-3.02,0.97-4.55,0.73c-1.54-0.24-3.03-1.29-3.39-2.8
								C128.16,326.25,129.14,324.63,129.74,323.04z"/>
						</g>
					</g>
				</g>
				<g>
					<g>
						<g>
							<path style="fill:#FFC19D;" d="M173.43,305.26l-38.07,8.07c-3.68,0.25-6.57,3.27-6.64,6.96l0.46,82.4
								c0.03,5.63,1.92,11.09,5.37,15.54l3.63,4.68c8.28,10.68,25.05,9.6,31.37-2.34c0.44-0.83,0.75-1.57,0.88-2.16
								c0.13-0.74,0.32-1.23,0.36-1.86l0.73-8.03c0.37-7.34,0.42-14.79,0.42-14.72c0,0,15.58-1.97,19.57-22.04
								c1.99-9.98,2.12-26.47,1.79-39.97C193,319.63,185.55,304.45,173.43,305.26z"/>
						</g>
					</g>
				</g>
				<g>
					<g>
						<g>
							<g>
								<g>
									<g>
										<g>
											<g>
												<g>
													<g>
														<g>
															<g>
																<g>
																	<g>
																		<g>
																			<g>
																				<g>
																					<g>
																						<g>
																							<path style="fill:#1A2E35;" d="M187.5,347.24c0,1.37-1.17,2.5-2.6,2.52c-1.43,0.02-2.58-1.07-2.58-2.44
																								c0.01-1.37,1.17-2.5,2.6-2.52C186.35,344.78,187.51,345.87,187.5,347.24z"/>
																						</g>
																					</g>
																				</g>
																			</g>
																		</g>
																	</g>
																</g>
															</g>
														</g>
													</g>
												</g>
											</g>
										</g>
									</g>
								</g>
							</g>
							<g>
								<g>
									<g>
										<g>
											<g>
												<g>
													<g>
														<g>
															<g>
																<g>
																	<g>
																		<g>
																			<g>
																				<g>
																					<g>
																						<g>
																							<g>
																								<path style="fill:#1A2E35;" d="M189.39,340.21c-0.33,0.33-2.24-1.2-5.03-1.3
																									c-2.78-0.14-4.88,1.21-5.17,0.86c-0.14-0.16,0.21-0.75,1.12-1.37c0.9-0.61,2.42-1.18,4.16-1.11
																									c1.74,0.08,3.17,0.77,3.99,1.46C189.29,339.44,189.55,340.06,189.39,340.21z"/>
																							</g>
																						</g>
																					</g>
																				</g>
																			</g>
																		</g>
																	</g>
																</g>
															</g>
														</g>
													</g>
												</g>
											</g>
										</g>
									</g>
								</g>
							</g>
						</g>
						<g>
							<g>
								<g>
									<g>
										<g>
											<g>
												<g>
													<g>
														<g>
															<g>
																<g>
																	<g>
																		<g>
																			<g>
																				<g>
																					<g>
																						<g>
																							<path style="fill:#1A2E35;" d="M162.52,346.62c0,1.37-1.17,2.5-2.6,2.52c-1.43,0.02-2.58-1.07-2.58-2.44
																								c0-1.37,1.17-2.5,2.6-2.52C161.37,344.15,162.52,345.25,162.52,346.62z"/>
																						</g>
																					</g>
																				</g>
																			</g>
																		</g>
																	</g>
																</g>
															</g>
														</g>
													</g>
												</g>
											</g>
										</g>
									</g>
								</g>
							</g>
							<g>
								<g>
									<g>
										<g>
											<g>
												<g>
													<g>
														<g>
															<g>
																<g>
																	<g>
																		<g>
																			<g>
																				<g>
																					<g>
																						<g>
																							<g>
																								<path style="fill:#1A2E35;" d="M162.92,339.53c-0.34,0.33-2.24-1.2-5.03-1.3
																									c-2.78-0.14-4.88,1.21-5.17,0.86c-0.14-0.16,0.21-0.75,1.12-1.37c0.9-0.61,2.42-1.18,4.16-1.11
																									c1.74,0.08,3.17,0.77,3.99,1.46C162.81,338.76,163.08,339.38,162.92,339.53z"/>
																							</g>
																						</g>
																					</g>
																				</g>
																			</g>
																		</g>
																	</g>
																</g>
															</g>
														</g>
													</g>
												</g>
											</g>
										</g>
									</g>
								</g>
							</g>
						</g>
						<g>
							<g>
								<g>
									<g>
										<g>
											<g>
												<g>
													<g>
														<g>
															<g>
																<g>
																	<g>
																		<g>
																			<g>
																				<g>
																					<g>
																						<g>
																							<path style="fill:#1A2E35;" d="M171.28,360.73c-0.01-0.16,1.74-0.39,4.56-0.64
																								c0.71-0.05,1.39-0.16,1.53-0.64c0.19-0.51-0.08-1.29-0.39-2.13c-0.6-1.75-1.23-3.58-1.9-5.5
																								c-2.62-7.83-4.49-14.26-4.18-14.36c0.32-0.1,2.7,6.16,5.32,13.99c0.63,1.93,1.23,3.77,1.8,5.53
																								c0.24,0.82,0.67,1.76,0.26,2.81c-0.21,0.52-0.75,0.89-1.21,1c-0.46,0.12-0.86,0.11-1.22,0.12
																								C173.04,360.95,171.29,360.89,171.28,360.73z"/>
																						</g>
																					</g>
																				</g>
																			</g>
																		</g>
																	</g>
																</g>
															</g>
														</g>
													</g>
												</g>
											</g>
										</g>
									</g>
								</g>
							</g>
						</g>
						<g>
							<g>
								<g>
									<g>
										<g>
											<g>
												<g>
													<g>
														<g>
															<g>
																<g>
																	<g>
																		<g>
																			<g>
																				<g>
																					<g>
																						<path style="fill:#FF9C6A;" d="M171.93,393.79c0,0-13.62,0.35-26.77-8.27c0,0,6.26,14.25,26.55,13.14
																							L171.93,393.79z"/>
																					</g>
																				</g>
																			</g>
																		</g>
																	</g>
																</g>
															</g>
														</g>
													</g>
												</g>
											</g>
										</g>
									</g>
								</g>
							</g>
						</g>
						<g>
							<g>
								<g>
									<g>
										<g>
											<g>
												<g>
													<g>
														<g>
															<g>
																<g>
																	<g>
																		<g>
																			<g>
																				<g>
																					<g>
																						<path style="fill:#FF9C6A;" d="M169.84,367.4c-0.95-1.36-2.68-2.16-4.43-2.04c-1.21,0.08-2.46,0.62-3.23,1.58
																							c-0.77,0.96-0.98,2.35-0.35,3.31c0.71,1.09,2.27,1.39,3.62,1.07c1.35-0.33,2.52-1.16,3.65-1.99
																							c0.31-0.23,0.63-0.47,0.83-0.79c0.2-0.32,0.26-0.75,0.04-1.04"/>
																					</g>
																				</g>
																			</g>
																		</g>
																	</g>
																</g>
															</g>
														</g>
													</g>
												</g>
											</g>
										</g>
									</g>
								</g>
							</g>
						</g>
						<g>
							<g>
								<g>
									<g>
										<g>
											<g>
												<g>
													<g>
														<g>
															<g>
																<g>
																	<g>
																		<g>
																			<g>
																				<g>
																					<g>
																						<g>
																							<path style="fill:#1A2E35;" d="M163,362.34c0.45-0.01,0.34,3.02,2.85,5.27c2.5,2.26,5.74,2.04,5.75,2.46
																								c0.04,0.19-0.74,0.56-2.1,0.54c-1.34-0.01-3.27-0.51-4.8-1.89c-1.53-1.38-2.14-3.16-2.2-4.41
																								C162.43,363.05,162.8,362.32,163,362.34z"/>
																						</g>
																					</g>
																				</g>
																			</g>
																		</g>
																	</g>
																</g>
															</g>
														</g>
													</g>
												</g>
											</g>
										</g>
									</g>
								</g>
							</g>
						</g>
					</g>
				</g>
				<g>
					<g>
						<g>
							<g>
								<g>
									<g>
										<g>
											<g>
												<g>
													<g>
														<g>
															<g>
																<g>
																	<g>
																		<g>
																			<path style="fill:#1A2E35;" d="M162.76,331.25c-0.3,0.75-3.07,0.28-6.36,0.55c-3.29,0.2-5.97,1.06-6.37,0.36
																				c-0.18-0.33,0.31-1.03,1.4-1.72c1.09-0.69,2.8-1.32,4.77-1.46c1.97-0.14,3.76,0.24,4.93,0.77
																				C162.31,330.28,162.89,330.9,162.76,331.25z"/>
																		</g>
																	</g>
																</g>
															</g>
														</g>
													</g>
												</g>
											</g>
										</g>
									</g>
								</g>
							</g>
						</g>
					</g>
				</g>
				<g>
					<g>
						<g>
							<g>
								<g>
									<g>
										<g>
											<g>
												<g>
													<g>
														<g>
															<g>
																<g>
																	<g>
																		<g>
																			<path style="fill:#1A2E35;" d="M189.05,327.99c-0.51,0.61-2.41-0.12-4.72-0.24c-2.3-0.2-4.28,0.26-4.71-0.42
																				c-0.19-0.33,0.15-0.95,1.03-1.52c0.87-0.56,2.29-1,3.88-0.89c1.58,0.11,2.94,0.74,3.71,1.42
																				C189.04,327.02,189.28,327.69,189.05,327.99z"/>
																		</g>
																	</g>
																</g>
															</g>
														</g>
													</g>
												</g>
											</g>
										</g>
									</g>
								</g>
							</g>
						</g>
					</g>
				</g>
				<g>
					<g>
						<g>
							<path style="fill:#1A2E35;" d="M122.76,317.16c3.95-11.59,21.18-27.39,33.38-26.3l19.27,12.09
								c-1.31,6.62-6.56,12.31-13.06,14.15c-3.47,0.98-7.63,1.19-9.74,4.11c-2.15,2.99-1.02,7.42-3.03,10.51
								c-2.79,4.28-10.17,3.92-12.29,8.57c-0.93,2.03-0.51,4.48-1.47,6.49c-1.28,2.68-8.2,5.97-11.01,5.02
								c-2.81-0.95-2.73-5.78-3.6-8.32c-1.5-4.35-0.8-6.57-0.23-8.97C122.33,328.82,120.88,322.69,122.76,317.16z"/>
						</g>
					</g>
				</g>
				<g>
					<g>
						<g>
							<g>
								<g>
									<g>
										<path style="fill:#FFC19D;" d="M133.13,354.35c0.05-1.5-1.55-5.12-3.02-5.41c-3.94-0.77-11.11-0.73-11.56,9.34
											c-0.63,13.77,13.33,11.56,13.37,11.16C131.94,369.14,132.94,359.54,133.13,354.35z"/>
									</g>
								</g>
							</g>
						</g>
					</g>
				</g>
				<g>
					<g>
						<g>
							<g>
								<g>
									<g>
										<g>
											<path style="fill:#FF9C6A;" d="M127.94,364.04c-0.06-0.05-0.25,0.16-0.66,0.32c-0.4,0.16-1.09,0.26-1.79-0.04
												c-1.43-0.6-2.55-2.96-2.5-5.45c0.02-1.26,0.34-2.44,0.83-3.4c0.47-0.99,1.15-1.66,1.89-1.76
												c0.74-0.14,1.23,0.33,1.39,0.72c0.17,0.39,0.07,0.67,0.14,0.69c0.04,0.04,0.31-0.22,0.22-0.79
												c-0.04-0.28-0.19-0.61-0.5-0.89c-0.32-0.28-0.8-0.44-1.31-0.41c-1.07,0.03-2.07,0.96-2.6,2.02
												c-0.6,1.06-0.98,2.39-1.01,3.8c-0.04,2.78,1.26,5.44,3.23,6.1c0.96,0.3,1.78,0.04,2.21-0.26
												C127.9,364.37,127.99,364.06,127.94,364.04z"/>
										</g>
									</g>
								</g>
							</g>
						</g>
					</g>
				</g>
			</g>
			<g>
				<g>
					<path style="fill:#1A2E35;" d="M119.82,313.59L119.82,313.59c0.04-4.31-5.34-7.13-9.53-8.1c-4.2-0.98-8.63,0.3-12.41,2.37
						c-2.21,1.21-4.44,2.93-4.93,5.4c-0.49,2.47,1.88,5.42,4.24,4.53c-4.52,1.55-6.81,7.59-4.46,11.74
						c2.35,4.16,8.71,5.3,12.36,2.22c-1.18,3.95-3.75,7.46-7.16,9.77c7.08,1.01,14.6-2.02,19.01-7.65
						C121.36,328.25,122.49,320.22,119.82,313.59z"/>
				</g>
			</g>
			<g>
				<g>
					<g>
						<path style="fill:#FF735D;" d="M110.26,335.49c-0.1,0.02-0.47-1.55-0.51-4.13c-0.05-2.58,0.33-6.18,1.59-9.94
							c1.27-3.75,3.15-6.85,4.75-8.87c1.6-2.03,2.84-3.05,2.91-2.98c0.25,0.18-4.37,4.75-6.8,12.14
							C109.66,329.06,110.57,335.5,110.26,335.49z"/>
					</g>
				</g>
			</g>
			<g>
				<g>
					<path style="fill:#1A2E35;" d="M171.42,298.79c1.27,5.61,9.79,12.79,13.53,17.16c7.14,8.33,8.54,11.09,8.47,29.71
						c3.37-6.43,5.95-12.73,5.69-19.98c-0.26-7.25-2.93-14.52-7.97-19.74C186.09,300.71,178.6,297.75,171.42,298.79"/>
				</g>
			</g>
		</g>
		<g>
			<g>
				<g>
					<g>
						<path style="fill:#1A2E35;" d="M229.82,451.99c0,0-14.84-24.74-18.96-29.75c-3.86-4.69-8.84-7.46-12.16-8.91
							c-1.85-0.81-3.79-1.36-5.78-1.71l-21.34-4.73c0,0-0.04,14.57-15.3,15.47c-15.26,0.9-28.12-20.36-28.12-20.36
							s-24.66,3.81-30.56,6.85c-5.9,3.03-15.17,6.89-20.27,32.44l-3.58,24.99l42.52,3.93l4.07,63.18l21.09,14.68
							c0,0,58.46,15.2,62.19,16.2c3.74,1,4.97-94.06,4.97-94.06S223.6,460.5,229.82,451.99z"/>
					</g>
				</g>
			</g>
		</g>
		<g>
			<g>
				<path style="fill:#375A64;" d="M201.83,441.37c0.06-0.02,0.34,0.63,0.82,1.82c0.49,1.19,1.11,2.95,1.8,5.14
					c1.38,4.38,2.9,10.58,3.76,17.56c0.85,6.98,0.87,13.36,0.58,17.95c-0.14,2.3-0.32,4.15-0.5,5.42c-0.17,1.27-0.3,1.97-0.36,1.97
					c-0.06-0.01-0.05-0.72,0.03-2c0.08-1.28,0.17-3.13,0.23-5.41c0.13-4.57,0.02-10.9-0.83-17.82c-0.85-6.92-2.27-13.09-3.5-17.49
					c-0.61-2.2-1.14-3.98-1.53-5.2C201.96,442.08,201.78,441.39,201.83,441.37z"/>
			</g>
		</g>
	</g>
	<g>
		<g>
			<g>
				<path style="fill:#FFC19D;" d="M200.02,544.86l-80.05-17.43l-3.7-57.22l-35.6-3.29c0,0,1.32,39.12,2.69,50.74
					c1.97,16.72,11.86,39.55,17.64,44.11c5.78,4.56,102.62,2.5,102.62,2.5L200.02,544.86z"/>
			</g>
		</g>
		<g>
			<g>
				<path style="fill:#FFC19D;" d="M245.46,555.23c-0.56,1.12-1.73,1.85-2.98,1.74c-0.25-0.02-0.51-0.07-0.78-0.16
					c-1.77-0.57-1.6-4.17-1.6-4.17l-8.48-1.39c0,0-11.03,7.11-14.96,11.83c-3.92,4.72-13.94,0.9-13.94,0.9l-3.47-18.08l15.62-14.12
					c0,0-0.96,0.84,0.12-1.8c1.08-2.64,5.98-1.64,5.98-1.64c0.76-1.31,3.97-1.77,3.97-1.77l13.7,1.58c2.82,0.33,5.35,1.91,6.86,4.31
					l5.79,9.17c0,0,3.06,6.6,2.57,8.14c-0.74,2.32-3.19,1.8-3.19,1.8s-0.67,4.34-1.81,4.49
					C247.71,556.19,245.46,555.23,245.46,555.23L245.46,555.23z"/>
			</g>
		</g>
		<g>
			<g>
				<g>
					<path style="fill:#FF9C6A;" d="M216.31,542.24c0.01,0.14,1.84-0.02,4.76,0.1c2.92,0.14,6.96,0.65,11.18,2.09
						c2.11,0.71,4.06,1.57,5.76,2.46c1.66,0.93,3.38,1.7,3.91,2.9c0.27,0.59,0.15,1.19-0.15,1.63c-0.29,0.44-0.68,0.73-1.03,0.87
						c-0.72,0.3-1.18,0.09-1.2,0.18c-0.03,0.02,0.42,0.38,1.31,0.14c0.43-0.12,0.92-0.4,1.32-0.91c0.41-0.48,0.64-1.35,0.32-2.14
						c-0.3-0.8-0.98-1.42-1.7-1.92c-0.75-0.49-1.53-0.99-2.4-1.46c-1.72-0.96-3.71-1.86-5.87-2.58c-4.32-1.47-8.48-1.9-11.44-1.88
						C218.1,541.76,216.29,542.15,216.31,542.24z"/>
				</g>
			</g>
		</g>
		<g>
			<g>
				<g>
					<path style="fill:#FF9C6A;" d="M215.35,550.98c0.02,0.26,5.59,0.03,12.44,0.43c6.85,0.38,12.36,1.24,12.41,0.98
						c0.02-0.11-1.34-0.47-3.57-0.87c-2.23-0.39-5.34-0.79-8.79-0.99c-3.45-0.19-6.59-0.15-8.85-0.01
						C216.73,550.66,215.34,550.86,215.35,550.98z"/>
				</g>
			</g>
		</g>
		<g>
			<g>
				<g>
					<path style="fill:#FF9C6A;" d="M245.38,554.88c0.05-0.01,0.11-0.51,0.17-1.46c0.06-0.94,0.11-2.31,0.01-4.01
						c-0.06-0.85-0.15-1.78-0.38-2.78c-0.22-1-0.69-2.05-1.35-2.98c-1.23-1.87-2.95-3.8-5.13-5.26c-2.17-1.43-4.35-2.65-6.55-3.31
						c-2.18-0.66-4.23-0.82-5.92-0.9c-1.69-0.06-3.06-0.02-4,0.01c-0.94,0.04-1.46,0.09-1.46,0.15c-0.01,0.14,2.09,0.21,5.43,0.45
						c1.66,0.15,3.64,0.38,5.71,1.05c2.05,0.66,4.19,1.87,6.3,3.26c2.11,1.41,3.71,3.18,4.96,4.99c1.32,1.73,1.57,3.71,1.78,5.36
						C245.27,552.78,245.19,554.89,245.38,554.88z"/>
				</g>
			</g>
		</g>
		<g>
			<g>
				<g>
					<path style="fill:#FF9C6A;" d="M225.6,530.03c0,0.13,2.05,0.18,5.32,0.56c3.15,0.48,8.19,0.71,11.07,5.06
						c3.11,3.95,5.76,7.68,6.91,10.74c1.23,3.04,1.12,5.14,1.3,5.13c0.05,0,0.13-0.52,0.08-1.45c-0.04-0.94-0.24-2.3-0.8-3.89
						c-1.05-3.23-3.68-7.1-6.81-11.08c-0.8-1-1.66-1.94-2.66-2.69c-1-0.76-2.16-1.2-3.22-1.51c-2.16-0.61-4.15-0.79-5.81-0.92
						C227.65,529.76,225.59,529.92,225.6,530.03z"/>
				</g>
			</g>
		</g>
		<g>
			<g>
				<g>
					<path style="fill:#FF9C6A;" d="M219.65,560.16c0.02,0.02,0.3-0.19,0.81-0.62c0.59-0.47,1.35-1.08,2.29-1.84
						c2.02-1.56,5.03-3.79,9-6.2l-0.19,0.04c2.53,0.43,5.38,0.92,8.47,1.44l-0.29-0.36c-0.02,0.69,0.02,1.37,0.16,2.07
						c0.14,0.69,0.36,1.43,0.96,2.04c0.31,0.29,0.76,0.47,1.12,0.52c0.38,0.1,0.79,0.13,1.19,0.07c0.81-0.12,1.57-0.54,2.11-1.17
						c0.14-0.15,0.26-0.33,0.37-0.5l0.08-0.14l0.04-0.07l0.02-0.03l0,0c0.11-0.04-0.95,0.34-0.5,0.18l0.01,0l0.02,0.01l0.27,0.11
						c0.36,0.14,0.72,0.27,1.1,0.39c0.37,0.12,0.76,0.22,1.16,0.29c0.2,0.03,0.41,0.06,0.63,0.07c0.21,0.01,0.46,0.02,0.79-0.15
						c0.48-0.34,0.65-0.74,0.83-1.12c0.17-0.38,0.31-0.77,0.42-1.17c0.23-0.79,0.4-1.58,0.54-2.4l-0.5,0.34
						c1.1,0.19,2.4-0.07,3.16-1.08c0.34-0.47,0.62-1.05,0.58-1.71c-0.03-0.59-0.16-1.11-0.3-1.64c-0.59-2.08-1.43-4.08-2.34-6.1
						l-0.01-0.02l-0.02-0.03c-0.98-1.56-2.03-3.22-3.09-4.89c-0.66-1.04-1.31-2.07-1.96-3.1c-0.65-0.99-1.23-2.11-2.15-3
						c-0.88-0.89-1.94-1.59-3.07-2.04c-1.13-0.49-2.39-0.61-3.49-0.73c-4.54-0.51-8.87-1-12.91-1.45l-0.06-0.01l-0.05,0.01
						c-0.79,0.13-1.54,0.32-2.26,0.6c-0.71,0.29-1.46,0.61-1.97,1.38l0.48-0.15c-1.45-0.6-3.13-0.6-4.4,0.25
						c-1.28,0.84-1.86,2.19-2.18,3.47l0.1-0.18c-4.48,4.03-8.14,7.32-10.76,9.68c-1.21,1.11-2.17,2-2.9,2.67
						c-0.66,0.62-0.99,0.96-0.97,0.98c0.02,0.02,0.4-0.27,1.09-0.84c0.76-0.64,1.76-1.48,3.01-2.54c2.66-2.3,6.39-5.52,10.95-9.46
						l0.07-0.06l0.03-0.12c0.29-1.12,0.87-2.36,1.92-3.01c1.02-0.69,2.49-0.67,3.71-0.16l0.3,0.13l0.18-0.27
						c0.29-0.46,0.94-0.8,1.6-1.04c0.66-0.24,1.39-0.42,2.11-0.54l-0.1,0c4.04,0.48,8.37,0.99,12.9,1.52
						c1.16,0.13,2.24,0.23,3.27,0.68c1.03,0.42,1.98,1.05,2.78,1.85c0.81,0.78,1.36,1.83,2.03,2.86c0.65,1.03,1.3,2.06,1.96,3.1
						c1.06,1.67,2.11,3.33,3.09,4.89l-0.03-0.05c0.89,1.98,1.73,3.98,2.3,5.96c0.13,0.49,0.26,1,0.28,1.45
						c0.05,0.39-0.15,0.81-0.4,1.16c-0.49,0.7-1.49,0.91-2.32,0.78l-0.43-0.07l-0.07,0.41c-0.13,0.77-0.29,1.56-0.51,2.3
						c-0.2,0.7-0.51,1.55-0.89,1.83c-0.02,0.01-0.16,0.06-0.35,0.04c-0.17,0-0.34-0.03-0.52-0.05c-0.35-0.06-0.71-0.15-1.06-0.26
						c-0.35-0.11-0.7-0.23-1.04-0.36l-0.25-0.1l-0.01-0.01l-0.01,0c0.45-0.16-0.61,0.22-0.5,0.18l0,0l-0.01,0.03l-0.03,0.05
						l-0.06,0.11c-0.09,0.14-0.18,0.28-0.29,0.4c-0.42,0.5-1.02,0.83-1.64,0.93c-0.31,0.05-0.62,0.02-0.93-0.05
						c-0.34-0.05-0.56-0.14-0.77-0.32c-0.81-0.84-0.92-2.34-0.93-3.54l0-0.31l-0.29-0.05c-3.1-0.48-5.96-0.93-8.49-1.33l-0.11-0.02
						l-0.09,0.05c-3.97,2.5-6.93,4.8-8.9,6.45c-0.98,0.83-1.72,1.5-2.2,1.96C219.88,559.89,219.63,560.14,219.65,560.16z"/>
				</g>
			</g>
		</g>
	</g>
	<g>
		<g>
			<g>
				<g>
					<path style="fill:#E1E1E1;" d="M349.32,502.63l-105.44,0.86c-3.42,0-6.69,1.64-7.2,5.03l-11.52,76.85h-54.31
						c-1.75,0-3.17,1.42-3.17,3.17c0,1.75,1.42,3.17,3.17,3.17h53.36h10.13h109.97l11.86-81.11
						C356.8,506.4,353.56,502.63,349.32,502.63z"/>
				</g>
			</g>
			<g>
				<g>
					<g>
						<path style="fill:#1A2E35;" d="M349.32,502.63c0,0,0.57-0.07,1.66,0.16c1.06,0.25,2.72,0.9,4.03,2.67
							c0.65,0.87,1.15,2.03,1.3,3.37c0.17,1.36-0.22,2.79-0.39,4.34c-0.44,3.11-0.95,6.68-1.52,10.7
							c-2.32,16.11-5.67,39.33-9.78,67.88l-0.04,0.28l-0.28,0c-44.89,0.03-103.87,0.06-168.29,0.1c-1.51,0-3.02,0-4.53,0
							c-0.7,0.03-1.67-0.01-2.4-0.46c-0.75-0.41-1.33-1.1-1.62-1.9c-0.63-1.61,0.12-3.58,1.64-4.38c0.72-0.44,1.69-0.47,2.38-0.45
							l2.23,0c5.94,0,11.82,0,17.63,0c11.61,0,22.92,0.01,33.81,0.01l-0.41,0.35c4.15-27.52,8.02-53.2,11.49-76.23
							c0.12-1.46,0.78-3.04,1.95-4.02c1.14-1.02,2.59-1.55,4.03-1.78c1.47-0.22,2.86-0.1,4.25-0.15c1.39-0.01,2.77-0.02,4.14-0.03
							c5.48-0.04,10.77-0.07,15.87-0.11c10.21-0.06,19.64-0.12,28.21-0.18c17.12-0.09,30.77-0.16,40.16-0.21
							c4.67-0.01,8.28-0.01,10.74-0.02c1.21,0.01,2.13,0.01,2.77,0.01C349,502.61,349.32,502.63,349.32,502.63s-0.32,0.03-0.94,0.04
							c-0.65,0.01-1.57,0.03-2.77,0.06c-2.47,0.04-6.08,0.09-10.74,0.16c-9.4,0.1-23.04,0.26-40.16,0.45
							c-8.57,0.08-18.01,0.18-28.21,0.28c-5.1,0.05-10.4,0.1-15.87,0.15c-1.37,0.01-2.75,0.03-4.14,0.04
							c-1.39,0.05-2.81-0.06-4.15,0.15c-1.34,0.21-2.67,0.72-3.68,1.62c-1.04,0.9-1.58,2.16-1.71,3.6
							c-3.44,23.04-7.27,48.72-11.37,76.25l-0.05,0.35h-0.35c-10.9,0-22.2,0.01-33.81,0.01c-5.8,0-11.68,0-17.63,0l-2.23,0
							c-0.79-0.02-1.37,0.01-1.96,0.34c-1.16,0.61-1.73,2.11-1.25,3.34c0.22,0.61,0.67,1.14,1.24,1.45
							c0.59,0.34,1.18,0.37,1.98,0.35c1.51,0,3.02,0,4.53,0c64.41,0.04,123.4,0.07,168.29,0.1l-0.32,0.28
							c4.23-28.53,7.67-51.74,10.06-67.84c0.6-4.02,1.14-7.59,1.61-10.69c0.19-1.55,0.58-2.98,0.43-4.27
							c-0.13-1.29-0.6-2.43-1.22-3.28c-1.25-1.74-2.86-2.42-3.9-2.69C349.9,502.62,349.32,502.67,349.32,502.63z"/>
					</g>
				</g>
			</g>
		</g>
		<g>
			<g>
				<circle style="fill:#FFFFFF;" cx="292.13" cy="546.18" r="6.6"/>
			</g>
		</g>
		<g>
			<g>
				<g>
					<path style="fill:#1A2E35;" d="M229.43,590.98c0.15,0.02,3.51-19.54,7.5-43.7c3.99-24.17,7.11-43.77,6.96-43.8
						c-0.15-0.02-3.5,19.54-7.5,43.71C232.39,571.35,229.28,590.96,229.43,590.98z"/>
				</g>
			</g>
		</g>
	</g>
</g>
</svg>
