<svg width="230" height="176" viewBox="0 0 230 176" fill="none" xmlns="http://www.w3.org/2000/svg">
<path d="M229.019 88.2959C229.04 102.186 225.525 115.854 218.804 128.01C212.084 140.167 202.379 150.413 190.605 157.783C190.105 158.095 189.601 158.402 189.094 158.702C179.597 164.33 169.045 167.949 158.092 169.335C147.14 170.722 136.019 169.846 125.419 166.762C91.6402 156.904 66.9663 125.505 66.9663 88.2959C66.9663 43.1859 103.241 6.61133 147.991 6.61133C192.741 6.61133 229.019 43.1859 229.019 88.2959Z" fill="#106FA4"/>
<path opacity="0.7" d="M229.019 88.2959C229.04 102.186 225.525 115.854 218.804 128.01C212.084 140.167 202.379 150.413 190.605 157.783C190.105 158.095 189.601 158.402 189.094 158.702C179.597 164.33 169.045 167.949 158.092 169.335C147.14 170.722 136.019 169.846 125.419 166.762C91.6402 156.904 66.9663 125.505 66.9663 88.2959C66.9663 43.1859 103.241 6.61133 147.991 6.61133C192.741 6.61133 229.019 43.1859 229.019 88.2959Z" fill="white"/>
<path d="M67.729 37.8278C56.8667 37.8278 52.463 31.1534 51.0118 28.0758C49.9341 25.7855 49.322 23.3039 49.2108 20.7752C49.0997 18.2464 49.4918 15.7207 50.3644 13.3446C51.263 10.8516 52.7493 8.61191 54.6973 6.81526C56.6453 5.0186 58.9977 3.71793 61.5551 3.02344L61.6145 3.3362C59.1121 4.02205 56.8113 5.29956 54.9062 7.06101C53.001 8.82246 51.5474 11.0162 50.6678 13.4572C49.808 15.7938 49.4206 18.2777 49.528 20.7651C49.6353 23.2525 50.2354 25.6938 51.2933 27.9476C52.7195 30.9658 57.0481 37.515 67.7353 37.5182C68.7896 37.5149 69.8431 37.4554 70.8911 37.3399L70.9255 37.6526C69.8639 37.7686 68.7969 37.827 67.729 37.8278Z" fill="#106FA4"/>
<path d="M88.1 19.8627C88.1012 22.9044 87.3201 25.8954 85.832 28.5482C84.3438 31.2011 82.1985 33.4268 79.6021 35.0114C77.0058 36.5961 74.0455 37.4866 71.0058 37.5973C67.966 37.708 64.9489 37.0353 62.2441 35.6437C59.5394 34.2521 57.2378 32.1884 55.5606 29.6508C53.8834 27.1132 52.8868 24.187 52.6667 21.1533C52.4465 18.1195 53.0101 15.08 54.3033 12.3269C55.5965 9.57371 57.5759 7.19932 60.0514 5.43175C60.7034 4.96785 61.3869 4.54983 62.0969 4.18069C64.8004 2.75756 67.8257 2.0568 70.8797 2.14628C73.9336 2.23577 76.9127 3.11247 79.5283 4.69146C82.1439 6.27045 84.3074 8.4982 85.8091 11.1589C87.3109 13.8196 88.1 16.8231 88.1 19.8783V19.8627Z" fill="#106FA4"/>
<path d="M70.7973 20.9571L61.0391 2.12248C65.5565 -0.146435 70.7667 -0.615931 75.617 0.808872L70.7973 20.9571Z" fill="#106FA4"/>
<path d="M70.7973 20.9571L61.0391 2.12248C65.5565 -0.146435 70.7667 -0.615931 75.617 0.808872L70.7973 20.9571Z" fill="#FDB415"/>
<path opacity="0.2" d="M70.7973 20.9563L60.0508 5.43074C60.7028 4.96685 61.3863 4.54882 62.0963 4.17969L70.7973 20.9563Z" fill="black"/>
<path d="M76.7141 48.8899L79.038 51.833C83.5932 49.0324 87.8731 45.807 91.8206 42.1999L89.5719 39.2036C89.5227 39.1359 89.4605 39.0787 89.3889 39.0354C89.3172 38.9921 89.2377 38.9637 89.1548 38.9517C89.072 38.9398 88.9876 38.9446 88.9067 38.9658C88.8257 38.987 88.7499 39.0243 88.6836 39.0754L76.8455 47.8953C76.7695 47.9504 76.7055 48.0204 76.6575 48.1011C76.6094 48.1817 76.5783 48.2713 76.566 48.3644C76.5537 48.4574 76.5605 48.552 76.586 48.6424C76.6114 48.7327 76.655 48.817 76.7141 48.8899Z" fill="#106FA4"/>
<path opacity="0.3" d="M76.7141 48.8899L79.038 51.833C83.5932 49.0324 87.8731 45.807 91.8206 42.1999L89.5719 39.2036C89.5227 39.1359 89.4605 39.0787 89.3889 39.0354C89.3172 38.9921 89.2377 38.9637 89.1548 38.9517C89.072 38.9398 88.9876 38.9446 88.9067 38.9658C88.8257 38.987 88.7499 39.0243 88.6836 39.0754L76.8455 47.8953C76.7695 47.9504 76.7055 48.0204 76.6575 48.1011C76.6094 48.1817 76.5783 48.2713 76.566 48.3644C76.5537 48.4574 76.5605 48.552 76.586 48.6424C76.6114 48.7327 76.655 48.817 76.7141 48.8899Z" fill="white"/>
<path d="M190.604 157.781C180.979 163.773 170.2 167.67 158.968 169.217C147.736 170.764 136.305 169.927 125.418 166.76L130.363 150.168L136.274 145.352L175.035 146.446L190.604 157.781Z" fill="#FDB415"/>
<path d="M198.03 40.4469L196.497 52.7103C183.577 57.9679 179.417 48.9884 179.417 48.9884L181.387 41.7636L191.899 36.2871L198.03 40.4469Z" fill="#F9B499"/>
<path d="M181.403 41.7607L179.968 47.0182C179.968 47.0182 184.687 47.6187 188.725 41.623L181.403 41.7607Z" fill="#F7A48B"/>
<path d="M219.054 93.0059C219.054 93.0059 216.092 117.68 205.107 146.226C200.731 150.624 195.865 154.507 190.605 157.798C190.104 158.111 189.601 158.417 189.094 158.718C178.072 159.08 156.382 158.561 138.467 150.614L139.124 104.819L144.378 88.3957C144.378 88.3957 139.78 91.023 129.706 94.3101L112.845 78.5468L116.786 74.606L145.692 58.6206C145.692 58.6206 149.26 56.0091 155.359 54.3577C155.359 54.3577 161.858 52.2058 174.291 49.8883C175.898 49.588 177.607 49.2867 179.417 48.9844C179.417 48.9844 183.577 57.9638 196.497 52.7063L199.562 55.9934C199.562 55.9934 211.388 64.3129 216.426 71.3188C216.433 71.3251 221.462 78.9878 219.054 93.0059Z" fill="#106FA4"/>
<path opacity="0.2" d="M144.378 88.4044L147.881 78.1113" stroke="black" stroke-miterlimit="10"/>
<path d="M199.562 55.9954C194.746 60.3741 184.337 58.2848 184.337 58.2848C176.996 57.506 174.291 49.8902 174.291 49.8902C175.899 49.59 177.607 49.2887 179.417 48.9863C179.417 48.9863 183.577 57.9658 196.497 52.7082L199.562 55.9954Z" fill="#106FA4"/>
<path opacity="0.3" d="M199.562 55.9954C194.746 60.3741 184.337 58.2848 184.337 58.2848C176.996 57.506 174.291 49.8902 174.291 49.8902C175.899 49.59 177.607 49.2887 179.417 48.9863C179.417 48.9863 183.577 57.9658 196.497 52.7082L199.562 55.9954Z" fill="white"/>
<path d="M188.397 61.7924C186.228 61.8071 184.073 61.4441 182.029 60.7196C174.294 57.9391 171.082 50.6267 171.048 50.5516C171.033 50.5138 171.034 50.472 171.05 50.4348C171.066 50.3976 171.096 50.368 171.133 50.3522C171.17 50.3365 171.212 50.3357 171.25 50.3502C171.288 50.3646 171.318 50.3931 171.335 50.4297C171.367 50.5016 174.532 57.6952 182.138 60.4381C187.831 62.4805 194.505 61.5641 201.977 57.7108C202.014 57.6917 202.057 57.6881 202.096 57.7007C202.136 57.7133 202.169 57.7411 202.188 57.778C202.207 57.815 202.211 57.8579 202.198 57.8975C202.186 57.9371 202.158 57.9701 202.121 57.9892C197.198 60.5194 192.6 61.7924 188.397 61.7924Z" fill="#2F2E41"/>
<path d="M189.112 59.017C187.549 59.017 186.426 58.9044 186.298 58.8918C176.452 58.0161 174.159 50.0156 174.137 49.9343C174.132 49.9144 174.131 49.8936 174.134 49.8732C174.137 49.8529 174.144 49.8332 174.154 49.8155C174.164 49.7978 174.178 49.7823 174.195 49.77C174.211 49.7576 174.23 49.7486 174.25 49.7435C174.29 49.7329 174.332 49.7385 174.368 49.759C174.404 49.7795 174.43 49.8133 174.441 49.853C174.463 49.9312 176.702 57.7221 186.326 58.5791C186.42 58.5791 195.609 59.5174 199.462 55.8831C199.492 55.8542 199.531 55.8381 199.573 55.8381C199.614 55.8381 199.654 55.8542 199.684 55.8831C199.699 55.8976 199.71 55.9149 199.718 55.9339C199.726 55.953 199.73 55.9734 199.73 55.9941C199.73 56.0147 199.726 56.0352 199.718 56.0542C199.71 56.0733 199.699 56.0906 199.684 56.1051C197.041 58.5822 192.203 59.017 189.112 59.017Z" fill="#2F2E41"/>
<path d="M84.8125 106.8L157.518 175.999L185.766 147.75L112.846 78.5483L129.05 61.6309L57.4395 51.832L68.0766 124.062L84.8125 106.8Z" fill="#106FA4"/>
<path opacity="0.4" d="M84.8125 106.8L157.518 175.999L185.766 147.75L112.846 78.5483L129.05 61.6309L57.4395 51.832L68.0766 124.062L84.8125 106.8Z" fill="white"/>
<path opacity="0.4" d="M84.8125 106.803L90.3171 112.038L112.846 78.5508L84.8125 106.803Z" fill="white"/>
<path d="M8.06305 63.2023L29.4749 83.5851L37.7975 75.2625L16.3169 54.8828L21.0928 49.9005L0 47.0137L3.13389 68.2879L8.06305 63.2023Z" fill="#106FA4"/>
<path opacity="0.2" d="M8.06299 63.2062L9.6831 64.7482L16.3168 54.8867L8.06299 63.2062Z" fill="black"/>
<path d="M28.6716 142.292L58.6938 170.869L70.3599 159.203L40.247 130.626L46.9371 123.639L17.3652 119.592L21.7596 149.42L28.6716 142.292Z" fill="#FDB415"/>
<path opacity="0.2" d="M28.6709 142.293L30.9416 144.454L40.2463 130.627L28.6709 142.293Z" fill="black"/>
<path d="M76.9395 52.7081L78.5533 54.7223L104.741 58.3034L91.8301 42.1992C91.8301 42.1992 82.1845 50.7377 76.9395 52.7081Z" fill="#106FA4"/>
<path d="M70.3721 37.5992C70.3721 37.5992 72.1392 42.8036 77.9347 47.1009L88.5687 39.1661C88.5687 39.1661 85.9196 33.8773 86.7953 28.8449C86.7953 28.8449 87.8431 22.1956 86.0353 20.9414C85.8442 20.8132 85.6141 20.7564 85.3853 20.781C85.1565 20.8056 84.9437 20.91 84.7842 21.0759C84.1962 21.6545 83.2642 23.1682 83.2204 26.9777C83.2204 28.0911 82.7951 29.1671 82.4072 30.2086C81.7473 31.9882 80.5995 34.434 79.0638 35.3254C78.9808 35.3875 78.8929 35.443 78.8011 35.4911C76.1368 36.6829 73.2836 37.3965 70.3721 37.5992Z" fill="#F9B499"/>
<path opacity="0.2" d="M94.8116 45.9297C94.8116 45.9297 86.5671 52.9293 82.6138 54.465" stroke="black" stroke-miterlimit="10"/>
<path d="M196.602 35.6586C202.85 28.6285 204.269 19.6895 199.772 15.6927C195.276 11.6959 186.565 14.1549 180.317 21.185C174.069 28.2151 172.649 37.1541 177.146 41.1508C181.643 45.1476 190.353 42.6886 196.602 35.6586Z" fill="#F9B499"/>
<path d="M194.965 23.3651C194.965 23.3651 177.566 13.513 193.219 4.88384C193.519 4.71858 193.868 4.66436 194.203 4.73072C194.539 4.79708 194.841 4.97977 195.055 5.24664L208.323 21.8231C208.323 21.8231 209.417 20.9474 209.636 18.3202C209.636 18.3202 211.169 21.3853 209.199 23.7935C209.199 23.7935 211.607 25.545 211.169 26.8586H208.98C208.98 26.8586 205.467 35.8381 198.033 40.4357C198.033 40.4357 189.275 38.4653 191.465 33.4298C191.462 33.4392 189.272 28.8415 194.965 23.3651Z" fill="#2F2E41"/>
<path d="M195.892 33.1639C196.486 31 195.454 28.8309 193.589 28.3191C191.723 27.8073 189.729 29.1466 189.136 31.3105C188.542 33.4743 189.573 35.6434 191.439 36.1552C193.305 36.667 195.299 35.3277 195.892 33.1639Z" fill="#F9B499"/>
<path d="M216.433 95.4148C204.826 122.569 197.063 128.918 197.063 128.918C184.262 139.43 148.763 148.191 148.763 148.191C148.325 142.057 143.29 129.575 143.29 129.575L172.195 117.092C172.195 117.092 178.469 117.118 188.459 99.4776L200.657 78.7695" fill="#106FA4"/>
<path d="M148.756 148.294C148.734 148.293 148.712 148.285 148.694 148.272C148.68 148.263 148.669 148.251 148.661 148.237C148.653 148.222 148.648 148.207 148.647 148.19C148.215 142.148 143.233 129.737 143.18 129.609C143.17 129.582 143.171 129.553 143.182 129.527C143.193 129.501 143.213 129.48 143.239 129.468L172.145 116.986C172.159 116.983 172.174 116.983 172.188 116.986C172.251 116.986 178.534 116.773 188.371 99.4274L200.569 78.7193C200.583 78.694 200.607 78.6755 200.635 78.6679C200.663 78.6603 200.693 78.6641 200.719 78.6787C200.744 78.6932 200.762 78.7171 200.77 78.7453C200.778 78.7734 200.774 78.8035 200.759 78.8288L188.562 99.5369C178.866 116.664 172.711 117.192 172.217 117.205L143.442 129.637C143.915 130.823 148.406 142.226 148.875 148.056C151.211 147.468 184.749 138.901 197.003 128.837C197.081 128.774 204.888 122.178 216.341 95.3709C216.352 95.3439 216.374 95.3225 216.401 95.3113C216.428 95.3002 216.458 95.3002 216.485 95.3114C216.512 95.3226 216.533 95.3441 216.545 95.3711C216.556 95.398 216.556 95.4283 216.545 95.4553C205.06 122.325 197.222 128.94 197.153 129.002C184.452 139.411 149.138 148.209 148.784 148.294H148.756Z" fill="#106FA4"/>
<path opacity="0.2" d="M148.756 148.294C148.734 148.293 148.712 148.285 148.694 148.272C148.68 148.263 148.669 148.251 148.661 148.237C148.653 148.222 148.648 148.207 148.647 148.19C148.215 142.148 143.233 129.737 143.18 129.609C143.17 129.582 143.171 129.553 143.182 129.527C143.193 129.501 143.213 129.48 143.239 129.468L172.145 116.986C172.159 116.983 172.174 116.983 172.188 116.986C172.251 116.986 178.534 116.773 188.371 99.4274L200.569 78.7193C200.583 78.694 200.607 78.6755 200.635 78.6679C200.663 78.6603 200.693 78.6641 200.719 78.6787C200.744 78.6932 200.762 78.7171 200.77 78.7453C200.778 78.7734 200.774 78.8035 200.759 78.8288L188.562 99.5369C178.866 116.664 172.711 117.192 172.217 117.205L143.442 129.637C143.915 130.823 148.406 142.226 148.875 148.056C151.211 147.468 184.749 138.901 197.003 128.837C197.081 128.774 204.888 122.178 216.341 95.3709C216.352 95.3439 216.374 95.3225 216.401 95.3113C216.428 95.3002 216.458 95.3002 216.485 95.3114C216.512 95.3226 216.533 95.3441 216.545 95.3711C216.556 95.398 216.556 95.4283 216.545 95.4553C205.06 122.325 197.222 128.94 197.153 129.002C184.452 139.411 149.138 148.209 148.784 148.294H148.756Z" fill="black"/>
<path opacity="0.2" d="M148.341 127.393C148.341 127.393 152.263 136.804 153.345 142.496" stroke="black" stroke-miterlimit="10"/>
<path opacity="0.2" d="M191.239 132.803C191.239 132.803 188.39 118.269 202.736 121.835" stroke="black" stroke-miterlimit="10"/>
<path d="M143.283 129.574L139.562 130.888L144.725 148.19L148.65 147.155C148.65 147.155 146.567 137.034 143.283 129.574Z" fill="#106FA4"/>
<path opacity="0.3" d="M143.283 129.574L139.562 130.888L144.725 148.19L148.65 147.155C148.65 147.155 146.567 137.034 143.283 129.574Z" fill="white"/>
<path d="M139.561 130.887L130.597 124.21C130.441 124.093 130.248 124.039 130.054 124.056C129.86 124.073 129.68 124.161 129.547 124.303C127.464 126.493 132.771 132.195 132.771 132.195C134.041 133.743 133.04 134.659 132.168 135.113C131.737 135.332 131.271 135.473 130.791 135.529C127.826 135.904 119.194 137.668 119.194 137.668C111.309 139.419 111.969 140.514 111.969 140.514C111.531 143.141 120.727 141.609 120.727 141.609C120.289 147.751 125.327 147.041 125.327 147.041C124.671 150.044 127.736 150.607 127.736 150.607C128.174 155.423 144.378 147.041 144.378 147.041L139.561 130.887ZM123.854 143.601C123.577 143.67 123.286 143.658 123.015 143.565C122.745 143.473 122.507 143.304 122.331 143.079L121.371 141.843H128.152C126.982 142.719 125.027 143.304 123.854 143.601Z" fill="#F9B499"/>
<path d="M125.328 147.034L129.05 146.002" stroke="#F7A48B" stroke-miterlimit="10"/>
<path d="M127.735 150.596L131.335 149.367" stroke="#F7A48B" stroke-miterlimit="10"/>
</svg>
