<svg width="115" height="105" viewBox="0 0 115 105" fill="none" xmlns="http://www.w3.org/2000/svg">
<path d="M62.4241 105C75.195 105 85.5478 101.367 85.5478 96.8847C85.5478 92.4028 75.195 88.7695 62.4241 88.7695C49.6532 88.7695 39.3003 92.4028 39.3003 96.8847C39.3003 101.367 49.6532 105 62.4241 105Z" fill="#106FA4"/>
<path d="M62.4241 105C75.195 105 85.5478 101.367 85.5478 96.8847C85.5478 92.4028 75.195 88.7695 62.4241 88.7695C49.6532 88.7695 39.3003 92.4028 39.3003 96.8847C39.3003 101.367 49.6532 105 62.4241 105Z" fill="#ADADAD"/>
<path d="M53.5948 13.8945H0.90873C0.406852 13.8945 0 14.3013 0 14.8032V51.7812C0 52.2831 0.406852 52.6899 0.90873 52.6899H53.5948C54.0967 52.6899 54.5035 52.2831 54.5035 51.7812V14.8032C54.5035 14.3013 54.0967 13.8945 53.5948 13.8945Z" fill="#2F2E41"/>
<path opacity="0.2" d="M53.5948 13.8945H0.90873C0.406852 13.8945 0 14.3013 0 14.8032V51.7812C0 52.2831 0.406852 52.6899 0.90873 52.6899H53.5948C54.0967 52.6899 54.5035 52.2831 54.5035 51.7812V14.8032C54.5035 14.3013 54.0967 13.8945 53.5948 13.8945Z" fill="black"/>
<path opacity="0.48" d="M52.6722 14.8184H1.83305C1.33117 14.8184 0.924316 15.2252 0.924316 15.727V50.8583C0.924316 51.3601 1.33117 51.7669 1.83305 51.7669H52.6722C53.174 51.7669 53.5809 51.3601 53.5809 50.8583V15.727C53.5809 15.2252 53.174 14.8184 52.6722 14.8184Z" fill="#106FA4"/>
<path d="M40.1853 8.35086C40.1853 8.35086 38.342 8.81348 38.342 11.5855V54.5297H4.16604V12.4057C4.16413 11.8404 4.28009 11.2808 4.50652 10.7628C4.73295 10.2448 5.06488 9.7797 5.48113 9.39713C5.89738 9.01456 6.38881 8.72295 6.92407 8.5409C7.45933 8.35885 8.02667 8.29036 8.58988 8.3398L8.71522 8.35086H40.1853Z" fill="#F2F2F2"/>
<path d="M40.1853 8.35293C40.1853 8.35293 42.9502 7.89216 42.9502 10.6623V23.8423C42.9502 23.8423 42.9502 25.9047 44.7935 26.3655H38.3384V11.5876C38.3384 11.5876 38.3384 8.81555 40.1853 8.35293Z" fill="#CCCCCC"/>
<path d="M14.04 8.35132V1.0674C14.04 0.79415 14.1486 0.532092 14.3418 0.338875C14.5351 0.145658 14.7971 0.0371094 15.0704 0.0371094H49.4234C49.4234 0.0371094 47.5801 0.0371092 47.5801 2.34651V24.0545C47.5801 24.0545 47.5801 26.8191 44.8152 26.3639C44.8152 26.3639 42.9719 26.1188 42.9719 23.4702V10.6607C42.9719 10.6607 42.9719 7.89607 40.207 8.35132H14.04Z" fill="#E6E6E6"/>
<path d="M49.423 0.0377309C49.423 0.0377309 51.1907 -0.316144 51.9428 1.14359C52.1164 1.50628 52.2029 1.90454 52.1953 2.30658L52.2266 13.8941H47.5742V2.34897C47.5742 2.34897 47.5742 0.0377309 49.423 0.0377309Z" fill="#CCCCCC"/>
<path d="M35.7082 33.365H7.25004C7.14591 33.365 7.04604 33.3236 6.97242 33.25C6.89879 33.1764 6.85742 33.0765 6.85742 32.9724V23.4454C6.85742 23.394 6.86759 23.343 6.88734 23.2955C6.9071 23.2479 6.93605 23.2048 6.97253 23.1685C7.00901 23.1322 7.0523 23.1034 7.09993 23.0839C7.14755 23.0644 7.19856 23.0544 7.25004 23.0547H35.7082C35.8119 23.0547 35.9113 23.0959 35.9845 23.1691C36.0578 23.2424 36.099 23.3418 36.099 23.4454V32.965C36.1 33.017 36.0906 33.0687 36.0714 33.1171C36.0522 33.1655 36.0236 33.2095 35.9873 33.2467C35.9509 33.284 35.9075 33.3136 35.8596 33.3339C35.8117 33.3542 35.7602 33.3647 35.7082 33.365ZM7.25004 23.204C7.2172 23.2037 7.18465 23.21 7.15424 23.2224C7.12384 23.2348 7.09619 23.2531 7.07289 23.2762C7.04958 23.2993 7.03109 23.3268 7.01847 23.3572C7.00585 23.3875 6.99935 23.42 6.99935 23.4528V32.9724C6.99935 33.0053 7.00584 33.0379 7.01843 33.0683C7.03103 33.0987 7.0495 33.1264 7.07278 33.1496C7.09606 33.1729 7.12369 33.1914 7.1541 33.204C7.18452 33.2166 7.21712 33.2231 7.25004 33.2231H35.7082C35.7744 33.2226 35.8377 33.1959 35.8843 33.149C35.9309 33.102 35.9571 33.0386 35.9571 32.9724V23.4454C35.9571 23.3794 35.9308 23.3161 35.8842 23.2695C35.8375 23.2228 35.7742 23.1966 35.7082 23.1966L7.25004 23.204Z" fill="#E6E6E6"/>
<path d="M32.7953 25.513H9.23839C9.21933 25.513 9.20104 25.5055 9.18756 25.492C9.17408 25.4785 9.1665 25.4602 9.1665 25.4412C9.1665 25.4318 9.16837 25.4225 9.17201 25.4139C9.17564 25.4053 9.18097 25.3975 9.18767 25.391C9.19437 25.3844 9.20231 25.3793 9.21102 25.3759C9.21973 25.3725 9.22904 25.3709 9.23839 25.3711H32.7953C32.8139 25.3711 32.8317 25.3785 32.8449 25.3916C32.858 25.4048 32.8654 25.4226 32.8654 25.4412C32.8654 25.4599 32.8581 25.4779 32.845 25.4913C32.8319 25.5048 32.8141 25.5126 32.7953 25.513Z" fill="#E6E6E6"/>
<path d="M32.7956 28.2835H9.23864C9.22836 28.2851 9.21784 28.2845 9.20782 28.2817C9.19779 28.2789 9.18849 28.274 9.18056 28.2672C9.17263 28.2605 9.16627 28.2521 9.1619 28.2427C9.15753 28.2332 9.15527 28.2229 9.15527 28.2125C9.15527 28.2021 9.15753 28.1918 9.1619 28.1824C9.16627 28.1729 9.17263 28.1645 9.18056 28.1578C9.18849 28.151 9.19779 28.1461 9.20782 28.1433C9.21784 28.1405 9.22836 28.1399 9.23864 28.1415H32.7956C32.8124 28.1443 32.8278 28.1529 32.8388 28.1659C32.8499 28.1789 32.856 28.1954 32.856 28.2125C32.856 28.2296 32.8499 28.2461 32.8388 28.2591C32.8278 28.2721 32.8124 28.2807 32.7956 28.2835Z" fill="#E6E6E6"/>
<path d="M32.7956 30.594H9.23864C9.22836 30.5957 9.21784 30.5951 9.20782 30.5923C9.19779 30.5895 9.18849 30.5845 9.18056 30.5778C9.17263 30.571 9.16627 30.5626 9.1619 30.5532C9.15753 30.5437 9.15527 30.5335 9.15527 30.523C9.15527 30.5126 9.15753 30.5024 9.1619 30.4929C9.16627 30.4835 9.17263 30.4751 9.18056 30.4683C9.18849 30.4616 9.19779 30.4566 9.20782 30.4538C9.21784 30.451 9.22836 30.4504 9.23864 30.4521H32.7956C32.8124 30.4548 32.8278 30.4635 32.8388 30.4765C32.8499 30.4895 32.856 30.506 32.856 30.523C32.856 30.5401 32.8499 30.5566 32.8388 30.5696C32.8278 30.5826 32.8124 30.5913 32.7956 30.594Z" fill="#E6E6E6"/>
<path d="M6.93066 11.5859V19.4375H18.0161V11.5859H6.93066ZM17.323 18.9749H7.62189V12.0467H17.3212L17.323 18.9749Z" fill="#106FA4"/>
<path d="M8.82617 18.9761L11.5487 13.8965L13.3956 17.1293L14.3191 15.2806L16.5329 18.9761H8.82617Z" fill="#106FA4"/>
<path d="M11.5481 13.8965H11.2458L8.43115 18.9761H8.82561L11.5481 13.8965Z" fill="#106FA4"/>
<path opacity="0.2" d="M11.5481 13.8965H11.2458L8.43115 18.9761H8.82561L11.5481 13.8965Z" fill="black"/>
<path d="M13.3945 17.1284L13.1567 16.7101L14.0821 14.9941L14.318 15.2798L13.3945 17.1284Z" fill="#106FA4"/>
<path opacity="0.2" d="M13.3945 17.1284L13.1567 16.7101L14.0821 14.9941L14.318 15.2798L13.3945 17.1284Z" fill="black"/>
<path d="M13.4451 14.1439C13.7189 14.1439 13.9409 13.922 13.9409 13.6481C13.9409 13.3743 13.7189 13.1523 13.4451 13.1523C13.1712 13.1523 12.9492 13.3743 12.9492 13.6481C12.9492 13.922 13.1712 14.1439 13.4451 14.1439Z" fill="#106FA4"/>
<path opacity="0.2" d="M13.4451 14.1439C13.7189 14.1439 13.9409 13.922 13.9409 13.6481C13.9409 13.3743 13.7189 13.1523 13.4451 13.1523C13.1712 13.1523 12.9492 13.3743 12.9492 13.6481C12.9492 13.922 13.1712 14.1439 13.4451 14.1439Z" fill="black"/>
<path d="M35.648 11.6497H20.1756C20.1588 11.647 20.1435 11.6384 20.1324 11.6254C20.1213 11.6124 20.1152 11.5958 20.1152 11.5788C20.1152 11.5617 20.1213 11.5452 20.1324 11.5322C20.1435 11.5192 20.1588 11.5105 20.1756 11.5078H35.648C35.6649 11.5105 35.6802 11.5192 35.6913 11.5322C35.7024 11.5452 35.7084 11.5617 35.7084 11.5788C35.7084 11.5958 35.7024 11.6124 35.6913 11.6254C35.6802 11.6384 35.6649 11.647 35.648 11.6497Z" fill="#E6E6E6"/>
<path d="M35.6489 14.2122H20.1765C20.1577 14.2117 20.1399 14.204 20.1268 14.1905C20.1138 14.1771 20.1064 14.1591 20.1064 14.1403C20.1064 14.1218 20.1138 14.104 20.127 14.0908C20.1401 14.0777 20.1579 14.0703 20.1765 14.0703H35.6489C35.6674 14.0703 35.6853 14.0777 35.6984 14.0908C35.7115 14.104 35.7189 14.1218 35.7189 14.1403C35.7189 14.1591 35.7116 14.1771 35.6985 14.1905C35.6854 14.204 35.6676 14.2117 35.6489 14.2122Z" fill="#E6E6E6"/>
<path d="M35.5009 16.765H20.034C20.0172 16.7622 20.0019 16.7536 19.9908 16.7406C19.9797 16.7276 19.9736 16.7111 19.9736 16.694C19.9736 16.6769 19.9797 16.6604 19.9908 16.6474C20.0019 16.6344 20.0172 16.6258 20.034 16.623H35.5009C35.5177 16.6258 35.5331 16.6344 35.5442 16.6474C35.5552 16.6604 35.5613 16.6769 35.5613 16.694C35.5613 16.7111 35.5552 16.7276 35.5442 16.7406C35.5331 16.7536 35.5177 16.7622 35.5009 16.765Z" fill="#E6E6E6"/>
<path d="M35.5017 19.3177H20.0349C20.0161 19.3172 19.9983 19.3094 19.9852 19.296C19.9722 19.2826 19.9648 19.2646 19.9648 19.2458C19.9648 19.2272 19.9722 19.2094 19.9854 19.1963C19.9985 19.1832 20.0163 19.1758 20.0349 19.1758H35.5017C35.5203 19.1758 35.5381 19.1832 35.5513 19.1963C35.5644 19.2094 35.5718 19.2272 35.5718 19.2458C35.5718 19.2646 35.5645 19.2826 35.5514 19.296C35.5383 19.3094 35.5205 19.3172 35.5017 19.3177Z" fill="#E6E6E6"/>
<path d="M22.1696 36.9085H6.69909C6.68881 36.9101 6.67829 36.9095 6.66826 36.9067C6.65824 36.9039 6.64894 36.899 6.64101 36.8922C6.63308 36.8855 6.62672 36.8771 6.62235 36.8676C6.61798 36.8582 6.61572 36.8479 6.61572 36.8375C6.61572 36.8271 6.61798 36.8168 6.62235 36.8074C6.62672 36.7979 6.63308 36.7895 6.64101 36.7828C6.64894 36.776 6.65824 36.7711 6.66826 36.7683C6.67829 36.7655 6.68881 36.7649 6.69909 36.7665H22.1696C22.1799 36.7649 22.1904 36.7655 22.2004 36.7683C22.2105 36.7711 22.2198 36.776 22.2277 36.7828C22.2356 36.7895 22.242 36.7979 22.2463 36.8074C22.2507 36.8168 22.253 36.8271 22.253 36.8375C22.253 36.8479 22.2507 36.8582 22.2463 36.8676C22.242 36.8771 22.2356 36.8855 22.2277 36.8922C22.2198 36.899 22.2105 36.9039 22.2004 36.9067C22.1904 36.9095 22.1799 36.9101 22.1696 36.9085Z" fill="#E6E6E6"/>
<path d="M22.1694 39.4642H6.69884C6.67992 39.4637 6.66191 39.456 6.64853 39.4426C6.63514 39.4293 6.62742 39.4112 6.62695 39.3923C6.62743 39.3736 6.63522 39.3558 6.64865 39.3427C6.66208 39.3296 6.68009 39.3223 6.69884 39.3223H22.1694C22.1787 39.322 22.188 39.3237 22.1967 39.3271C22.2055 39.3305 22.2134 39.3356 22.2201 39.3421C22.2268 39.3487 22.2321 39.3565 22.2358 39.3651C22.2394 39.3737 22.2413 39.383 22.2413 39.3923C22.2413 39.4114 22.2337 39.4297 22.2202 39.4432C22.2067 39.4566 22.1884 39.4642 22.1694 39.4642Z" fill="#E6E6E6"/>
<path d="M22.0274 42.0159H6.56237C6.55209 42.0176 6.54157 42.017 6.53155 42.0142C6.52152 42.0114 6.51222 42.0064 6.50429 41.9997C6.49636 41.9929 6.49 41.9845 6.48563 41.9751C6.48127 41.9656 6.479 41.9553 6.479 41.9449C6.479 41.9345 6.48127 41.9242 6.48563 41.9148C6.49 41.9053 6.49636 41.8969 6.50429 41.8902C6.51222 41.8834 6.52152 41.8785 6.53155 41.8757C6.54157 41.8729 6.55209 41.8723 6.56237 41.874H22.0274C22.0376 41.8723 22.0482 41.8729 22.0582 41.8757C22.0682 41.8785 22.0775 41.8834 22.0854 41.8902C22.0934 41.8969 22.0997 41.9053 22.1041 41.9148C22.1085 41.9242 22.1107 41.9345 22.1107 41.9449C22.1107 41.9553 22.1085 41.9656 22.1041 41.9751C22.0997 41.9845 22.0934 41.9929 22.0854 41.9997C22.0775 42.0064 22.0682 42.0114 22.0582 42.0142C22.0482 42.017 22.0376 42.0176 22.0274 42.0159Z" fill="#E6E6E6"/>
<path d="M22.0271 44.5697H6.56212C6.5432 44.5692 6.52519 44.5615 6.51181 44.5481C6.49843 44.5347 6.4907 44.5167 6.49023 44.4978C6.49072 44.4791 6.4985 44.4612 6.51193 44.4482C6.52536 44.4351 6.54337 44.4278 6.56212 44.4278H22.0271C22.0365 44.4275 22.0458 44.4291 22.0545 44.4326C22.0632 44.436 22.0711 44.4411 22.0778 44.4476C22.0845 44.4541 22.0899 44.4619 22.0935 44.4706C22.0971 44.4792 22.099 44.4884 22.099 44.4978C22.099 44.5169 22.0914 44.5351 22.078 44.5486C22.0645 44.5621 22.0462 44.5697 22.0271 44.5697Z" fill="#E6E6E6"/>
<path d="M34.3954 44.5733H33.413V44.4314H34.3954V44.5733ZM32.5632 44.5733H31.7042V44.4314H32.5521L32.5632 44.5733ZM30.8656 44.5733H30.0158V44.4314H30.8656V44.5733ZM29.1661 44.5733H28.3126V44.4314H29.1624L29.1661 44.5733ZM27.4684 44.5733H26.6187V44.4314H27.4684V44.5733ZM25.7689 44.5733H24.9192V44.4314H25.7689V44.5733ZM24.0713 44.5733H23.8575C23.7374 44.5739 23.6198 44.5393 23.5193 44.4738C23.4187 44.4083 23.3395 44.3147 23.2916 44.2047L23.4224 44.1494C23.4585 44.2349 23.519 44.3078 23.5964 44.359C23.6738 44.4102 23.7647 44.4373 23.8575 44.4369H24.0713V44.5733ZM34.8765 43.9577H34.7346V43.1081H34.8765V43.9577ZM23.3856 43.3274H23.2437V42.4777H23.3856V43.3274ZM34.8765 42.2602H34.7346V41.4106H34.8765V42.2602ZM23.3856 41.6299H23.2437V40.7802H23.3856V41.6299ZM34.8765 40.5609H34.7346V39.7112H34.8765V40.5609ZM23.3856 39.9306H23.2437V39.0809H23.3856V39.9306ZM34.8765 38.8634H34.7346V38.0137H34.8765V38.8634ZM23.3856 38.2331H23.2437V37.3852H23.3856V38.2331ZM34.6959 37.1991C34.6599 37.1141 34.5996 37.0416 34.5225 36.9908C34.4454 36.9399 34.355 36.913 34.2627 36.9134H34.047V36.7715H34.2627C34.3824 36.7715 34.4995 36.8063 34.5996 36.8718C34.6998 36.9373 34.7787 37.0305 34.8267 37.1401L34.6959 37.1991ZM33.1973 36.9134H32.3475V36.7715H33.1973V36.9134ZM31.4978 36.9134H30.6499V36.7715H31.4978V36.9134ZM29.8002 36.9134H28.9504V36.7715H29.7872L29.8002 36.9134ZM28.1007 36.9134H27.2509V36.7715H28.1007V36.9134ZM26.403 36.9134H25.5477V36.7715H26.3975L26.403 36.9134ZM24.7035 36.9134H23.8575V36.7715H24.7054L24.7035 36.9134Z" fill="#E6E6E6"/>
<path d="M42.4357 4.14192H18.3387C18.3219 4.13919 18.3065 4.13056 18.2955 4.11755C18.2844 4.10455 18.2783 4.08803 18.2783 4.07096C18.2783 4.05388 18.2844 4.03737 18.2955 4.02436C18.3065 4.01136 18.3219 4.00273 18.3387 4H42.4357C42.4526 4.00273 42.4679 4.01136 42.479 4.02436C42.4901 4.03737 42.4962 4.05388 42.4962 4.07096C42.4962 4.08803 42.4901 4.10455 42.479 4.11755C42.4679 4.13056 42.4526 4.13919 42.4357 4.14192Z" fill="#F2F2F2"/>
<path d="M42.4356 6.69661H18.3386C18.3199 6.69613 18.302 6.68834 18.289 6.67491C18.2759 6.66148 18.2685 6.64347 18.2686 6.62473C18.2686 6.60615 18.2759 6.58834 18.2891 6.5752C18.3022 6.56207 18.32 6.55469 18.3386 6.55469H42.4356C42.4542 6.55469 42.472 6.56207 42.4851 6.5752C42.4983 6.58834 42.5057 6.60615 42.5057 6.62473C42.5057 6.64347 42.4983 6.66148 42.4853 6.67491C42.4722 6.68834 42.4544 6.69613 42.4356 6.69661Z" fill="#F2F2F2"/>
<path d="M13.5867 14.1439C13.8605 14.1439 14.0825 13.922 14.0825 13.6481C14.0825 13.3743 13.8605 13.1523 13.5867 13.1523C13.3128 13.1523 13.0908 13.3743 13.0908 13.6481C13.0908 13.922 13.3128 14.1439 13.5867 14.1439Z" fill="#106FA4"/>
<path d="M39.6206 37.9727H27.2173V47.3411H39.6206V37.9727Z" fill="#106FA4"/>
<path d="M38.8448 38.5234H27.9917V46.7897H38.8448V38.5234Z" fill="white"/>
<path d="M29.3389 46.7905L32.3858 40.7285L34.4521 44.5861L35.4862 42.3818L37.9635 46.7905H29.3389Z" fill="#106FA4"/>
<path d="M32.3859 40.7285H32.0486L28.8984 46.7905H29.339L32.3859 40.7285Z" fill="#106FA4"/>
<path opacity="0.2" d="M32.3859 40.7285H32.0486L28.8984 46.7905H29.339L32.3859 40.7285Z" fill="black"/>
<path d="M34.4518 44.5844L34.1846 44.0867L35.2205 42.0391L35.4859 42.38L34.4518 44.5844Z" fill="#106FA4"/>
<path opacity="0.2" d="M34.4518 44.5844L34.1846 44.0867L35.2205 42.0391L35.4859 42.38L34.4518 44.5844Z" fill="black"/>
<path d="M34.5079 41.0251C34.8144 41.0251 35.0628 40.7602 35.0628 40.4334C35.0628 40.1067 34.8144 39.8418 34.5079 39.8418C34.2015 39.8418 33.9531 40.1067 33.9531 40.4334C33.9531 40.7602 34.2015 41.0251 34.5079 41.0251Z" fill="#106FA4"/>
<path opacity="0.2" d="M34.5079 41.0251C34.8144 41.0251 35.0628 40.7602 35.0628 40.4334C35.0628 40.1067 34.8144 39.8418 34.5079 39.8418C34.2015 39.8418 33.9531 40.1067 33.9531 40.4334C33.9531 40.7602 34.2015 41.0251 34.5079 41.0251Z" fill="black"/>
<path d="M34.6662 41.0251C34.9726 41.0251 35.221 40.7602 35.221 40.4334C35.221 40.1067 34.9726 39.8418 34.6662 39.8418C34.3597 39.8418 34.1113 40.1067 34.1113 40.4334C34.1113 40.7602 34.3597 41.0251 34.6662 41.0251Z" fill="#106FA4"/>
<path d="M111.445 73.5622C111.445 73.5622 108.864 87.5513 100.671 90.2791C100.671 90.2791 91.917 93.8805 79.6685 90.8726C77.9643 90.4546 76.287 89.9339 74.6456 89.3134C74.6456 89.3134 63.7261 85.2235 60.2866 79.5339L56.9927 64.3707L69.2744 42.8655C69.2744 42.8655 85.3679 23.5498 106.584 38.219C106.578 38.219 119.415 43.0092 111.445 73.5622Z" fill="#CCCCCC"/>
<path opacity="0.2" d="M109.084 52.8897C109.084 52.8897 108.347 73.2651 90.7476 75.8547C88.5225 76.1562 86.2649 76.1245 84.0492 75.7607C81.7488 75.4087 77.5793 75.5156 77.7968 80.984C77.7968 80.984 78.5341 87.5399 79.6622 90.8723C77.958 90.4542 76.2806 89.9335 74.6393 89.313C74.6393 89.313 63.7198 85.2232 60.2802 79.5335L56.9863 64.3704L73.2513 45.2556C73.2513 45.2556 81.7303 34.0275 93.6894 36.5728C93.6894 36.5728 110.133 37.0225 109.084 52.8897Z" fill="black"/>
<path d="M68.2139 90.1914V92.3054C68.2139 92.3054 71.5741 94.0656 73.2773 90.6614C73.2773 90.6614 69.7088 90.6669 68.2139 90.1914Z" fill="#F9B499"/>
<path d="M60.2803 85.2763C60.7125 85.6309 61.2274 85.8706 61.777 85.973C63.4654 86.2753 64.7557 85.0828 64.9216 84.9243L64.9954 83.2305C64.4424 83.4148 63.8654 83.636 63.2737 83.8774C62.1807 84.3234 61.1835 84.7989 60.2803 85.2763Z" fill="#F9B499"/>
<path d="M75.4004 50.4951C75.4004 50.4951 77.1976 48.7 80.1929 39.7185L82.2887 34.6279C82.2887 34.6279 83.0131 30.844 89.2378 31.0892L97.5822 29.998C97.5822 29.998 105.344 33.7303 105.643 37.9234V50.497C105.643 50.497 105.94 65.4684 94.8542 70.5536C94.8542 70.5536 97.5491 66.0638 93.9565 62.4716L90.8562 59.2222C90.8562 59.2222 87.0701 59.7751 86.7715 57.6814C86.7715 57.6814 87.9678 55.2853 82.8785 54.6863L78.086 52.8912L76.3884 53.2082L75.4004 50.4951Z" fill="#FDB415"/>
<path d="M89.2498 29.8517V31.6948C89.2498 31.6948 88.9585 33.313 91.1391 33.8531C92.0381 34.0634 92.9787 34.011 93.8487 33.7019C95.5611 33.114 98.573 31.7243 97.2587 29.5347C97.2587 29.5347 96.0403 27.417 96.2007 22.7871C96.2007 22.7908 95.0137 30.165 89.2498 29.8517Z" fill="#F9B499"/>
<path d="M89.2485 29.8517V31.6948C89.2485 31.6948 96.9368 31.0092 96.1995 22.7871C96.1995 22.7908 95.0124 30.165 89.2485 29.8517Z" fill="#F7A48B"/>
<path opacity="0.2" d="M92.1459 59.278L94.9882 62.8996C95.9774 64.1392 96.5156 65.6783 96.5144 67.2641C96.4812 70.0158 94.8555 70.554 94.8555 70.554C94.8555 70.554 97.5503 65.762 93.9578 62.472L90.8574 59.2227L92.1459 59.278Z" fill="black"/>
<path opacity="0.2" d="M76.6069 53.188C76.6069 53.188 79.593 51.0905 80.4907 45.7032L82.2234 38.8008C82.8767 40.8358 82.8954 43.0214 82.2768 45.0673C81.4787 47.6956 80.2382 51.262 78.8944 53.188L78.0963 52.8894L76.6069 53.188Z" fill="black"/>
<path opacity="0.2" d="M82.0518 54.2407L91.4395 52.7496C91.7537 52.7004 92.0506 52.5734 92.3033 52.3803C92.556 52.1872 92.7565 51.934 92.8865 51.6438C94.0791 48.9492 97.4744 41.3611 98.4568 40.082C98.4568 40.082 96.9656 44.1276 96.514 47.1614C96.514 47.1614 96.361 54.0877 91.2699 53.4906L82.0518 54.2407Z" fill="black"/>
<path d="M94.8535 70.5527C94.8535 70.5527 87.3698 71.7507 78.6862 69.9556C78.6862 69.9556 75.3001 84.1732 74.4909 86.9286C74.4162 87.1656 74.4162 87.4197 74.4909 87.6567C74.7066 88.3018 74.996 89.7191 73.7536 90.5522C73.593 90.6596 73.4172 90.7422 73.232 90.7973L73.1601 90.8176C72.92 90.8825 72.6712 90.9093 72.4228 90.8968C71.186 90.8471 68.2552 90.6185 67.1566 89.5827C67.0464 89.4759 66.9723 89.3374 66.9446 89.1864C66.8254 88.5675 66.8449 87.9299 67.0017 87.3194C67.0017 87.3194 65.8036 73.7155 67.0017 65.698C67.0017 65.698 67.0017 63.0679 69.8459 62.021C72.6108 61.0018 86.6196 56.2227 86.6196 56.2227C86.6196 56.2227 87.0657 56.7756 86.7652 57.6805C86.7652 57.6805 86.8519 59.566 90.8499 59.2214L94.4443 63.0053C94.4443 63.0053 97.2497 66.063 94.8535 70.5527Z" fill="#2F2E41"/>
<path opacity="0.2" d="M67.0215 87.3184C69.1486 87.4695 71.296 87.6464 73.4213 87.3847C73.5614 87.3607 73.7015 87.3386 73.8434 87.3184C72.7375 87.628 71.5762 87.6593 70.4352 87.6483C69.2908 87.6206 68.15 87.5104 67.0215 87.3184Z" fill="black"/>
<path opacity="0.2" d="M78.6943 69.9548V67.2878C79.592 67.8573 86.1467 72.043 93.8865 69.1162C94.2081 68.9967 94.4705 68.7567 94.6181 68.447C94.7657 68.1374 94.7869 67.7824 94.6773 67.4574C93.8921 65.159 91.9622 60.1679 89.7152 59.2188H90.8636L94.4561 63.0026C94.4561 63.0026 97.2579 65.7673 94.8616 70.5501C94.8542 70.5519 88.5742 71.75 78.6943 69.9548Z" fill="black"/>
<path opacity="0.2" d="M71.8134 69.9551C72.735 73.3685 72.5507 77.8804 69.3324 80.046C68.8916 80.3316 68.4174 80.5618 67.9204 80.7317C72.0327 78.9199 72.4659 73.8661 71.8134 69.9551Z" fill="black"/>
<path opacity="0.2" d="M72.7053 78.6367C72.9025 79.3297 72.521 80.2218 71.8076 80.4337C72.2445 79.8808 72.462 79.3094 72.7053 78.6367Z" fill="black"/>
<path d="M73.8412 60.6118L69.7123 62.1711C67.6165 63.0705 67.3621 64.3718 67.3621 64.3718L61.3291 64.2667C62.2268 65.4647 65.2737 78.6429 65.2737 78.6429C65.4091 78.5878 65.5564 78.5682 65.7016 78.5859C65.8467 78.6036 65.985 78.6581 66.1032 78.7442C66.271 78.8509 66.4214 78.9827 66.5492 79.135L66.4773 81.8996C66.3207 82.3309 65.74 82.7917 64.988 83.2322C63.1834 84.2956 60.4222 85.2264 60.4222 85.2264C58.026 86.124 57.7274 83.7298 57.7274 83.7298C57.1283 82.5318 57.7274 82.5318 57.7274 82.5318L54.2657 74.4996C53.1421 71.9131 52.2854 69.2186 51.7091 66.4582C51.1334 63.7624 50.746 61.0299 50.5497 58.2803C49.9506 55.5857 58.3338 53.4883 58.3338 53.4883L58.9329 55.5839L73.8412 60.6118Z" fill="#2F2E41"/>
<path opacity="0.2" d="M73.8419 60.6121L69.713 62.1713C67.6172 63.0708 67.3628 64.372 67.3628 64.372L61.3298 64.2669C61.3298 64.2669 59.5327 62.4717 58.9336 60.9733C58.9336 60.9733 61.9934 64.2669 66.0025 62.621C66.0025 62.621 68.4577 61.5686 67.6375 60.0665C67.443 59.7309 67.1476 59.4651 66.7933 59.3072L58.9336 55.5859L73.8419 60.6121Z" fill="black"/>
<path opacity="0.2" d="M57.7349 82.5293C60.1053 81.7921 62.437 80.7968 64.4333 79.3021C64.7319 79.1049 64.9863 78.8542 65.2738 78.6367C63.3734 80.8116 60.5569 82.087 57.7349 82.5293Z" fill="black"/>
<path opacity="0.2" d="M66.5559 79.1349L66.484 81.8995C66.3273 82.3308 65.7467 82.7916 64.9946 83.2321C65.9439 81.8664 66.1006 78.8732 66.1006 78.7441C66.2717 78.8501 66.4252 78.9819 66.5559 79.1349Z" fill="black"/>
<path d="M74.0392 92.8669C74.0292 93.2067 73.9626 93.5425 73.842 93.8603C73.1784 96.507 69.114 100.191 69.114 100.191C65.2211 103.485 62.1797 102.438 62.1797 102.438C62.0575 102.382 61.9502 102.298 61.8663 102.193C61.1843 101.271 63.7243 99.2975 63.7243 99.2975C65.0014 98.0071 66.0178 96.4827 66.7178 94.8077C67.3168 91.8126 68.2127 92.3066 68.2127 92.3066C70.4799 93.0623 71.984 92.1131 72.7066 91.4477C72.896 91.2673 73.0526 91.0552 73.1692 90.8211L73.2411 90.8008C73.9157 91.4035 74.0595 92.2808 74.0392 92.8669Z" fill="#106FA4"/>
<path d="M66.5568 95.3255C66.5335 95.3255 66.5105 95.3198 66.49 95.3089C66.4694 95.298 66.4518 95.2822 66.4388 95.2628C66.4185 95.2333 65.9448 94.5256 66.2305 93.9524C66.4278 93.5524 66.9273 93.3276 67.7144 93.2852C68.5014 93.2428 69.1134 93.429 69.5079 93.8381C69.6732 94.0217 69.8004 94.2363 69.8821 94.4695C69.9637 94.7027 69.9982 94.9499 69.9834 95.1965C69.9777 95.232 69.9587 95.264 69.9303 95.286C69.9019 95.3081 69.8662 95.3185 69.8304 95.3152C69.7946 95.312 69.7613 95.2952 69.7374 95.2684C69.7134 95.2416 69.7006 95.2066 69.7014 95.1707C69.7212 94.7535 69.5777 94.3449 69.3014 94.0317C68.9678 93.687 68.4388 93.5303 67.731 93.569C67.0526 93.6059 66.625 93.7773 66.4849 94.0777C66.2711 94.5109 66.6692 95.097 66.6692 95.1025C66.6905 95.1335 66.6985 95.1717 66.6916 95.2087C66.6847 95.2457 66.6634 95.2784 66.6324 95.2997C66.6102 95.3155 66.584 95.3244 66.5568 95.3255Z" fill="white"/>
<path d="M69.1128 97.3408C69.0865 97.3409 69.0607 97.3337 69.0383 97.3201C69.0158 97.3064 68.9976 97.2868 68.9857 97.2634C68.4327 96.1575 67.8797 96.0506 67.8705 96.0506C66.5009 95.7354 65.983 95.9419 65.7876 96.1686C65.5406 96.4579 65.7139 96.9058 65.7157 96.9058C65.7227 96.9231 65.7263 96.9416 65.7261 96.9603C65.726 96.979 65.7222 96.9974 65.7149 97.0146C65.7076 97.0318 65.697 97.0474 65.6837 97.0605C65.6704 97.0737 65.6547 97.084 65.6374 97.091C65.6201 97.0981 65.6015 97.1016 65.5829 97.1014C65.5642 97.1013 65.5457 97.0975 65.5285 97.0902C65.5113 97.0829 65.4957 97.0724 65.4826 97.0591C65.4695 97.0458 65.4591 97.03 65.4521 97.0127C65.4429 96.9869 65.2125 96.4008 65.5701 95.9806C65.9277 95.5603 66.7184 95.4903 67.9258 95.7668C67.9424 95.7668 68.6152 95.881 69.24 97.1307C69.2549 97.1638 69.2565 97.2014 69.2445 97.2357C69.2325 97.27 69.2078 97.2983 69.1755 97.315C69.1574 97.3292 69.1357 97.3381 69.1128 97.3408Z" fill="white"/>
<path d="M68.0626 99.1374C68.0362 99.1372 68.0103 99.1297 67.9879 99.1157C67.9654 99.1017 67.9473 99.0818 67.9354 99.0582C67.7252 98.5928 67.3838 98.1989 66.953 97.9247C65.8599 97.3717 65.3549 97.4436 65.1244 97.5966C65.0411 97.662 64.9745 97.7462 64.9299 97.8423C64.8854 97.9384 64.8643 98.0437 64.8682 98.1495C64.8707 98.1872 64.8581 98.2242 64.8332 98.2526C64.8083 98.2809 64.7732 98.2982 64.7355 98.3007C64.6979 98.3031 64.6608 98.2905 64.6325 98.2656C64.6041 98.2407 64.5868 98.2056 64.5844 98.168C64.576 98.011 64.6064 97.8544 64.673 97.712C64.7395 97.5695 64.8401 97.4457 64.9659 97.3515C65.3917 97.0695 66.1032 97.1672 67.0802 97.6629C67.1078 97.6758 67.7235 97.9929 68.1861 98.9218C68.2007 98.9548 68.2023 98.992 68.1907 99.0262C68.1791 99.0603 68.1551 99.0888 68.1234 99.1061C68.1057 99.1209 68.0849 99.1316 68.0626 99.1374Z" fill="white"/>
<path d="M74.2747 95.7298L72.9845 97.5877C71.9679 99.0571 70.7234 100.355 69.2979 101.432C66.9109 103.224 65.51 103.275 65.51 103.275C62.0078 103.945 61.8677 102.288 61.8604 102.199C61.9454 102.304 62.0532 102.388 62.1755 102.444C62.1755 102.444 65.2169 103.491 69.1099 100.199C69.1099 100.199 73.1762 96.5132 73.8379 93.8665C73.9585 93.5486 74.0251 93.2129 74.0351 92.873C74.7485 93.2767 74.8296 93.9789 74.7503 94.5318C74.6884 94.9631 74.5254 95.3736 74.2747 95.7298Z" fill="#2F2E41"/>
<path d="M65.274 87.4494C64.1312 89.6796 58.9387 92.6101 58.9387 92.6101C53.855 94.9066 51.3334 92.8644 51.3334 92.8644C51.1417 92.7113 50.9872 92.5165 50.8818 92.2949C50.7907 92.0974 50.7788 91.8725 50.8486 91.6664C51.1823 90.6675 53.2449 90.0076 53.2449 90.0076C53.6488 89.7952 54.0385 89.557 54.4117 89.2944C54.5831 89.1783 54.7508 89.0584 54.913 88.9386C55.455 88.5461 55.9213 88.1719 56.1241 88.0171L56.2384 87.9213C56.2992 87.8494 56.3582 87.7793 56.4227 87.7148C56.8337 87.2448 57.1932 86.8652 57.5047 86.5555C57.8457 86.2182 58.1277 85.9694 58.3452 85.7814C58.5298 85.6246 58.7271 85.4834 58.9351 85.3593C59.241 85.4847 60.277 85.2838 60.277 85.2838C62.8188 86.5352 64.9183 84.9336 64.9183 84.9336L65.1487 86.5924L65.274 87.4494Z" fill="#106FA4"/>
<path d="M65.7054 87.9117C65.7792 88.1578 65.7772 88.4204 65.6996 88.6653C65.622 88.9102 65.4724 89.1261 65.2704 89.2848L61.7479 92.1306C61.7479 92.1306 58.6347 94.5045 54.4431 94.5045H54.2772C50.2681 94.4473 50.8819 92.2928 50.8819 92.2928C50.9873 92.5144 51.1417 92.7091 51.3335 92.8623C51.3335 92.8623 53.8551 94.9044 58.9388 92.6079C58.9388 92.6079 64.1313 89.6793 65.2741 87.4473C65.3817 87.4776 65.4789 87.5369 65.555 87.6189C65.6311 87.7008 65.6832 87.8021 65.7054 87.9117Z" fill="#2F2E41"/>
<path d="M57.8857 90.963C57.8888 91.0027 57.8763 91.042 57.8509 91.0727C57.8254 91.1033 57.789 91.1228 57.7493 91.127H57.7346C57.6977 91.1264 57.6622 91.1124 57.6347 91.0877C57.6073 91.0629 57.5897 91.0291 57.5853 90.9924C57.5079 90.211 57.2258 89.6691 56.754 89.3816C55.8766 88.8508 54.601 89.3521 54.5881 89.3576C54.556 89.374 54.5188 89.3772 54.4844 89.3665C54.4499 89.3559 54.421 89.3322 54.4038 89.3005C54.5752 89.1844 54.743 89.0646 54.9052 88.9448C55.3992 88.8213 56.2286 88.7199 56.8977 89.1291C57.4655 89.4627 57.8046 90.0783 57.8857 90.963Z" fill="white"/>
<path d="M59.5806 89.8571C59.5648 89.8598 59.5486 89.8598 59.5327 89.8571C59.5016 89.8574 59.4712 89.8477 59.446 89.8295C59.4208 89.8112 59.4021 89.7854 59.3926 89.7557C59.1217 88.954 58.694 88.4066 58.1134 88.1283C57.2397 87.7081 56.3015 88.049 56.2904 88.0527C56.2616 88.0639 56.2301 88.0656 56.2002 88.0577C56.1704 88.0497 56.1439 88.0325 56.1245 88.0085L56.2388 87.9127C56.2996 87.8408 56.3586 87.7707 56.4231 87.7062C57.0292 87.5531 57.6691 87.6076 58.2406 87.861C58.9005 88.1725 59.3816 88.7826 59.6746 89.6636C59.6819 89.6824 59.6851 89.7025 59.6842 89.7227C59.6834 89.7428 59.6784 89.7626 59.6696 89.7807C59.6608 89.7989 59.6483 89.815 59.633 89.8281C59.6177 89.8413 59.5999 89.8511 59.5806 89.8571Z" fill="white"/>
<path d="M60.7778 88.0581C60.7619 88.0607 60.7457 88.0607 60.7298 88.0581C60.6985 88.0582 60.668 88.0485 60.6425 88.0303C60.6171 88.0121 60.598 87.9864 60.5879 87.9567C60.1934 86.7771 59.6902 86.1136 59.0912 85.9865C58.3705 85.8372 57.7253 86.5283 57.7198 86.5394C57.6932 86.569 57.6561 86.5869 57.6164 86.5893C57.5768 86.5917 57.5377 86.5784 57.5078 86.5523C57.8488 86.215 58.1308 85.9662 58.3483 85.7782C58.6043 85.6795 58.8831 85.6559 59.152 85.71C59.8635 85.8593 60.4423 86.5891 60.8699 87.8775C60.8811 87.9137 60.8777 87.9527 60.8605 87.9865C60.8433 88.0202 60.8136 88.0459 60.7778 88.0581Z" fill="white"/>
<path d="M52.0469 38.2188L58.9333 55.5844L77.7973 61.8712L72.1643 44.5277L52.0469 38.2188Z" fill="#106FA4"/>
<path opacity="0.4" d="M52.0469 38.2188L58.9333 55.5844L77.7973 61.8712L72.1643 44.5277L52.0469 38.2188Z" fill="white"/>
<path d="M52.0469 38.2185L52.9445 37.9199L72.7062 43.9081L72.1643 44.5274L52.0469 38.2185Z" fill="#106FA4"/>
<path opacity="0.2" d="M52.0469 38.2185L52.9445 37.9199L72.7062 43.9081L72.1643 44.5274L52.0469 38.2185Z" fill="black"/>
<path d="M77.7966 61.873L79.662 61.145L72.7055 43.9102L72.1636 44.5294L77.7966 61.873Z" fill="#106FA4"/>
<path opacity="0.3" d="M77.7966 61.873L79.662 61.145L72.7055 43.9102L72.1636 44.5294L77.7966 61.873Z" fill="black"/>
<path d="M79.4483 60.6556L90.0711 58.5784L78.0954 52.8906L76.4678 53.1376L79.4483 60.6556Z" fill="#E6E6E6"/>
<path d="M79.6626 61.1437L90.8641 59.2214L90.0715 58.5781L79.4487 60.6553L79.6626 61.1437Z" fill="#CCCCCC"/>
<path opacity="0.2" d="M60.2806 70.5527C61.0179 73.5017 60.8944 76.7861 59.5322 79.5341C59.6299 79.1655 59.7774 78.8135 59.853 78.4393C60.5294 75.8774 60.5645 73.1773 60.2806 70.5527Z" fill="black"/>
<path opacity="0.2" d="M74.0382 92.8671C74.0282 93.2069 73.9615 93.5427 73.8409 93.8605C73.1774 96.5072 69.113 100.192 69.113 100.192C65.22 103.485 62.1786 102.438 62.1786 102.438C62.0564 102.382 61.9491 102.298 61.8652 102.193C68.6853 102.396 72.7055 94.8208 72.7055 94.8208C74.2022 92.4248 72.7055 91.4516 72.7055 91.4516C72.8949 91.2712 73.0515 91.0591 73.1681 90.825L73.24 90.8047C73.9147 91.4037 74.0584 92.281 74.0382 92.8671Z" fill="black"/>
<path opacity="0.2" d="M65.274 87.4501C64.1312 89.6803 58.9387 92.6108 58.9387 92.6108C53.855 94.9073 51.3334 92.8652 51.3334 92.8652C51.1417 92.712 50.9872 92.5173 50.8818 92.2956C50.7907 92.0981 50.7788 91.8732 50.8486 91.6671C50.8486 91.6671 52.6458 94.0097 56.9867 92.6108C56.9867 92.6108 62.3912 90.3327 65.1524 86.582L65.274 87.4501Z" fill="black"/>
<path d="M86.9721 57.6916C86.15 57.9243 85.3095 58.0858 84.4597 58.1745C83.0883 58.3157 81.709 58.3668 80.3308 58.3275C80.1673 58.3232 80.0089 58.2692 79.8768 58.1727C79.7447 58.0762 79.6451 57.9418 79.5912 57.7873C79.5374 57.6328 79.5319 57.4656 79.5754 57.3079C79.619 57.1503 79.7095 57.0096 79.835 56.9046C80.3755 56.497 80.962 56.1543 81.5824 55.8835C82.4382 55.4997 83.3152 55.165 84.209 54.8809C87.75 55.6642 86.9721 57.6916 86.9721 57.6916Z" fill="#F9B499"/>
<path d="M90.0621 29.8845C89.7939 29.8978 89.525 29.8879 89.2585 29.855C85.9148 29.4624 83.1536 25.6601 82.9361 20.9031C82.912 20.4025 82.9175 19.9009 82.9527 19.4009V19.3899C83.2697 14.9517 85.8761 11.4646 89.2013 11.3061C92.8989 11.1347 96.0915 15.1563 96.3274 20.2875C96.5633 25.4187 93.7616 29.7112 90.0621 29.8845Z" fill="#F9B499"/>
<path d="M90.0618 29.8843C89.7935 29.8976 89.5247 29.8877 89.2581 29.8548H89.2471C94.117 28.666 94.8543 24.1485 94.8543 24.1485C95.4533 21.1554 93.3999 21.0743 93.3999 21.0743C87.4572 21.2954 85.5108 18.1364 85.5108 18.1364C83.6159 16.015 83.0555 18.6893 82.9468 19.386C83.2638 14.9478 85.8702 11.4607 89.1954 11.3022C92.893 11.1307 96.0856 15.1524 96.3215 20.2836C96.5575 25.4148 93.7612 29.711 90.0618 29.8843Z" fill="#F7A48B"/>
<path d="M96.3611 26.2452C96.3611 26.2452 96.0404 23.8289 96.2008 22.7894C95.9838 22.6666 95.7935 22.5018 95.641 22.3047C95.4884 22.1075 95.3767 21.882 95.3123 21.6412C94.564 19.4294 93.9649 19.9584 93.9649 19.9584C87.3771 22.3544 85.2813 14.5692 85.2813 14.5692C85.1301 14.1103 84.9126 14.1047 84.7283 14.2006C84.7211 14.2031 84.7147 14.2076 84.7099 14.2135C84.6084 14.2822 84.5197 14.3683 84.4481 14.4678L84.4242 14.4992C82.3744 18.3328 82.9846 21.5619 82.9846 21.5619C82.9846 21.5619 80.7874 21.4458 81.086 17.2546C81.086 17.2546 81.3865 12.763 84.6804 12.4625C84.6804 12.4625 85.2776 7.62994 95.1593 9.74765C95.1593 9.74765 99.6495 10.9659 100.549 17.5513C100.553 17.5624 101.749 25.9466 96.3611 26.2452Z" fill="#2F2E41"/>
<path opacity="0.2" d="M95.2889 21.4409C95.2904 21.4468 95.2894 21.453 95.2863 21.4582C95.2832 21.4634 95.2782 21.4671 95.2723 21.4686C95.2664 21.47 95.2602 21.4691 95.255 21.466C95.2499 21.4629 95.2461 21.4579 95.2447 21.452C94.5276 19.4633 93.9544 19.9591 93.9544 19.9591C87.3665 22.3551 85.2708 14.5699 85.2708 14.5699C85.1196 14.1109 84.9021 14.1054 84.7178 14.2012C85.2468 13.7884 86.432 13.3571 87.9619 15.7587C87.9619 15.7587 88.9001 17.5889 91.7554 18.6468C92.4995 18.91 93.2813 19.0513 94.0705 19.0652C94.6235 19.0818 95.2963 19.2495 95.241 19.9591C95.2539 19.9683 95.1709 20.2927 95.2889 21.4409Z" fill="black"/>
<path opacity="0.2" d="M98.4559 20.707C98.4559 20.707 100.251 24.1499 96.3601 26.2455L96.1997 22.7916C96.1997 22.7916 98.1554 23.8495 98.4559 20.707Z" fill="black"/>
<path d="M96.8086 22.9507C97.7177 22.9507 98.4547 21.9456 98.4547 20.7058C98.4547 19.466 97.7177 18.4609 96.8086 18.4609C95.8996 18.4609 95.1626 19.466 95.1626 20.7058C95.1626 21.9456 95.8996 22.9507 96.8086 22.9507Z" fill="#F9B499"/>
<path d="M65.2868 94.1309C65.2651 94.1306 65.2437 94.1255 65.2241 94.1161C63.0509 93.1172 62.3486 91.4879 62.9421 88.8301C63.2057 87.6487 63.0159 87.1437 62.8076 86.9262C62.7358 86.8551 62.6485 86.8015 62.5526 86.7695C62.4567 86.7375 62.3547 86.7281 62.2546 86.7419C62.2155 86.7487 62.1753 86.7398 62.1428 86.717C62.1103 86.6941 62.0882 86.6594 62.0813 86.6203C62.0745 86.5812 62.0835 86.5409 62.1063 86.5084C62.1291 86.476 62.1639 86.4539 62.203 86.447C62.3528 86.4259 62.5055 86.4401 62.6488 86.4884C62.7922 86.5367 62.9223 86.6178 63.0288 86.7253C63.3974 87.1161 63.473 87.8496 63.2371 88.9002C62.673 91.4289 63.3053 92.9089 65.3531 93.8507C65.389 93.8672 65.4169 93.8972 65.4307 93.9341C65.4445 93.9711 65.4431 94.012 65.4269 94.0479C65.4139 94.0737 65.3938 94.0952 65.3689 94.1099C65.3441 94.1246 65.3156 94.1319 65.2868 94.1309Z" fill="white"/>
<path d="M76.2979 99.1369C73.9127 99.1369 72.5929 97.9518 72.0233 95.294C71.769 94.1071 71.3819 93.7255 71.1017 93.6149C71.0048 93.5788 70.901 93.5653 70.7981 93.5755C70.6952 93.5857 70.596 93.6194 70.5082 93.6739C70.493 93.6848 70.4758 93.6925 70.4576 93.6966C70.4394 93.7007 70.4206 93.7012 70.4022 93.6979C70.3838 93.6946 70.3663 93.6877 70.3506 93.6776C70.3349 93.6675 70.3215 93.6543 70.3109 93.6389C70.2897 93.6079 70.2816 93.5697 70.2885 93.5327C70.2955 93.4957 70.3168 93.463 70.3478 93.4417C70.4739 93.3605 70.6174 93.31 70.7665 93.2943C70.9157 93.2786 71.0665 93.2982 71.2068 93.3514C71.7081 93.5486 72.0768 94.1826 72.3017 95.2332C72.8547 97.7711 74.0399 98.853 76.2979 98.853C76.3355 98.853 76.3716 98.868 76.3982 98.8946C76.4248 98.9212 76.4398 98.9573 76.4398 98.9949C76.4398 99.0326 76.4248 99.0687 76.3982 99.0953C76.3716 99.1219 76.3355 99.1369 76.2979 99.1369Z" fill="white"/>
<path d="M84.4661 58.172C83.0946 58.3133 81.7153 58.3644 80.3372 58.325C80.1736 58.3207 80.0153 58.2668 79.8831 58.1703C79.751 58.0738 79.6514 57.9394 79.5976 57.7849C79.5438 57.6304 79.5382 57.4632 79.5818 57.3055C79.6253 57.1478 79.7158 57.0071 79.8413 56.9022C80.3803 56.4963 80.9649 56.1548 81.5832 55.8848C81.5832 55.8848 81.9611 57.4569 84.4661 58.172Z" fill="#F7A48B"/>
</svg>
