<svg width="104" height="107" viewBox="0 0 104 107" fill="none" xmlns="http://www.w3.org/2000/svg">
<path d="M37.0105 66.7861L34.5342 98.8053H36.0888L39.4252 69.7872L60.9904 70.0078L63.668 96.0637L65.2145 95.7896L63.4359 66.6758L37.0105 66.7861Z" fill="#C2C4C6"/>
<path d="M64.8263 65.3418H35.587C35.0045 65.3418 34.5322 65.8139 34.5322 66.3962V67.1765C34.5322 67.7589 35.0045 68.231 35.587 68.231H64.8263C65.4089 68.231 65.8811 67.7589 65.8811 67.1765V66.3962C65.8811 65.8139 65.4089 65.3418 64.8263 65.3418Z" fill="#E1E1E2"/>
<path d="M83.7776 35.7823C92.5572 35.7823 99.6744 28.6676 99.6744 19.8912C99.6744 11.1147 92.5572 4 83.7776 4C74.9981 4 67.8809 11.1147 67.8809 19.8912C67.8809 28.6676 74.9981 35.7823 83.7776 35.7823Z" fill="#0071F2"/>
<path opacity="0.3" d="M87.8906 35.2412C96.3709 32.9689 101.404 24.2546 99.1327 15.7772C96.8612 7.29977 88.1451 2.26955 79.6647 4.54186C71.1843 6.81417 66.151 15.5285 68.4225 24.0059C70.694 32.4833 79.4102 37.5136 87.8906 35.2412Z" fill="white"/>
<path d="M88.0909 14.9381C88.9578 14.5681 89.3729 14.9826 89.5649 15.3728C89.6787 15.6118 89.7287 15.8761 89.71 16.1401L89.3708 22.7808C89.328 23.7981 89.0122 24.7853 88.4566 25.6389C86.3574 28.8146 82.0308 30.1419 82.0308 30.1419C79.753 29.3717 78.2771 28.0457 77.3337 26.688C76.1323 24.9377 75.5566 22.8334 75.6997 20.7154L75.9715 16.1181C76.1978 13.5266 77.5591 14.3122 77.5591 14.3122C79.2753 15.1556 81.8425 14.1151 82.767 13.6843C82.8709 13.6355 82.9854 13.6133 83.1001 13.6198C83.2148 13.6264 83.326 13.6613 83.4238 13.7216C84.2197 14.2154 86.3745 15.398 88.0909 14.9381Z" fill="#0071F2"/>
<path d="M82.3893 21.4003L80.2078 19.3347C79.908 19.0506 79.5089 18.8951 79.0958 18.9016C78.6828 18.9081 78.2886 19.0759 77.9978 19.3693C77.7072 19.6624 77.5428 20.0574 77.5397 20.4699C77.5366 20.8825 77.6951 21.2799 77.9812 21.5772L80.9617 24.6748C81.2469 24.9721 81.6346 25.1498 82.0461 25.1718C82.4576 25.1938 82.862 25.0584 83.1774 24.7932L92.5586 16.9053C92.8559 16.654 93.0475 16.2998 93.095 15.9134C93.1425 15.5271 93.0425 15.1371 92.815 14.8213C92.6906 14.6499 92.5323 14.5059 92.3499 14.3982C92.1675 14.2905 91.9649 14.2214 91.7547 14.1952C91.5445 14.169 91.3311 14.1863 91.1278 14.246C90.9245 14.3056 90.7357 14.4064 90.573 14.542L82.3893 21.4003Z" fill="white"/>
<path d="M12.8901 104.457C11.0385 104.82 7.42616 104.782 4.50839 104.684C2.04501 104.598 0.0781983 104.457 0.0781983 104.457C-0.366444 102.235 1.41213 101.339 1.41213 101.339L5.55996 100.139C5.66934 100.173 5.78616 100.176 5.89717 100.147C6.00817 100.119 6.10892 100.06 6.18797 99.9766C6.33014 99.9758 6.46948 100.016 6.58905 100.093C6.70861 100.17 6.80324 100.28 6.86143 100.41C6.89417 100.468 6.92134 100.528 6.94257 100.591C8.25053 102.283 11.6389 103.349 11.6389 103.349C12.744 103.79 12.8901 104.457 12.8901 104.457Z" fill="#106FA4"/>
<path opacity="0.2" d="M4.50156 104.684C2.03817 104.598 0.0713623 104.457 0.0713623 104.457C-0.37328 102.235 1.40529 101.339 1.40529 101.339L5.55312 100.139C5.66251 100.173 5.77933 100.176 5.89034 100.147C6.00134 100.119 6.10208 100.06 6.18114 99.9766C6.32331 99.9758 6.46265 100.016 6.58221 100.093C6.70177 100.17 6.79641 100.28 6.85459 100.41L4.28897 101.79C2.5169 103.124 4.50156 104.684 4.50156 104.684Z" fill="black"/>
<path d="M63.1684 105.999L49.8389 105.609C49.7466 105.606 49.6578 105.573 49.5865 105.514C49.5152 105.456 49.4653 105.375 49.4446 105.285C49.4134 105.16 49.4046 105.03 49.4186 104.902C49.5435 103.836 51.4292 103.791 51.4292 103.791C52.9855 103.569 55.6484 101.791 55.6484 101.791C55.6484 101.791 56.9353 100.827 58.3163 100.462C58.9232 100.3 59.5496 100.253 60.1014 100.462L60.3237 100.559C60.9063 100.806 62.4787 101.416 63.1652 101.142C63.652 101.851 63.6764 104.435 63.6666 105.522C63.6654 105.586 63.6514 105.649 63.6257 105.708C63.6 105.766 63.5629 105.819 63.5166 105.864C63.4703 105.908 63.4157 105.943 63.356 105.966C63.2962 105.989 63.2325 106 63.1684 105.999Z" fill="#2F2E41"/>
<path opacity="0.2" d="M63.1684 105.999L49.8389 105.609C49.7466 105.606 49.6578 105.573 49.5865 105.514C49.5152 105.455 49.4653 105.375 49.4446 105.285C49.4134 105.16 49.4046 105.03 49.4186 104.902H54.4021C54.884 104.898 55.3626 104.822 55.8221 104.676C57.5909 104.128 60.2701 104.028 61.1448 104.016C61.3906 104.016 61.6338 103.967 61.8605 103.872C62.5096 103.591 62.5096 103.184 62.3781 102.877C62.2751 102.65 62.1054 102.458 61.8913 102.329C60.2977 101.278 60.0916 100.457 60.0916 100.457L60.3139 100.554C60.8965 100.801 62.469 101.411 63.1554 101.137C63.6423 101.846 63.6666 104.43 63.6569 105.517C63.6556 105.645 63.6035 105.768 63.512 105.858C63.4205 105.949 63.297 105.999 63.1684 105.999Z" fill="black"/>
<path d="M10.186 32.4501L15.2329 31.0469L17.62 33.8403L23.7136 58.4849C23.7136 58.4849 20.6627 59.6919 20.1434 59.6205C19.6241 59.5491 10.569 58.6682 10.569 58.6682L10.186 32.4501Z" fill="#E6E6E6" stroke="#FF0000" stroke-width="0.25" stroke-miterlimit="10"/>
<path d="M16.7457 67.5645L14.0778 78.2338C13.715 80.4349 13.1811 82.6044 12.481 84.7226C11.384 88.0909 10.0745 91.3862 8.56038 94.5889C8.53645 94.6436 8.5185 94.7007 8.50683 94.7592C8.06706 97.5316 7.72627 98.9396 7.54614 99.5691C7.51224 99.6917 7.44141 99.8009 7.34328 99.8818C7.24516 99.9628 7.12448 100.012 6.99764 100.022C6.51081 100.067 5.94446 100.168 5.72538 100.207C5.66408 100.219 5.60498 100.24 5.55012 100.27C4.41417 100.872 2.44899 101.045 1.4169 101.094C1.33007 101.097 1.24361 101.082 1.16295 101.049C1.08229 101.017 1.00917 100.968 0.948204 100.907C0.887236 100.845 0.839734 100.771 0.808684 100.69C0.777634 100.609 0.763708 100.522 0.767783 100.435C0.779142 100.182 0.793747 99.9292 0.808352 99.6777C1.31791 91.312 4.30382 83.5562 4.30382 83.5562C4.69978 81.483 5.13794 80.2421 5.50468 79.5007C6.05923 78.3638 6.37197 77.1243 6.42318 75.8605L6.77208 68.1225C6.77208 68.1225 13.2859 65.4232 15.2414 63.9307C15.2333 63.9453 17.4127 62.8974 16.7457 67.5645Z" fill="#2F2E41"/>
<path d="M23.6605 65.2812L23.4155 79.5664C23.4155 85.1225 22.5489 85.5978 22.5489 85.5978C21.8998 87.6321 22.5262 98.0126 22.5262 98.0126C22.5514 98.2763 22.5552 98.5415 22.5376 98.8058C22.5376 98.8058 17.8591 98.6793 16.9698 95.1234C16.9698 95.1234 15.8809 93.3147 16.4245 89.2186C16.4245 89.2186 16.0805 85.1793 15.4135 83.7031C15.0843 81.0106 15.4318 78.2787 16.4245 75.7542C16.4245 75.7542 19.3212 65.5213 23.6605 65.2812Z" fill="#2F2E41"/>
<path d="M16.4225 75.7566C15.4298 78.281 15.0823 81.013 15.4115 83.7054C16.0784 85.1784 16.4225 89.221 16.4225 89.221C15.8788 93.317 16.9677 95.1258 16.9677 95.1258C17.857 98.6817 22.5355 98.8082 22.5355 98.8082C22.4511 99.874 21.9286 99.9811 21.5618 99.9162C21.4327 99.8934 21.3079 99.8507 21.1918 99.7896C18.9686 98.9007 17.6347 100.901 17.6347 100.901C17.5625 100.939 17.4883 100.972 17.4124 101.001C16.1709 101.488 15.9681 100.328 15.9859 99.4182C15.9949 98.6833 15.9363 97.9491 15.8107 97.2249C15.3628 94.5175 15.233 90.0434 15.233 90.0434C15.0561 83.188 14.0776 78.2337 14.0776 78.2337L16.7454 67.5644C17.4124 62.8973 15.233 63.9453 15.233 63.9453C13.2775 65.4377 6.76367 68.1371 6.76367 68.1371L6.87402 65.6567L15.4066 56.7703C18.2952 58.4233 23.196 56.0078 23.196 56.0078L23.7169 62.1073L23.6633 65.282C19.3208 65.5221 16.4225 75.7566 16.4225 75.7566Z" fill="#2F2E41"/>
<path opacity="0.2" d="M16.4225 75.7566C15.4298 78.281 15.0823 81.013 15.4115 83.7054C16.0784 85.1784 16.4225 89.221 16.4225 89.221C15.8788 93.317 16.9677 95.1258 16.9677 95.1258C17.857 98.6817 22.5355 98.8082 22.5355 98.8082C22.4511 99.874 21.9286 99.9811 21.5618 99.9162C21.4327 99.8934 21.3079 99.8507 21.1918 99.7896C18.9686 98.9007 17.6347 100.901 17.6347 100.901C17.5625 100.939 17.4883 100.972 17.4124 101.001C16.1709 101.488 15.9681 100.328 15.9859 99.4182C15.9949 98.6833 15.9363 97.9491 15.8107 97.2249C15.3628 94.5175 15.233 90.0434 15.233 90.0434C15.0561 83.188 14.0776 78.2337 14.0776 78.2337L16.7454 67.5644C17.4124 62.8973 15.233 63.9453 15.233 63.9453C13.2775 65.4377 6.76367 68.1371 6.76367 68.1371L6.87402 65.6567L15.4066 56.7703C18.2952 58.4233 23.196 56.0078 23.196 56.0078L23.7169 62.1073L23.6633 65.282C19.3208 65.5221 16.4225 75.7566 16.4225 75.7566Z" fill="black"/>
<path d="M9.60505 26.8535C9.60505 26.8535 9.63101 28.2275 9.40869 28.672C9.40869 28.672 10.6615 29.2674 10.9244 27.5251L10.84 27.3467C10.84 27.3467 10.4684 27.7036 9.60505 26.8535Z" fill="#2F2E41"/>
<path d="M10.9244 27.5254C10.9244 27.5254 11.4112 29.9928 10.186 31.2208C10.186 31.2208 11.1873 32.4504 11.6319 33.3394C11.6319 33.3394 16.523 34.6728 15.4114 31.7837L15.0284 30.2085C15.0284 30.2085 12.6624 31.0456 10.9244 27.5254Z" fill="#F9B499"/>
<path d="M10.9248 27.5254C10.9248 27.5254 11.1066 28.2846 10.9248 29.7008C10.9248 29.7008 13.3135 31.0764 15.0288 30.2085C15.0288 30.2085 12.6628 31.0456 10.9248 27.5254Z" fill="#F7A48B"/>
<path d="M15.4115 56.4517C15.4115 59.2695 14.8273 61.2486 13.9347 62.6291C11.103 67.0091 5.1847 65.3415 5.1847 65.3415V48.6732L3.18381 40.228C2.2572 35.0369 4.26458 33.7132 4.96076 33.4147C5.23954 33.2932 5.51052 33.1545 5.77215 32.9995L6.78639 32.4122L7.14989 32.2013L7.68216 31.8915C8.19994 31.6063 8.68342 31.2628 9.12319 30.8679C9.74634 30.279 10.1942 31.2183 10.1942 31.2183C10.7508 31.7682 11.6401 33.3369 11.6401 33.3369C11.9889 33.9499 12.2936 34.5868 12.5521 35.243C13.8017 38.3349 14.5839 42.3807 14.9506 44.5983C15.1129 45.5975 15.1973 46.2205 15.1973 46.2205L15.4115 56.4517Z" fill="#106FA4"/>
<path d="M25.7193 62.107C25.7193 62.107 22.3017 63.786 21.6364 57.7854C21.6364 57.7854 20.7033 51.6567 20.0753 47.6515C19.8935 46.4851 19.7361 45.4972 19.6355 44.8937C19.6355 44.8937 19.0562 42.2528 18.2578 39.3247C18.1312 38.8575 17.9965 38.3822 17.8618 37.9101C17.1397 35.4038 16.3023 32.964 15.5753 32.0182L15.2329 31.0449C15.2329 31.0449 16.5944 31.3077 18.8241 32.8537C18.9442 32.9364 19.0659 33.0159 19.1909 33.1149C19.952 33.5093 20.61 34.0767 21.1119 34.7714C21.6138 35.4662 21.9458 36.269 22.0811 37.1152C22.0811 37.1152 22.6377 38.5947 23.2284 40.9063C23.2657 41.054 23.3046 41.2048 23.342 41.3606V41.3687C23.9393 43.7647 24.335 46.2066 24.525 48.6686L25.7193 62.107Z" fill="#106FA4"/>
<path opacity="0.2" d="M15.4117 56.4526C15.4117 59.2704 14.8275 61.2495 13.935 62.63C13.7922 59.2493 9.8553 54.0079 9.8553 54.0079C7.18582 50.6743 6.07422 44.007 6.07422 44.007L12.5215 41.3401C11.4099 36.2285 6.77851 32.4179 6.77851 32.4179L7.14201 32.207L12.5443 35.2487C13.7938 38.3406 14.576 42.3864 14.9427 44.604C15.105 45.6032 15.1894 46.2262 15.1894 46.2262L15.4117 56.4526Z" fill="black"/>
<path opacity="0.2" d="M6.44873 44.5996C6.44873 44.5996 8.75957 50.9944 11.1045 51.919C11.3667 52.0141 11.624 52.1224 11.8753 52.2435L14.6876 53.7035L11.3966 52.5566C11.2343 52.4982 11.0623 52.4462 10.8919 52.3943C10.6047 52.3116 9.94258 52.0472 9.25777 51.2783C8.84666 50.8068 8.52743 50.2627 8.31655 49.6739L6.44873 44.5996Z" fill="black"/>
<path opacity="0.2" d="M25.7198 62.1068C25.7198 62.1068 22.3022 63.7858 21.6369 57.7853C21.6369 57.7853 20.7038 51.6566 20.0758 47.6513C19.894 46.485 19.7366 45.497 19.636 44.8936C19.636 44.8936 19.0567 42.2526 18.2583 39.3245C18.1317 38.8573 17.997 38.382 17.8623 37.9099L18.8246 32.8535C18.8246 32.8535 20.5058 41.9379 20.7363 47.8622C20.7363 47.8622 21.0137 50.9249 22.0864 51.8496C22.1868 51.9358 22.3082 51.9939 22.4383 52.018C22.5683 52.0421 22.7025 52.0314 22.8271 51.9869C22.9517 51.9424 23.0623 51.8658 23.1477 51.7647C23.2331 51.6637 23.2902 51.5418 23.3132 51.4116C23.5664 49.9759 24.0678 46.0583 23.1931 40.8461C23.1931 40.8461 23.2045 40.8672 23.2288 40.9062C23.2662 41.0538 23.3051 41.2047 23.3424 41.3604V41.3685C23.9397 43.7646 24.3355 46.2064 24.5254 48.6684L25.7198 62.1068Z" fill="black"/>
<path opacity="0.2" d="M12.4776 84.7344C11.3806 88.1026 10.071 91.398 8.55697 94.6007C8.53303 94.6553 8.51508 94.7125 8.50341 94.771C8.06364 97.5433 7.72286 98.9514 7.54273 99.5808C7.50882 99.7034 7.43799 99.8126 7.33987 99.8936C7.24174 99.9746 7.12107 100.023 6.99423 100.033C6.50739 100.079 5.94104 100.179 5.72197 100.218C5.66066 100.23 5.60156 100.252 5.5467 100.282C4.41076 100.883 2.44557 101.057 1.41348 101.106C1.32665 101.109 1.24019 101.093 1.15953 101.061C1.07887 101.029 1.00576 100.98 0.944789 100.918C0.883821 100.857 0.836317 100.783 0.805266 100.702C0.774216 100.62 0.76029 100.534 0.764365 100.447C0.775724 100.194 0.790329 99.941 0.804934 99.6895C5.98161 100.254 7.85755 94.0118 7.85755 94.0118L12.4776 84.7344Z" fill="black"/>
<path d="M28.8917 104.244C27.0385 104.608 23.4262 104.569 20.51 104.471C18.0466 104.385 16.0782 104.244 16.0782 104.244C15.6336 102.022 17.4121 101.126 17.4121 101.126L21.5616 99.9259C21.6707 99.9601 21.7873 99.963 21.898 99.9344C22.0087 99.9057 22.1092 99.8466 22.188 99.7637C22.3302 99.7625 22.4697 99.8028 22.5894 99.8798C22.709 99.9567 22.8036 100.067 22.8614 100.197C22.895 100.254 22.9228 100.315 22.9442 100.379C24.2505 102.07 27.6389 103.136 27.6389 103.136C28.7505 103.569 28.8917 104.244 28.8917 104.244Z" fill="#106FA4"/>
<path opacity="0.2" d="M20.5169 104.464C18.0535 104.378 16.085 104.236 16.085 104.236C15.6404 102.014 17.419 101.119 17.419 101.119L21.5684 99.9181C21.6776 99.9523 21.7941 99.9552 21.9048 99.9266C22.0155 99.8979 22.116 99.8388 22.1948 99.7559C22.3371 99.7547 22.4766 99.795 22.5962 99.8719C22.7159 99.9489 22.8104 100.059 22.8683 100.189L20.3091 101.566C18.5241 102.903 20.5169 104.464 20.5169 104.464Z" fill="black"/>
<path d="M28.8924 104.244C28.8096 105.355 27.8684 105.355 27.8684 105.355H17.6351C15.8501 105.355 16.0789 104.244 16.0789 104.244C16.0789 104.244 18.0473 104.385 20.5107 104.471C23.4268 104.569 27.0391 104.599 28.8924 104.244Z" fill="#2F2E41"/>
<path d="M12.8899 104.459C12.8088 105.57 11.8675 105.57 11.8675 105.57H1.62779C-0.157272 105.57 0.0715386 104.459 0.0715386 104.459C0.0715386 104.459 2.03835 104.6 4.50173 104.686C7.4195 104.79 11.0318 104.822 12.8899 104.459Z" fill="#2F2E41"/>
<path d="M20.625 56.007L21.7902 56.3801C23.7213 56.9738 24.9091 56.3801 24.9091 56.3801C26.1814 57.1912 26.9814 56.007 26.9814 56.007C28.3235 56.6737 28.3965 55.9664 28.3511 55.5706C28.3415 55.502 28.3156 55.4367 28.2755 55.3802C28.2354 55.3238 28.1823 55.2778 28.1206 55.2462C27.4251 54.8837 26.808 54.3876 26.3047 53.7862C25.4155 53.1194 25.7189 51.8184 25.7189 51.8184C26.2431 50.0729 25.7189 49.9805 25.7189 49.9805L23.4146 52.2305C22.5253 52.8972 20.9203 52.6003 20.9203 52.6003L20.7467 55.5641C20.728 55.7169 20.687 55.8661 20.625 56.007Z" fill="#F9B499"/>
<path d="M20.9203 52.5996L21.5873 52.6629C21.5873 52.6629 21.4477 55.6964 22.3208 56.5189C21.7474 56.3769 21.1814 56.2064 20.625 56.0079C20.6973 55.8703 20.7388 55.7186 20.7467 55.5634L20.9203 52.5996Z" fill="#F7A48B"/>
<path d="M24.4922 56.0063C24.5968 56.0014 24.6991 56.0378 24.7771 56.1076C24.8551 56.1773 24.9025 56.275 24.9092 56.3794C24.8047 56.3843 24.7024 56.3479 24.6244 56.2781C24.5463 56.2084 24.4989 56.1107 24.4922 56.0063Z" fill="#F7A48B"/>
<path d="M25.8604 55.3398C26.1569 55.4775 26.4381 55.6461 26.6993 55.8427C26.7888 55.9046 26.8832 55.9589 26.9817 56.005C26.8673 56.0455 26.7424 56.0455 26.6279 56.005C26.4628 55.9509 26.31 55.8647 26.1783 55.7514C26.0465 55.6381 25.9385 55.4999 25.8604 55.3447V55.3398Z" fill="#F7A48B"/>
<path d="M30.752 54.0066C29.6404 54.8956 28.1198 55.2443 28.1198 55.2443C26.8216 54.4803 26.3055 53.7844 26.3055 53.7844C25.6386 53.3399 25.6694 52.266 25.6694 52.266C25.0625 52.1037 24.6957 51.8555 24.4945 51.6171C24.3076 51.4229 24.1974 51.1676 24.1846 50.8984H30.0915C29.8627 52.4509 30.752 54.0066 30.752 54.0066Z" fill="#F9B499"/>
<path d="M30.7521 54.0066C29.6405 54.8956 28.1199 55.2443 28.1199 55.2443C26.8217 54.4803 26.3057 53.7844 26.3057 53.7844C25.6387 53.3399 25.6695 52.266 25.6695 52.266C25.0626 52.1037 24.6959 51.8555 24.4946 51.6171C24.4946 51.6171 28.0842 53.5637 29.2007 52.4541C29.6174 52.0142 29.9223 51.4807 30.09 50.8984C29.8628 52.4509 30.7521 54.0066 30.7521 54.0066Z" fill="#F7A48B"/>
<path d="M62.101 49.1179L59.1086 53.0712L57.21 55.5775L55.876 57.3392C55.876 57.3392 55.2091 58.2282 53.6528 56.6725C53.2898 56.394 52.9765 56.0562 52.7262 55.6732C52.4877 55.2758 52.3903 54.8232 52.7636 54.4501L53.4305 53.5611C53.4305 53.5611 48.5394 53.5611 46.9832 52.4499C46.9832 52.4499 45.4448 52.9641 44.8022 52.5278C44.5977 52.3899 44.4776 52.1563 44.5377 51.7832C44.5627 51.1119 44.637 50.4434 44.76 49.783C44.6886 49.8625 42.6504 52.1027 35.0428 53.4297H35.0022C33.7445 53.6471 32.3343 53.8401 30.7554 53.9959C30.7554 53.9959 29.8661 52.8846 30.0884 50.8845C30.0884 50.8845 29.6762 49.942 31.9952 49.9695C31.9952 49.9695 38.7606 48.662 41.6507 43.5504L44.1758 39.8486C44.6732 39.1189 44.9923 38.2826 45.1073 37.4071C45.289 36.0412 45.7239 33.9161 46.7219 32.8958C46.8026 32.8093 46.8912 32.7306 46.9864 32.6605C47.2385 32.2316 47.4614 31.7861 47.6534 31.3271C47.7774 31.0112 47.9905 30.7381 48.2667 30.5408C48.543 30.3436 48.8705 30.2307 49.2097 30.2159C49.2097 30.2159 49.0003 31.4601 48.3869 32.3442C48.3792 32.3537 48.3727 32.364 48.3674 32.375C48.7505 31.9099 49.2152 31.5185 49.7387 31.22C50.2584 30.9179 50.8354 30.7273 51.4329 30.6604C51.4329 30.6604 53.8784 30.2159 54.5454 29.7714C54.5454 29.7714 55.2123 29.3269 55.8793 30.4381C55.8793 30.4381 56.2525 30.9361 56.629 31.4666C56.7524 31.645 56.8789 31.8267 56.9909 31.9938C56.9909 31.9938 57.8802 33.105 58.9918 36.2116C58.9918 36.2116 59.6587 37.996 61.215 40.8787L63.0001 44.4346C63.0001 44.4346 64.3324 46.0065 62.101 49.1179Z" fill="#2F2E41"/>
<path opacity="0.2" d="M44.7592 49.7834C44.6878 49.8628 42.6496 52.1031 35.042 53.4301C41.9275 52.1518 44.9848 38.668 44.9848 38.668C44.8014 42.5029 44.7641 44.9946 44.7625 46.4546V49.7882L44.7592 49.7834Z" fill="black"/>
<path opacity="0.2" d="M56.9871 32.0055C54.3193 31.5611 51.4291 33.5612 51.4291 33.5612C49.4574 35.3538 49.2189 33.9116 49.201 33.2855C49.2005 33.178 49.1698 33.0728 49.1124 32.9819C49.055 32.891 48.9733 32.818 48.8765 32.7712C47.0817 31.9601 46.0901 42.2287 46.0901 42.2287C45.6455 40.0063 46.7149 34.8298 46.7149 34.8298C46.8286 34.1941 46.8286 33.5432 46.7149 32.9075C46.7956 32.8211 46.8841 32.7423 46.9794 32.6723C47.2315 32.2433 47.4543 31.7978 47.6464 31.3388C47.7704 31.0229 47.9835 30.7498 48.2597 30.5526C48.5359 30.3553 48.8635 30.2424 49.2026 30.2276C49.2026 30.2276 48.9933 31.4718 48.3799 32.3559C48.3722 32.3654 48.3656 32.3757 48.3604 32.3868C48.7435 31.9216 49.2081 31.5302 49.7317 31.2317C50.2514 30.9296 50.8284 30.739 51.4258 30.6721C51.4258 30.6721 53.8714 30.2276 54.5383 29.7831C54.5383 29.7831 55.2053 29.3386 55.8723 30.4498C55.8723 30.4498 56.2455 30.9479 56.622 31.4783C56.7486 31.6568 56.8751 31.8385 56.9871 32.0055Z" fill="black"/>
<path opacity="0.2" d="M56.4001 47.5904C56.1807 48.0834 56.0053 48.5947 55.876 49.1185L53.4304 53.5634C53.4304 53.5634 48.5394 53.5634 46.9831 52.4522C46.9831 52.4522 44.3153 53.3412 44.5376 51.7855C44.5376 51.7855 48.0168 50.9435 48.9856 49.31C49.1236 49.0631 49.1645 48.7736 49.1003 48.4982C49.0361 48.2227 48.8714 47.9812 48.6383 47.8208C48.1061 47.4444 47.5981 46.8961 49.2063 46.8961C49.2063 46.8961 52.4649 47.7202 53.1708 44.3006C53.1708 44.3006 53.7988 41.2703 53.1708 39.6367C53.2568 39.7714 56.048 44.0816 56.6241 45.2528C56.6257 45.2609 57.5896 45.8449 56.4001 47.5904Z" fill="black"/>
<path opacity="0.2" d="M59.1064 53.0742L55.8754 57.3406C55.8754 57.3406 55.2084 58.2296 53.6522 56.6739C53.2892 56.3954 52.9759 56.0576 52.7256 55.6746C52.7256 55.6746 56.557 55.467 59.1064 53.0742Z" fill="black"/>
<path d="M63.4346 100.902C63.3775 101.012 63.2806 101.096 63.1636 101.137C62.4772 101.411 60.9047 100.801 60.3221 100.555L60.0998 100.457C58.7659 99.5683 58.3147 100.013 58.3147 100.013C56.0915 100.902 56.3138 99.2811 56.3138 99.2811V94.4567C54.9799 90.6786 52.7567 87.3449 52.7567 87.3449C52.7567 91.3453 51.8674 92.6236 51.8674 92.6236V100.897C51.8544 100.92 51.8398 100.939 51.8268 100.962C51.686 101.193 51.523 101.411 51.34 101.611C50.9791 102.037 50.471 102.311 49.9168 102.38C48.4726 102.529 47.0396 101.057 46.3289 100.186C46.0351 99.8262 45.8647 99.5699 45.8647 99.5699L45.6424 91.1247C44.7531 84.9019 44.5162 66.5109 44.5162 66.5109C44.2809 60.1226 44.7953 58.0754 44.7953 58.0754V52.529C45.4444 52.9654 46.9763 52.4512 46.9763 52.4512C48.5326 53.5624 53.4237 53.5624 53.4237 53.5624L52.7567 54.4514C52.3835 54.8245 52.4808 55.2771 52.7194 55.6745C52.9697 56.0575 53.283 56.3953 53.646 56.6738C55.2022 58.2295 55.8692 57.3405 55.8692 57.3405L57.2096 55.5772C57.4095 56.1751 57.5402 56.7939 57.5991 57.4216C57.8457 59.8046 57.2469 62.1049 57.2469 62.1049C56.3934 66.6471 57.2096 72.453 57.2096 72.453C57.622 73.8998 57.8462 75.3938 57.8766 76.8979C57.8766 78.6823 58.3212 78.8981 58.3212 78.8981C59.1333 80.1603 59.5937 81.6163 59.6551 83.1158L60.0998 84.4493C62.5469 91.3453 63.4346 100.902 63.4346 100.902Z" fill="#FDB415"/>
<path opacity="0.2" d="M57.599 57.4232C55.7669 57.725 54.9393 60.1988 54.9393 60.1988C50.2235 60.6125 49.6506 57.785 49.6506 57.785C48.7013 55.5723 46.1795 54.7028 44.8018 54.3946V52.529C45.4509 52.9654 46.9828 52.4512 46.9828 52.4512C48.539 53.5624 53.4301 53.5624 53.4301 53.5624L52.7631 54.4514C52.3899 54.8245 52.4873 55.2771 52.7258 55.6745C52.9761 56.0575 53.2894 56.3953 53.6524 56.6738C55.2087 58.2295 55.8756 57.3405 55.8756 57.3405L57.2095 55.5772C57.4096 56.1756 57.5403 56.795 57.599 57.4232Z" fill="black"/>
<path opacity="0.2" d="M52 87.319C52 91.3072 51.1693 92.5816 51.1693 92.5816V97C50.5462 95.3827 48.2617 88.4284 48.2617 88.4284C46.1849 82.4445 46 63 46 63C46.3896 63.8426 48.5543 73.9425 49.0091 76.0708C49.0652 76.3328 49.1031 76.5964 49.1379 76.8617C50.1309 84.4354 52 87.319 52 87.319Z" fill="black"/>
<path d="M60.1 100.458C59.5547 100.253 58.9284 100.295 58.3149 100.458V100.01C58.3149 100.01 58.7661 99.5686 60.1 100.458Z" fill="#F9B499"/>
<path d="M51.5669 106L37.8674 105.568C37.7914 105.477 37.7343 105.372 37.6995 105.259C37.6647 105.145 37.6528 105.026 37.6646 104.908C37.7084 104.608 37.9729 104.259 38.8005 104.008C39.598 103.771 40.369 103.453 41.1016 103.059L46.3351 100.188C47.0459 101.059 48.4788 102.53 49.9231 102.381C50.4773 102.312 50.9854 102.038 51.3462 101.612C51.3592 101.725 51.7049 105.111 51.5669 106Z" fill="#2F2E41"/>
<path opacity="0.2" d="M51.5669 106.001L37.8674 105.57C37.7914 105.478 37.7343 105.373 37.6995 105.26C37.6647 105.146 37.6528 105.027 37.6646 104.909C39.5519 104.924 46.7018 104.807 49.9231 102.38C50.4773 102.312 50.9854 102.037 51.3462 101.611C51.3592 101.727 51.7049 105.112 51.5669 106.001Z" fill="black"/>
<path d="M54.5414 29.7851C54.1097 30.0738 52.93 30.361 52.1527 30.5264C51.7307 30.6173 51.4289 30.6741 51.4289 30.6741C50.224 30.8201 49.1245 31.4329 48.3667 32.3806C48.7793 31.7222 49.064 30.9919 49.2057 30.2279C49.428 30.0057 49.4653 28.729 49.4653 28.729L52.0958 25.1164L53.4914 24.6719L54.2704 26.7807L54.5041 27.4134L54.5414 29.7851Z" fill="#F9B499"/>
<path d="M49.4665 28.7268C49.4665 28.7268 49.5525 28.9377 49.3789 29.7001C49.898 29.4869 50.3577 29.1513 50.7188 28.7219C51.08 28.2925 51.3318 27.7822 51.4528 27.2344C51.4528 27.2344 50.5392 28.4478 49.4665 28.7268Z" fill="#F7A48B"/>
<path d="M54.5421 29.7833C54.1104 30.0721 52.9306 30.3592 52.1533 30.5247C52.3627 30.2489 53.0864 29.8288 53.4304 29.6373C53.598 29.548 53.7489 29.4305 53.8767 29.2902C54.3489 28.7532 53.9579 28.4629 53.9579 28.4629C53.3704 28.0297 53.2763 26.9493 53.2763 26.9493L54.271 26.7871L54.5047 27.4198L54.5421 29.7833Z" fill="#F7A48B"/>
<path d="M14.9423 44.6002C12.2988 36.228 7.1416 32.2033 7.1416 32.2033L7.67387 31.8934C8.19165 31.6082 8.67513 31.2648 9.11491 30.8698C9.73805 30.281 10.1859 31.2202 10.1859 31.2202C10.7426 31.7701 11.6318 33.3388 11.6318 33.3388C13.4201 36.4259 14.4928 41.8846 14.9423 44.6002Z" fill="#0071F2"/>
<path opacity="0.3" d="M14.9423 44.6002C12.2988 36.228 7.1416 32.2033 7.1416 32.2033L7.67387 31.8934C8.19165 31.6082 8.67513 31.2648 9.11491 30.8698C9.73805 30.281 10.1859 31.2202 10.1859 31.2202C10.7426 31.7701 11.6318 33.3388 11.6318 33.3388C13.4201 36.4259 14.4928 41.8846 14.9423 44.6002Z" fill="white"/>
<path d="M20.0755 47.6515C19.8937 46.4851 19.7363 45.4972 19.6357 44.8937C19.6357 44.8937 17.2973 34.2569 15.5787 32.0182L15.2363 31.0449C15.2363 31.0449 16.5978 31.3077 18.8275 32.8537C18.8243 32.8553 20.5169 43.0752 20.0755 47.6515Z" fill="#0071F2"/>
<path opacity="0.3" d="M20.0755 47.6515C19.8937 46.4851 19.7363 45.4972 19.6357 44.8937C19.6357 44.8937 17.2973 34.2569 15.5787 32.0182L15.2363 31.0449C15.2363 31.0449 16.5978 31.3077 18.8275 32.8537C18.8243 32.8553 20.5169 43.0752 20.0755 47.6515Z" fill="white"/>
<path d="M6.07422 43.6329C6.07422 43.6329 8.96439 51.5622 11.4099 52.0067L17.6917 55.2609C17.6917 55.2609 20.5251 57.5628 20.7474 55.5626L20.9697 52.0083C20.9697 52.0083 17.1416 50.1477 14.9427 48.6342C14.9427 48.6342 14.1995 47.6365 13.4822 48.0161C13.4753 48.0205 13.467 48.0225 13.4588 48.0215C13.4506 48.0206 13.443 48.0168 13.4373 48.0109C13.4315 48.005 13.428 47.9972 13.4273 47.989C13.4267 47.9808 13.4289 47.9726 13.4335 47.9658C13.6591 47.6414 14.0194 46.9568 13.7581 46.1814C13.7581 46.1814 11.9341 40.9092 11.8886 39.3438" fill="#106FA4"/>
<path d="M12.1553 40.8483C12.5837 42.1201 13.0202 43.546 13.4259 44.8341C13.5687 45.2753 13.7067 45.7182 13.8689 46.1497C13.9862 46.4618 13.9976 46.8038 13.9014 47.123C13.8137 47.4326 13.6791 47.7269 13.5022 47.9957L13.4194 47.8919C14.0312 47.7443 14.6251 48.1255 14.9432 48.6268C14.5959 48.2001 14.0215 47.8692 13.4632 48.0266L13.301 48.0769C13.5525 47.6389 13.7878 47.1522 13.7699 46.638C13.7679 46.4933 13.7353 46.3506 13.6742 46.2194C13.0528 44.4618 12.547 42.6654 12.1601 40.8418L12.1553 40.8483Z" fill="#0071F2"/>
<path opacity="0.3" d="M12.1553 40.8483C12.5837 42.1201 13.0202 43.546 13.4259 44.8341C13.5687 45.2753 13.7067 45.7182 13.8689 46.1497C13.9862 46.4618 13.9976 46.8038 13.9014 47.123C13.8137 47.4326 13.6791 47.7269 13.5022 47.9957L13.4194 47.8919C14.0312 47.7443 14.6251 48.1255 14.9432 48.6268C14.5959 48.2001 14.0215 47.8692 13.4632 48.0266L13.301 48.0769C13.5525 47.6389 13.7878 47.1522 13.7699 46.638C13.7679 46.4933 13.7353 46.3506 13.6742 46.2194C13.0528 44.4618 12.547 42.6654 12.1601 40.8418L12.1553 40.8483Z" fill="black"/>
<path d="M14.8544 30.247C16.7799 29.8571 17.8556 27.1465 17.2571 24.1926C16.6586 21.2387 14.6125 19.1601 12.687 19.55C10.7616 19.9398 9.68587 22.6505 10.2844 25.6044C10.8829 28.5583 12.929 30.6368 14.8544 30.247Z" fill="#F9B499"/>
<path d="M9.37519 25.4226C9.37519 25.4226 7.40838 23.5603 8.96463 21.7823C8.96463 21.7823 8.87862 21.3379 8.36582 21.7823C8.36582 21.7823 8.29767 20.8934 9.63159 21.3378C9.63159 21.3378 9.40927 19.5534 11.4167 18.8932C11.4167 18.8932 10.972 19.5599 11.8613 19.3377C11.8613 19.3377 14.2565 18.0594 15.9345 18.2119C16.1656 18.2324 16.3875 18.3122 16.5788 18.4435C16.7701 18.5748 16.9243 18.7531 17.0266 18.9613C17.5053 19.9346 18.2875 21.977 16.5706 22.1798C16.3173 21.7384 16.0377 21.3126 15.7333 20.9047C15.7333 20.9047 16.0757 22.1863 12.2637 22.2252C12.1746 22.2247 12.0864 22.2429 12.0047 22.2787C11.9231 22.3145 11.8499 22.367 11.7899 22.4328C11.6455 22.5951 11.5238 22.8789 11.639 23.338C11.639 23.338 11.8613 24.0048 11.1943 24.227C11.1943 24.227 11.5595 25.8963 11.1554 26.4981L9.37519 25.4226Z" fill="#2F2E41"/>
<path d="M10.9995 27.2569C11.3213 26.9715 11.2188 26.3305 10.7704 25.8251C10.322 25.3197 9.69757 25.1413 9.37572 25.4267C9.05388 25.712 9.15646 26.3531 9.60485 26.8585C10.0532 27.3638 10.6776 27.5422 10.9995 27.2569Z" fill="#F9B499"/>
<path d="M56.6253 31.4783C53.8163 31.1733 51.2069 33.2125 51.2069 33.2125C49.4218 34.6416 49.735 33.2125 49.735 33.2125V31.2317C50.2547 30.9296 50.8317 30.739 51.4292 30.6721C51.4292 30.6721 53.8747 30.2276 54.5417 29.7831C54.5417 29.7831 55.2086 29.3386 55.8756 30.4498C55.8756 30.4498 56.2489 30.9479 56.6253 31.4783Z" fill="#FAFAFA"/>
<path d="M49.2065 30.2266C49.2065 30.2266 48.9972 31.4708 48.3837 32.3549C48.376 32.3644 48.3695 32.3747 48.3643 32.3857L48.3464 32.4101C48.3464 32.4101 47.3435 33.3623 46.7236 32.9065C46.8043 32.82 46.8929 32.7413 46.9881 32.6712C47.2402 32.2423 47.4631 31.7968 47.6551 31.3378C47.7788 31.0226 47.9911 30.75 48.2664 30.5528C48.5417 30.3556 48.8682 30.2423 49.2065 30.2266Z" fill="#FAFAFA"/>
<path d="M52.6803 24.7295C53.4444 22.0192 52.6702 19.4294 50.9509 18.945C49.2317 18.4606 47.2185 20.2651 46.4544 22.9754C45.6903 25.6857 46.4645 28.2755 48.1837 28.7599C49.903 29.2442 51.9161 27.4398 52.6803 24.7295Z" fill="#F9B499"/>
<path d="M56.6255 22.0149C56.5339 23.4444 56.2824 24.8591 55.8758 26.2326V27.7883C55.8758 27.7883 55.2088 28.4551 54.7641 27.3438C54.6796 27.377 54.5929 27.4041 54.5045 27.425C54.2497 27.485 53.8554 27.5304 53.5682 27.3276C53.3296 27.1654 53.156 26.841 53.1706 26.2472C53.1706 26.2472 52.7113 23.8139 52.5134 23.8026L51.4861 25.587C51.4861 25.587 50.5401 25.5724 50.9847 23.5722C50.9847 23.5722 51.4472 22.1868 51.1226 21.3287C51.0781 21.2207 51.0123 21.1228 50.9293 21.0407C50.8462 20.9585 50.7476 20.8939 50.6391 20.8505C50.5307 20.8071 50.4146 20.7858 50.2978 20.788C50.181 20.7902 50.0659 20.8157 49.9591 20.8631C49.5242 21.0416 48.7728 21.2314 48.1854 20.7398C48.0432 20.6198 47.9229 20.476 47.83 20.3148C47.83 20.3148 47.1355 21.147 46.9488 21.6937C46.9488 21.6937 46.1926 19.6237 47.3935 18.4493C47.4571 18.3881 47.5386 18.3487 47.6261 18.3367C47.7135 18.3248 47.8026 18.3409 47.8803 18.3828C48.2292 18.5677 48.9968 18.8159 50.2171 18.4184C50.3453 18.3763 50.4816 18.3244 50.6212 18.2676L50.6975 18.2368C50.6975 18.2368 52.7697 17.1239 53.8814 18.6812C53.8749 18.6715 56.9289 18.2465 56.6255 22.0149Z" fill="#2F2E41"/>
<path opacity="0.2" d="M47.1501 18.7246C47.1501 18.7246 46.2479 19.8001 46.9489 21.6803C46.9489 21.6803 47.2735 20.8059 47.5753 20.6275C47.5753 20.6275 46.8743 20.1132 47.1501 18.7246Z" fill="black"/>
<path opacity="0.2" d="M53.6527 25.5665C53.6527 25.5665 53.2681 26.8643 53.5683 27.3282C53.3298 27.166 53.1561 26.8416 53.1707 26.2478C53.1707 26.2478 52.7115 23.8145 52.5135 23.8032L51.4863 25.5876C51.4863 25.5876 50.5402 25.573 50.9848 23.5728C50.9848 23.5728 51.4473 22.1875 51.1228 21.3293C51.0782 21.2214 51.0125 21.1234 50.9294 21.0413C50.8464 20.9592 50.7477 20.8945 50.6393 20.8511C50.5308 20.8077 50.4148 20.7865 50.298 20.7886C50.1812 20.7908 50.066 20.8163 49.9592 20.8637C49.5243 21.0422 48.773 21.232 48.1855 20.7404C49.2808 20.6618 50.367 20.4859 51.4311 20.2148C51.4311 20.2148 51.9325 21.0259 51.6826 23.0764C51.6826 23.0764 51.6534 23.7967 52.5427 23.5744C52.5411 23.5598 54.0973 23.1154 53.6527 25.5665Z" fill="black"/>
<path opacity="0.2" d="M55.876 27.7833C55.876 27.7833 55.2091 28.45 54.7644 27.3388C54.6799 27.3719 54.5931 27.399 54.5048 27.4199C54.5048 27.4199 54.3198 25.7831 54.9916 24.6719C54.9867 24.6719 54.7579 28.0007 55.876 27.7833Z" fill="black"/>
<path d="M53.1902 25.1427C53.2987 24.4759 52.9937 23.8715 52.509 23.7926C52.0242 23.7138 51.5433 24.1904 51.4348 24.8572C51.3262 25.5239 51.6313 26.1284 52.116 26.2072C52.6008 26.286 53.0817 25.8094 53.1902 25.1427Z" fill="#F9B499"/>
<path d="M54.9388 57.5931L54.3189 60.0069C50.9841 60.0069 50.3561 58.4139 50.3561 58.4139L50.7585 57.0221C50.0192 57.195 49.2448 57.1384 48.5386 56.8599C48.4789 56.8382 48.4268 56.7995 48.3889 56.7486C48.351 56.6977 48.3289 56.6368 48.3252 56.5734C48.3216 56.51 48.3367 56.447 48.3685 56.3921C48.4004 56.3372 48.4476 56.2928 48.5045 56.2645C49.2201 55.8654 50.7585 55.674 50.7585 55.674C51.3804 55.7115 52.0021 55.5968 52.5695 55.3398C53.2641 56.6733 54.9388 57.5931 54.9388 57.5931Z" fill="#F9B499"/>
<path d="M54.9398 57.5937L54.3199 60.0076C50.9851 60.0076 50.3571 58.4146 50.3571 58.4146L50.7595 57.0227C50.0202 57.1956 49.2458 57.139 48.5396 56.8605C48.5396 56.8605 50.3911 57.1038 51.0208 56.6658C51.0208 56.6658 50.7628 58.4502 52.319 58.8964C52.319 58.8964 53.6805 59.237 53.7227 58.5719C53.7252 58.4826 53.7061 58.3939 53.6671 58.3135C53.6282 58.233 53.5704 58.1631 53.4988 58.1096C53.1028 57.7965 52.0918 56.8556 52.2005 55.4816C52.3294 55.4399 52.4556 55.3906 52.5787 55.334C53.2651 56.6739 54.9398 57.5937 54.9398 57.5937Z" fill="#F7A48B"/>
<path d="M21.5616 99.9181C20.3737 101.6 17.4121 101.119 17.4121 101.119V101C17.488 100.971 17.5623 100.937 17.6344 100.9C17.6344 100.9 18.9684 98.8993 21.1916 99.7883C21.3074 99.8505 21.4322 99.8943 21.5616 99.9181Z" fill="#F9B499"/>
<path d="M1.08225 101.025C1.08225 101.025 0.515899 101.791 1.62751 101.569C1.62751 101.569 4.03734 101.426 5.05482 100.498C5.05482 100.498 2.99064 101.15 1.08225 101.025Z" fill="#F9B499"/>
</svg>
