<svg width="110" height="88" viewBox="0 0 110 88" fill="none" xmlns="http://www.w3.org/2000/svg">
<path d="M43.5444 72.2572C41.2523 72.6749 30.5027 74.9367 32.6657 80.4037C32.9779 81.1619 33.4749 81.8304 34.1116 82.3484C36.8105 84.6072 46.4823 90.1364 74.5001 87.1207C76.087 86.9504 77.6799 86.8452 79.2758 86.8156C86.6584 86.6794 109.857 85.4322 109.264 75.1825C109.264 75.1825 108.956 69.4445 95.0565 71.2027L84.4851 70.5465C84.4851 70.5465 60.6508 68.7128 44.5955 72.044C44.2496 72.1225 43.8977 72.1936 43.5444 72.2572Z" fill="#106FA4"/>
<path d="M43.5444 72.2572C41.2523 72.6749 30.5027 74.9367 32.6657 80.4037C32.9779 81.1619 33.4749 81.8304 34.1116 82.3484C36.8105 84.6072 46.4823 90.1364 74.5001 87.1207C76.087 86.9504 77.6799 86.8452 79.2758 86.8156C86.6584 86.6794 109.857 85.4322 109.264 75.1825C109.264 75.1825 108.956 69.4445 95.0565 71.2027L84.4851 70.5465C84.4851 70.5465 60.6508 68.7128 44.5955 72.044C44.2496 72.1225 43.8977 72.1936 43.5444 72.2572Z" fill="#ADADAD"/>
<path d="M79.6794 24.0098H11.4736V29.2561H79.6794V24.0098Z" fill="#383838"/>
<path opacity="0.29" d="M29.9595 31.8008H14.501V47.2242H29.9595V31.8008Z" fill="#106FA4"/>
<path d="M92.1497 48.1758H91.3525V53.7405H92.1497V48.1758Z" fill="#999999"/>
<path d="M84.082 58.9232V75.5508H85.2162L85.8694 58.0938L84.082 58.9232Z" fill="#CCCCCC"/>
<path d="M91.0332 55.6509V72.9805H92.1689L92.7864 54.8555L91.0332 55.6509Z" fill="#CCCCCC"/>
<path d="M84.5781 57.7269L94.2202 53.4241L89.8675 52.6702L84.8424 50.5195L84.5781 57.7269Z" fill="#CCCCCC"/>
<path d="M82.7832 59.5262L94.2142 54.2192V53.4238L84.578 57.7266C84.578 57.7266 83.4572 58.9501 82.7832 59.5262Z" fill="#B3B3B3"/>
<path d="M88.3232 33.707H94.3416C94.5207 33.707 94.6925 33.778 94.8192 33.9044C94.9459 34.0308 95.017 34.2022 95.017 34.381V44.3596H88.3232V33.707Z" fill="#999999"/>
<path d="M79.6007 0H31.2344V20.6697H79.6007V0Z" fill="#106FA4"/>
<path opacity="0.3" d="M49.4024 5.72461H34.4219V15.4233H49.4024V5.72461Z" fill="white"/>
<g opacity="0.3">
<path d="M39.3534 12.8103C39.3324 12.8103 39.3116 12.8061 39.2923 12.7979C39.2729 12.7898 39.2553 12.7779 39.2406 12.7629L37.045 10.5767C37.0161 10.5469 37 10.5071 37 10.4657C37 10.4242 37.0161 10.3844 37.045 10.3546L39.2406 8.04988C39.2695 8.01924 39.3095 8.00132 39.3517 8.00007C39.3938 7.99882 39.4348 8.01434 39.4655 8.04321C39.4962 8.07208 39.5142 8.11195 39.5154 8.15403C39.5167 8.19611 39.5011 8.23697 39.4722 8.26761L37.3834 10.4612L39.4692 12.5348C39.4841 12.5496 39.4959 12.5671 39.504 12.5864C39.5121 12.6058 39.5163 12.6265 39.5163 12.6474C39.5163 12.6684 39.5121 12.6891 39.504 12.7084C39.4959 12.7277 39.4841 12.7453 39.4692 12.76C39.4543 12.7757 39.4363 12.7883 39.4165 12.7969C39.3966 12.8056 39.3751 12.8101 39.3534 12.8103Z" fill="white"/>
</g>
<g opacity="0.3">
<path d="M44.6057 12.9702C44.5848 12.9704 44.564 12.9665 44.5447 12.9586C44.5253 12.9507 44.5077 12.9391 44.4929 12.9243C44.478 12.9096 44.4662 12.892 44.4581 12.8727C44.45 12.8534 44.4459 12.8327 44.4459 12.8117C44.4459 12.7908 44.45 12.7701 44.4581 12.7508C44.4662 12.7314 44.478 12.7139 44.4929 12.6992L46.5712 10.6255L44.4973 8.42897C44.4805 8.41432 44.4669 8.39633 44.4575 8.37615C44.448 8.35597 44.4429 8.33403 44.4424 8.31176C44.4419 8.28948 44.4462 8.26735 44.4548 8.24679C44.4634 8.22623 44.4762 8.20769 44.4924 8.19235C44.5086 8.17702 44.5278 8.16523 44.5488 8.15774C44.5699 8.15025 44.5922 8.14723 44.6145 8.14887C44.6368 8.15051 44.6585 8.15677 44.6782 8.16726C44.6979 8.17774 44.7152 8.19222 44.7289 8.20975L46.9231 10.5145C46.9377 10.529 46.9493 10.5463 46.9572 10.5654C46.9652 10.5845 46.9692 10.6049 46.9692 10.6255C46.9692 10.6462 46.9652 10.6666 46.9572 10.6857C46.9493 10.7047 46.9377 10.722 46.9231 10.7366L44.7289 12.9243C44.7129 12.9403 44.6936 12.9527 44.6723 12.9606C44.6511 12.9685 44.6283 12.9718 44.6057 12.9702Z" fill="white"/>
</g>
<g opacity="0.3">
<path d="M41.1652 12.8116C41.1375 12.8124 41.1101 12.8061 41.0856 12.7932C41.061 12.7803 41.0403 12.7613 41.0254 12.738C41.0104 12.7147 41.0017 12.688 41.0002 12.6604C40.9987 12.6328 41.0044 12.6053 41.0167 12.5805L43.1456 8.40658C43.1553 8.3879 43.1687 8.37133 43.1848 8.3578C43.201 8.34427 43.2197 8.33405 43.2398 8.32772C43.2599 8.3214 43.2811 8.31909 43.3021 8.32093C43.3231 8.32276 43.3436 8.32872 43.3623 8.33844C43.381 8.34817 43.3976 8.36148 43.4112 8.37761C43.4248 8.39374 43.435 8.41238 43.4413 8.43246C43.4477 8.45254 43.45 8.47367 43.4482 8.49464C43.4463 8.51561 43.4404 8.53602 43.4306 8.55469L41.3062 12.7242C41.2931 12.7503 41.273 12.7723 41.2481 12.7877C41.2232 12.8031 41.1945 12.8114 41.1652 12.8116Z" fill="white"/>
</g>
<path d="M63.2242 11.1317H52.8666C52.8269 11.1279 52.7901 11.1094 52.7633 11.08C52.7365 11.0506 52.7217 11.0122 52.7217 10.9725C52.7217 10.9327 52.7365 10.8944 52.7633 10.8649C52.7901 10.8355 52.8269 10.8171 52.8666 10.8132H63.2242C63.2465 10.8111 63.2689 10.8136 63.2902 10.8206C63.3114 10.8277 63.3309 10.839 63.3474 10.854C63.364 10.869 63.3772 10.8873 63.3863 10.9077C63.3953 10.9281 63.4 10.9502 63.4 10.9725C63.4 10.9948 63.3953 11.0168 63.3863 11.0372C63.3772 11.0576 63.364 11.0759 63.3474 11.0909C63.3309 11.1059 63.3114 11.1173 63.2902 11.1243C63.2689 11.1313 63.2465 11.1338 63.2242 11.1317Z" fill="white"/>
<path d="M65.6158 13.0372H52.8666C52.8269 13.0334 52.7901 13.015 52.7633 12.9855C52.7365 12.9561 52.7217 12.9177 52.7217 12.878C52.7217 12.8382 52.7365 12.7999 52.7633 12.7704C52.7901 12.741 52.8269 12.7226 52.8666 12.7188H65.6158C65.6555 12.7226 65.6923 12.741 65.7191 12.7704C65.7459 12.7999 65.7608 12.8382 65.7608 12.878C65.7608 12.9177 65.7459 12.9561 65.7191 12.9855C65.6923 13.015 65.6555 13.0334 65.6158 13.0372Z" fill="white"/>
<path opacity="0.3" d="M62.3505 16.2188H54.8566C54.2417 16.2188 53.7432 16.7161 53.7432 17.3296V17.4926C53.7432 18.1061 54.2417 18.6034 54.8566 18.6034H62.3505C62.9655 18.6034 63.4639 18.1061 63.4639 17.4926V17.3296C63.4639 16.7161 62.9655 16.2188 62.3505 16.2188Z" fill="white"/>
<path opacity="0.3" d="M79.5992 0V20.6697H31.2344C31.2344 20.6697 39.3622 11.916 52.6875 9.70905C53.2961 9.60833 53.9107 9.54315 54.5253 9.50168C58.6791 9.21878 78.183 7.52729 79.5992 0Z" fill="white"/>
<path d="M27.8886 12.4023H0V44.043H27.8886V12.4023Z" fill="#106FA4"/>
<path opacity="0.3" d="M27.8886 12.4023H0V17.4902H27.8886V12.4023Z" fill="white"/>
<path d="M10.8373 19.0801H2.23145V27.6664H10.8373V19.0801Z" fill="#2F2E41"/>
<path opacity="0.3" d="M19.8394 15.5045C20.1477 15.5045 20.3976 15.2551 20.3976 14.9475C20.3976 14.64 20.1477 14.3906 19.8394 14.3906C19.5312 14.3906 19.2812 14.64 19.2812 14.9475C19.2812 15.2551 19.5312 15.5045 19.8394 15.5045Z" fill="white"/>
<path opacity="0.3" d="M22.7086 15.5045C23.0169 15.5045 23.2668 15.2551 23.2668 14.9475C23.2668 14.64 23.0169 14.3906 22.7086 14.3906C22.4003 14.3906 22.1504 14.64 22.1504 14.9475C22.1504 15.2551 22.4003 15.5045 22.7086 15.5045Z" fill="white"/>
<path opacity="0.3" d="M25.5767 15.5045C25.885 15.5045 26.1349 15.2551 26.1349 14.9475C26.1349 14.64 25.885 14.3906 25.5767 14.3906C25.2685 14.3906 25.0186 14.64 25.0186 14.9475C25.0186 15.2551 25.2685 15.5045 25.5767 15.5045Z" fill="white"/>
<path d="M20.7163 21.942H12.7458C12.7249 21.942 12.7042 21.9379 12.685 21.9299C12.6657 21.9219 12.6482 21.9103 12.6334 21.8955C12.6187 21.8808 12.607 21.8634 12.599 21.8441C12.591 21.8249 12.5869 21.8043 12.5869 21.7835C12.5869 21.7627 12.591 21.7421 12.599 21.7228C12.607 21.7036 12.6187 21.6861 12.6334 21.6714C12.6482 21.6567 12.6657 21.645 12.685 21.6371C12.7042 21.6291 12.7249 21.625 12.7458 21.625H20.7133C20.7554 21.625 20.7958 21.6417 20.8256 21.6714C20.8554 21.7011 20.8721 21.7415 20.8721 21.7835C20.8721 21.8255 20.8554 21.8658 20.8256 21.8955C20.7958 21.9253 20.7554 21.942 20.7133 21.942H20.7163Z" fill="white"/>
<path d="M23.0266 23.8482H12.8278C12.7857 23.8482 12.7453 23.8315 12.7155 23.8018C12.6857 23.7721 12.6689 23.7318 12.6689 23.6897C12.6689 23.6477 12.6857 23.6074 12.7155 23.5777C12.7453 23.5479 12.7857 23.5313 12.8278 23.5313H23.0266C23.0474 23.5312 23.0681 23.5353 23.0874 23.5433C23.1066 23.5513 23.1242 23.563 23.1389 23.5777C23.1537 23.5924 23.1654 23.6099 23.1733 23.6291C23.1813 23.6483 23.1854 23.6689 23.1854 23.6897C23.1854 23.7105 23.1813 23.7312 23.1733 23.7504C23.1654 23.7696 23.1537 23.7871 23.1389 23.8018C23.1242 23.8165 23.1066 23.8282 23.0874 23.8362C23.0681 23.8441 23.0474 23.8482 23.0266 23.8482Z" fill="white"/>
<path d="M25.5768 25.7599H12.8275C12.7879 25.756 12.751 25.7376 12.7243 25.7082C12.6975 25.6787 12.6826 25.6404 12.6826 25.6006C12.6826 25.5609 12.6975 25.5225 12.7243 25.4931C12.751 25.4637 12.7879 25.4452 12.8275 25.4414H25.5768C25.6164 25.4452 25.6533 25.4637 25.6801 25.4931C25.7069 25.5225 25.7217 25.5609 25.7217 25.6006C25.7217 25.6404 25.7069 25.6787 25.6801 25.7082C25.6533 25.7376 25.6164 25.756 25.5768 25.7599Z" fill="white"/>
<path d="M20.3172 35.9403H7.88863C7.86638 35.9424 7.84393 35.9399 7.82271 35.9329C7.80149 35.9259 7.78199 35.9145 7.76544 35.8995C7.74889 35.8845 7.73566 35.8662 7.72661 35.8458C7.71757 35.8254 7.71289 35.8034 7.71289 35.7811C7.71289 35.7588 7.71757 35.7367 7.72661 35.7163C7.73566 35.6959 7.74889 35.6776 7.76544 35.6626C7.78199 35.6476 7.80149 35.6363 7.82271 35.6292C7.84393 35.6222 7.86638 35.6197 7.88863 35.6218H20.3172C20.3569 35.6257 20.3937 35.6441 20.4205 35.6735C20.4473 35.703 20.4621 35.7413 20.4621 35.7811C20.4621 35.8208 20.4473 35.8592 20.4205 35.8886C20.3937 35.918 20.3569 35.9365 20.3172 35.9403Z" fill="white"/>
<path d="M24.3018 37.8426H3.90426C3.882 37.8448 3.85955 37.8423 3.83833 37.8352C3.81712 37.8282 3.79761 37.8168 3.78106 37.8018C3.76451 37.7868 3.75129 37.7686 3.74224 37.7482C3.73319 37.7278 3.72852 37.7057 3.72852 37.6834C3.72852 37.6611 3.73319 37.639 3.74224 37.6186C3.75129 37.5983 3.76451 37.58 3.78106 37.565C3.79761 37.55 3.81712 37.5386 3.83833 37.5316C3.85955 37.5246 3.882 37.522 3.90426 37.5242H24.3018C24.3241 37.522 24.3465 37.5246 24.3678 37.5316C24.389 37.5386 24.4085 37.55 24.425 37.565C24.4416 37.58 24.4548 37.5983 24.4639 37.6186C24.4729 37.639 24.4776 37.6611 24.4776 37.6834C24.4776 37.7057 24.4729 37.7278 24.4639 37.7482C24.4548 37.7686 24.4416 37.7868 24.425 37.8018C24.4085 37.8168 24.389 37.8282 24.3678 37.8352C24.3465 37.8423 24.3241 37.8448 24.3018 37.8426Z" fill="white"/>
<path d="M20.3975 39.7489H7.80855C7.7863 39.751 7.76385 39.7485 7.74263 39.7415C7.72142 39.7344 7.70191 39.7231 7.68536 39.7081C7.66881 39.6931 7.65559 39.6748 7.64654 39.6544C7.63749 39.634 7.63281 39.612 7.63281 39.5897C7.63281 39.5674 7.63749 39.5453 7.64654 39.5249C7.65559 39.5045 7.66881 39.4862 7.68536 39.4712C7.70191 39.4562 7.72142 39.4449 7.74263 39.4378C7.76385 39.4308 7.7863 39.4283 7.80855 39.4304H20.3975C20.4197 39.4283 20.4422 39.4308 20.4634 39.4378C20.4846 39.4449 20.5041 39.4562 20.5207 39.4712C20.5372 39.4862 20.5504 39.5045 20.5595 39.5249C20.5685 39.5453 20.5732 39.5674 20.5732 39.5897C20.5732 39.612 20.5685 39.634 20.5595 39.6544C20.5504 39.6748 20.5372 39.6931 20.5207 39.7081C20.5041 39.7231 20.4846 39.7344 20.4634 39.7415C20.4422 39.7485 20.4197 39.751 20.3975 39.7489Z" fill="white"/>
<path opacity="0.3" d="M19.4415 30.2109H7.80859V32.5956H19.4415V30.2109Z" fill="white"/>
<path d="M51.6722 47.8594H49.9189V78.7047H51.6722V47.8594Z" fill="#999999"/>
<path opacity="0.1" d="M51.6722 47.8594H50.875V78.7047H51.6722V47.8594Z" fill="black"/>
<path d="M57.0911 47.9375H55.3379V73.4565H57.0911V47.9375Z" fill="#999999"/>
<path opacity="0.1" d="M57.0902 47.9375H56.293V73.4565H57.0902V47.9375Z" fill="black"/>
<path d="M95.3363 47.8594H93.583V78.7047H95.3363V47.8594Z" fill="#999999"/>
<path opacity="0.1" d="M95.3363 47.8594H94.5391V78.7047H95.3363V47.8594Z" fill="black"/>
<path d="M99.7991 45.8711H98.0459V73.4578H99.7991V45.8711Z" fill="#999999"/>
<path opacity="0.1" d="M99.7992 45.8711H99.002V73.4578H99.7992V45.8711Z" fill="black"/>
<path d="M87.5283 33.707H93.5452C93.7243 33.707 93.8961 33.778 94.0228 33.9044C94.1495 34.0308 94.2206 34.2022 94.2206 34.381V44.3596H87.5283V33.707Z" fill="#B3B3B3"/>
<path d="M48.0068 47.3829L56.2297 43.252H102.193L96.771 47.3829H48.0068Z" fill="#CCCCCC"/>
<path d="M65.8549 76.3203L61.0302 80.0854C61.0302 80.0854 59.0097 81.8851 60.7555 82.9974C60.7555 82.9974 63.3045 84.5882 65.3769 81.8851L68.2525 77.1986L65.8549 76.3203Z" fill="#106FA4"/>
<path opacity="0.2" d="M60.4365 81.7263C61.6242 83.012 63.4917 82.7439 64.66 81.5782C65.2093 81.0168 65.6992 80.3444 66.2218 79.7564C66.679 79.2202 67.3367 78.4544 67.8028 77.9375C67.3871 78.4915 66.7547 79.2839 66.3183 79.8349C65.812 80.4451 65.3192 81.1161 64.7714 81.6923C63.5526 82.8935 61.587 83.1557 60.438 81.7308L60.4365 81.7263Z" fill="black"/>
<path opacity="0.2" d="M61.4326 79.891C62.3901 79.8776 63.4085 80.2494 64.0083 81.0211C64.2054 81.2774 64.3465 81.5721 64.4225 81.8861C64.3839 81.8165 64.3468 81.738 64.3126 81.6743C64.279 81.6031 64.2387 81.5351 64.1924 81.4714C63.5986 80.5249 62.4941 80.0791 61.4326 79.891Z" fill="black"/>
<path opacity="0.2" d="M62.5068 79.3367C63.2239 79.2405 64.2467 79.4745 64.4219 80.2847C64.0329 79.6019 63.2194 79.4834 62.5068 79.3367Z" fill="black"/>
<path opacity="0.2" d="M63.1465 78.7039C63.862 78.6077 64.8864 78.8417 65.0601 79.6504C64.6726 78.9691 63.8576 78.8506 63.1465 78.7039Z" fill="black"/>
<path opacity="0.2" d="M64.4209 77.7508C65.1364 77.6545 66.1608 77.8886 66.3345 78.6973C65.947 78.0145 65.132 77.8974 64.4209 77.7508Z" fill="black"/>
<path d="M67.05 74.0137L65.8624 76.3198C65.8624 76.3198 65.3695 76.9123 66.0479 77.2796C66.2334 77.3782 66.4405 77.4291 66.6507 77.4278H67.8235C67.9088 77.4278 67.9929 77.4076 68.0688 77.3687C68.1448 77.3298 68.2103 77.2734 68.2599 77.2041L69.6984 75.1793C69.6984 75.1793 67.6809 74.4047 67.05 74.0137Z" fill="#F9B499"/>
<path d="M66.7773 69.0031L67.2999 70.5775L68.0926 68.3262L66.7773 69.0031Z" fill="#F9B499"/>
<path d="M90.8934 42.6635C90.8934 43.884 90.0769 43.884 90.0769 43.884L87.8501 44.6794C86.8584 45.0097 86.4487 44.9593 86.2913 44.8956C86.2586 44.8833 86.2236 44.8783 86.1887 44.8808C86.1538 44.8834 86.1199 44.8935 86.0894 44.9105C86.0861 44.9142 86.0821 44.9173 86.0775 44.9193C85.9057 45.0392 85.7136 45.127 85.5104 45.1786C85.0814 45.2645 85.1423 44.8364 85.1423 44.8364C85.1568 44.761 85.1667 44.6849 85.1719 44.6083C85.1822 44.3179 85.1059 44.031 84.9526 43.784C84.7993 43.5369 84.576 43.3408 84.3109 43.2205C84.0833 43.1152 83.8462 43.0319 83.6028 42.9716C83.4531 42.9346 83.2967 42.9346 83.147 42.9716L81.9104 43.2545H75.6946L69.9955 43.0886C69.4657 39.7374 70.1263 36.3068 71.863 33.39C72.2439 32.7368 72.682 32.1187 73.1724 31.5429C73.2793 31.4185 73.3416 31.3548 73.3416 31.3548L73.6935 30.8468C73.6935 30.8468 78.444 31.1638 78.4989 31.0053C78.5539 30.8468 81.7872 28.9316 81.7872 28.9316L86.3536 30.8572C86.5563 30.9463 86.7379 31.077 86.8866 31.2408C87.8694 32.2554 88.6398 34.6726 88.6398 34.6726L90.7182 41.5097C90.8257 41.8853 90.8846 42.273 90.8934 42.6635Z" fill="#FDB415"/>
<path d="M85.7022 38.6038C85.7022 38.6038 81.1388 39.3444 77.7228 38.6364C77.6352 38.6186 77.5491 38.5964 77.463 38.5727C76.1206 38.2198 74.7309 38.0803 73.3449 38.1595L70.07 38.1328L69.9082 39.2141H75.3817C75.3817 39.2141 77.1632 39.2718 78.6032 39.7488C78.6032 39.7488 80.0372 40.2257 82.9083 39.9072L86.1476 39.5133L85.7022 38.6038Z" fill="#2F2E41"/>
<path opacity="0.2" d="M86.889 31.2304C83.862 31.6155 78.4434 33.39 78.4434 33.39C77.1682 32.4361 73.1748 31.5429 73.1748 31.5429C73.2817 31.4185 73.344 31.3548 73.344 31.3548L73.6959 30.8468C73.6959 30.8468 78.4464 31.1638 78.5013 31.0053C78.5563 30.8468 81.7896 28.9316 81.7896 28.9316L86.356 30.8572C86.5578 30.9433 86.7393 31.0704 86.889 31.2304Z" fill="black"/>
<path d="M77.4331 31.0974C77.3724 31.1134 77.311 31.1263 77.249 31.1359C76.1713 31.3255 75.0593 30.859 74.1701 29.951C73.386 29.1295 72.8361 28.114 72.5772 27.0094C71.8958 24.2574 72.9676 21.6283 74.9703 21.1351C76.9729 20.6419 79.1463 22.4682 79.8277 25.2216C80.5091 27.9751 79.4372 30.6057 77.4331 31.0974Z" fill="#F9B499"/>
<path d="M80.2771 25.7586C80.4091 25.7586 80.5161 25.545 80.5161 25.2816C80.5161 25.0182 80.4091 24.8047 80.2771 24.8047C80.1451 24.8047 80.0381 25.0182 80.0381 25.2816C80.0381 25.545 80.1451 25.7586 80.2771 25.7586Z" stroke="#FF0000" stroke-width="0.75" stroke-miterlimit="10"/>
<path d="M82.11 24.6444C82.11 24.6444 84.6604 26.0441 80.5171 27.3312C80.4688 27.1549 80.4419 26.9734 80.4369 26.7906C80.4308 26.5638 80.4578 26.3373 80.5171 26.1182L79.2419 25.4724C79.2419 25.4724 78.5486 25.5983 78.1775 24.8029C78.1775 24.8029 76.8518 24.8029 77.0106 23.849C77.0106 23.849 76.0546 24.4859 75.7354 23.6905C75.7354 23.6905 74.2969 24.7096 72.8658 23.0062C72.8658 23.0062 72.2304 24.1675 72.4204 26.1167C72.4204 26.1167 71.4792 26.8691 70.9463 26.173C70.8271 26.0107 70.7607 25.8157 70.7562 25.6146C70.7433 25.4466 70.7822 25.2787 70.8677 25.1333C70.9531 24.988 71.081 24.8722 71.2343 24.8014C71.2343 24.8014 70.0808 24.3734 70.1119 23.4269C70.1246 23.1828 70.1964 22.9455 70.3213 22.7352C70.3213 22.7352 70.5603 22.1427 71.454 22.393C71.6124 22.4408 71.7664 22.5022 71.9142 22.5767C71.9142 22.5767 70.6954 20.0202 72.4189 18.3569C72.4189 18.3569 75.2603 15.4212 76.3767 19.0782C76.3767 19.0782 77.3491 17.5763 78.9004 17.9495C79.0143 17.9767 79.1259 18.0123 79.2344 18.0562C79.2344 18.0562 80.3493 18.3524 80.1905 20.1446C80.1905 20.1446 81.6246 18.9182 82.8998 20.349C82.8998 20.349 83.8558 21.5177 82.8998 22.7604C82.9117 22.7633 83.3852 23.849 82.11 24.6444Z" fill="#2F2E41"/>
<path opacity="0.2" d="M73.0257 22.6957C73.0257 22.6957 72.5477 21.1464 73.9817 20.1911C73.9817 20.1911 75.0105 19.5231 76.4298 20.4073C76.572 20.4997 76.7075 20.6022 76.835 20.7139C77.2699 21.0968 77.8273 21.3126 78.4072 21.3227C78.4072 21.3227 80.0402 21.2531 80.2777 23.1001C80.2777 23.1001 78.4443 21.5123 77.0904 22.2795C77.0904 22.2795 76.3733 20.0252 74.4598 20.6606C74.4598 20.668 73.3449 20.9865 73.0257 22.6957Z" fill="black"/>
<path opacity="0.2" d="M71.4494 22.3951C70.673 22.5328 70.1133 23.4319 70.1133 23.4319C70.126 23.1878 70.1978 22.9505 70.3226 22.7402C70.3226 22.7402 70.5557 22.1403 71.4494 22.3951Z" fill="black"/>
<path opacity="0.2" d="M82.1094 24.645C82.1094 24.645 84.6598 26.0447 80.5165 27.3319C80.4444 27.1613 80.4168 26.9753 80.4363 26.7912C80.4477 26.6857 80.4747 26.5823 80.5165 26.4846L81.1533 25.473C81.6314 25.1871 81.6314 24.4865 81.6314 24.4865C81.9074 24.3767 82.1459 24.1901 82.3187 23.9489C82.4451 23.7748 82.5261 23.5721 82.5543 23.3591C82.5826 23.146 82.5572 22.9293 82.4805 22.7284C82.1495 21.8871 81.1533 22.1226 81.1533 22.1226C81.4725 19.7527 80.037 20.5155 80.037 20.5155C79.8885 18.3649 78.9651 17.9753 78.9072 17.9531C79.0211 17.9803 79.1327 18.0159 79.2412 18.0598C79.2412 18.0598 80.3561 18.356 80.1973 20.1482C80.1973 20.1482 81.6314 18.9218 82.9066 20.3526C82.9066 20.3526 83.8626 21.5213 82.9066 22.764C82.911 22.764 83.3846 23.8496 82.1094 24.645Z" fill="black"/>
<path d="M83.2243 29.256L79.2413 32.6287C78.6029 33.1397 78.2852 32.7546 78.2852 32.7546L78.1086 32.4776L77.249 31.1445C80.2775 30.4558 80.0207 26.4922 80.0207 26.4922H80.5165C80.4353 27.065 80.547 27.6485 80.8342 28.1511C81.4146 27.9186 82.1703 27.9408 82.5266 27.9689C82.6716 27.9789 82.8153 28.0032 82.9556 28.0415C84.2368 28.3851 83.2243 29.256 83.2243 29.256Z" fill="#F9B499"/>
<path d="M83.2241 29.2566L79.2411 32.6292C78.6028 33.1402 78.2851 32.7551 78.2851 32.7551L78.1084 32.4781C79.8438 31.7242 81.5228 29.6891 81.5228 29.6891C82.1256 28.8004 81.1309 28.2776 80.8904 28.1665C80.8863 28.1646 80.8829 28.1615 80.8804 28.1577C80.878 28.1539 80.8767 28.1495 80.8767 28.145C80.8767 28.1405 80.878 28.1361 80.8804 28.1323C80.8829 28.1285 80.8863 28.1254 80.8904 28.1235C81.4635 27.9132 82.179 27.9354 82.5234 27.9621C82.6685 27.972 82.8122 27.9964 82.9525 28.0346C84.2366 28.3857 83.2241 29.2566 83.2241 29.2566Z" fill="#F7A48B"/>
<path d="M77.249 31.1372L77.7048 31.8497C77.7048 31.8497 80.4749 30.29 79.9316 27.9453C79.942 27.9409 79.7193 30.6336 77.249 31.1372Z" fill="#F7A48B"/>
<path d="M74.3008 31.0059C75.2811 31.1573 76.2261 31.484 77.0902 31.9701" stroke="#FF0000" stroke-width="0.75" stroke-miterlimit="10"/>
<path opacity="0.2" d="M90.8937 42.6641C90.8937 43.8845 90.0772 43.8845 90.0772 43.8845L87.8504 44.6799C86.8587 45.0102 86.449 44.9599 86.2916 44.8962C86.2589 44.8839 86.2239 44.8788 86.189 44.8814C86.1541 44.8839 86.1203 44.894 86.0897 44.911C86.1431 44.8754 86.3391 44.6947 86.0778 44.1704L85.242 42.9233C85.2295 42.9041 85.2211 42.8826 85.2172 42.8601C85.2134 42.8376 85.2142 42.8145 85.2196 42.7923C85.225 42.7701 85.235 42.7492 85.2488 42.731C85.2626 42.7128 85.28 42.6975 85.2999 42.6863C85.3248 42.6722 85.353 42.665 85.3816 42.6655C85.4079 42.6654 85.4339 42.6715 85.4573 42.6834C85.4808 42.6952 85.5012 42.7125 85.5167 42.7337L86.5766 44.2045C86.5766 44.2045 86.7355 44.8399 88.8034 43.886C88.8034 43.8845 90.5938 43.1973 90.8937 42.6641Z" fill="black"/>
<path opacity="0.2" d="M85.5063 45.1789C85.0772 45.2648 85.1381 44.8367 85.1381 44.8367C85.1526 44.7614 85.1625 44.6852 85.1678 44.6086C85.1781 44.3182 85.1017 44.0313 84.9484 43.7843C84.7952 43.5372 84.5718 43.3411 84.3068 43.2208C84.0792 43.1156 83.8421 43.0323 83.5986 42.9719C83.5986 42.9719 84.8189 42.4521 85.4558 44.0413C85.4558 44.0428 85.6517 44.7301 85.5063 45.1789Z" fill="black"/>
<path opacity="0.2" d="M85.9335 41.34C85.9335 41.34 83.8552 42.2124 83.1426 42.9693L81.906 43.2522H75.6946L69.9955 43.0893C69.4657 39.738 70.1263 36.3074 71.863 33.3906C71.9076 33.3906 73.1828 33.7091 74.4565 38.1615C74.4565 38.1615 75.7228 42.873 77.7225 42.6642H81.2112C81.2112 42.6642 84.3406 42.7723 84.3406 40.7046V37.5246C84.3406 37.5246 84.4371 36.2774 84.9478 37.061L86.5719 40.3832C86.5719 40.3832 86.8896 41.0231 85.9335 41.34Z" fill="black"/>
<path opacity="0.2" d="M86.4123 31.6445C85.1624 32.6384 84.5166 34.204 84.5002 35.7785C84.4854 35.5815 84.4602 35.3815 84.4631 35.186C84.4631 33.7863 85.1891 32.3644 86.4123 31.6475V31.6445Z" fill="black"/>
<path d="M80.5167 41.4204C80.4957 41.4196 80.4758 41.4106 80.4614 41.3954C80.4469 41.3801 80.4391 41.3599 80.4395 41.3389L80.5983 36.5681C80.5983 33.4147 81.3925 31.1603 81.4 31.1381C81.4073 31.1183 81.4222 31.1022 81.4414 31.0934C81.4606 31.0845 81.4825 31.0835 81.5024 31.0907C81.5122 31.0942 81.5211 31.0996 81.5288 31.1065C81.5365 31.1135 81.5427 31.1219 81.5471 31.1312C81.5516 31.1406 81.5541 31.1507 81.5545 31.161C81.555 31.1714 81.5534 31.1817 81.5499 31.1914C81.5499 31.2136 80.7586 33.4428 80.7586 36.571L80.5983 41.3433C80.5975 41.3643 80.5886 41.3841 80.5733 41.3985C80.558 41.4129 80.5377 41.4208 80.5167 41.4204Z" fill="#2F2E41"/>
<path d="M76.5274 41.8957C76.5064 41.8949 76.4865 41.886 76.4721 41.8707C76.4577 41.8555 76.4498 41.8352 76.4502 41.8143L76.6105 37.2034C76.6062 35.5216 76.7397 33.8423 77.0099 32.1822C77.0117 32.172 77.0155 32.1622 77.0211 32.1534C77.0267 32.1447 77.034 32.1371 77.0426 32.1312C77.0511 32.1253 77.0608 32.1211 77.071 32.1189C77.0812 32.1167 77.0917 32.1166 77.1019 32.1185C77.1228 32.1225 77.1412 32.1345 77.1532 32.152C77.1652 32.1695 77.1697 32.191 77.1658 32.2118C76.8983 33.8627 76.7658 35.5326 76.7694 37.2049L76.6105 41.8187C76.6094 41.8398 76.6001 41.8596 76.5846 41.874C76.5691 41.8883 76.5486 41.8961 76.5274 41.8957Z" fill="#2F2E41"/>
<g opacity="0.2">
<path d="M80.5167 41.4204C80.4957 41.4196 80.4758 41.4106 80.4614 41.3954C80.4469 41.3801 80.4391 41.3599 80.4395 41.3389L80.5983 36.5681C80.5983 33.4147 81.3925 31.1603 81.4 31.1381C81.4073 31.1183 81.4222 31.1022 81.4414 31.0934C81.4606 31.0845 81.4825 31.0835 81.5024 31.0907C81.5122 31.0942 81.5211 31.0996 81.5288 31.1065C81.5365 31.1135 81.5427 31.1219 81.5471 31.1312C81.5516 31.1406 81.5541 31.1507 81.5545 31.161C81.555 31.1714 81.5534 31.1817 81.5499 31.1914C81.5499 31.2136 80.7586 33.4428 80.7586 36.571L80.5983 41.3433C80.5975 41.3643 80.5886 41.3841 80.5733 41.3985C80.558 41.4129 80.5377 41.4208 80.5167 41.4204Z" fill="black"/>
<path d="M76.5274 41.8977C76.5064 41.8969 76.4865 41.8879 76.4721 41.8727C76.4577 41.8575 76.4498 41.8372 76.4502 41.8162L76.6105 37.2053C76.6062 35.5236 76.7397 33.8442 77.0099 32.1842C77.0117 32.1739 77.0155 32.1642 77.0211 32.1554C77.0267 32.1466 77.034 32.1391 77.0426 32.1331C77.0511 32.1272 77.0608 32.123 77.071 32.1209C77.0812 32.1187 77.0917 32.1186 77.1019 32.1205C77.1228 32.1244 77.1412 32.1365 77.1532 32.154C77.1652 32.1715 77.1697 32.193 77.1658 32.2138C76.8983 33.8647 76.7658 35.5345 76.7694 37.2068L76.6105 41.8206C76.6094 41.8417 76.6001 41.8615 76.5846 41.8759C76.5691 41.8903 76.5486 41.8981 76.5274 41.8977Z" fill="black"/>
</g>
<path d="M90.2359 48.4961C90.2359 48.5213 90.2359 49.7936 89.9182 52.3116L89.8677 52.6715C89.8197 53.0285 89.7939 53.3881 89.7905 53.7483C89.7816 54.3171 89.4105 55.3998 86.6285 54.9643C86.7012 54.8414 86.768 54.72 86.8304 54.5955L86.8823 54.4948C87.1154 54.0505 87.4301 53.3721 87.5281 52.7885C87.5281 52.7885 78.7693 51.9946 75.8937 50.8808C75.8937 50.8808 71.6925 49.1315 70.1278 49.6884L68.8823 50.7253C68.8823 50.7253 67.7674 50.4068 69.3603 48.5035L90.2359 48.4961Z" fill="#FDB415"/>
<path opacity="0.2" d="M87.5278 52.7871C87.5278 52.7871 89.5765 52.9234 89.5008 53.8239C89.4931 53.9071 89.4678 53.9877 89.4266 54.0605C89.3854 54.1333 89.3292 54.1965 89.2618 54.2461C88.9886 54.4549 88.334 54.7334 86.8643 54.526C87.143 53.9699 87.3653 53.3873 87.5278 52.7871Z" fill="black"/>
<path opacity="0.2" d="M69.1258 50.5199C69.1258 50.5199 68.186 49.9274 70.1278 49.6875L69.1258 50.5199Z" fill="black"/>
<path d="M87.528 52.7866C87.3788 53.3782 87.1622 53.9507 86.8822 54.493L86.8302 54.5937C86.7961 54.6574 86.7649 54.7136 86.7367 54.764C86.7085 54.8144 86.6669 54.8958 86.6283 54.9625C84.6539 58.4314 80.4586 61.5448 78.7514 62.7193C78.5262 62.8734 78.3388 63.0762 78.2033 63.3127C78.0678 63.5492 77.9877 63.8132 77.969 64.085C77.6157 69.5416 75.0979 74.2517 75.0979 74.2517C74.562 75.0175 73.7618 75.3863 72.8711 75.5048C70.0356 75.8869 66.1729 73.7748 66.1729 73.7748L68.2512 67.8916C70.0045 61.3745 71.7562 59.4652 71.7562 59.4652L75.6962 51.301L75.8996 50.8789C78.7632 51.9927 87.528 52.7866 87.528 52.7866Z" fill="#2F2E41"/>
<path opacity="0.2" d="M87.528 52.7872C87.3788 53.3787 87.1621 53.9512 86.8822 54.4935L86.8302 54.5942C86.7961 54.6579 86.7649 54.7142 86.7367 54.7645C86.7085 54.8149 86.6669 54.8964 86.6283 54.963C84.6539 58.4319 80.4586 61.5453 78.7514 62.7199C78.5261 62.8739 78.3388 63.0767 78.2033 63.3132C78.0678 63.5497 77.9877 63.8138 77.969 64.0855C77.6157 69.5421 75.0979 74.2522 75.0979 74.2522C74.562 75.018 73.7618 75.3868 72.8711 75.5053C75.8402 71.6958 77.5133 63.2116 77.5133 63.2116C77.3811 61.2372 83.2243 56.1228 83.2243 56.1228C85.4511 53.901 82.5874 53.2597 82.5874 53.2597C80.0236 52.8568 76.6611 51.6541 75.6902 51.2971L75.8936 50.875C78.7632 51.9933 87.528 52.7872 87.528 52.7872Z" fill="black"/>
<path d="M72.8711 57.1438L67.9261 59.1463L69.856 62.9973C69.856 62.9973 69.0335 65.3953 68.1636 68.294C68.1636 68.294 66.1713 69.6448 64.1004 69.4863C64.1004 69.4863 62.3472 65.0339 61.3911 60.4231C61.3911 60.4231 60.1159 57.7199 62.3472 55.9707L68.8079 50.757L70.1336 49.6861C70.1336 49.6861 71.1193 48.9707 75.8995 50.8784L72.8711 57.1438Z" fill="#2F2E41"/>
<path d="M66.6737 72.3594L63.5161 74.7914C63.2087 75.0327 62.8682 75.2287 62.5051 75.3735C62.0286 75.5587 61.3397 75.966 61.4897 76.7318C61.5317 76.9321 61.6222 77.119 61.7535 77.2763C61.8847 77.4335 62.0525 77.5563 62.2423 77.6338C62.6209 77.7908 63.2206 77.8975 64.1025 77.6886L65.8557 76.3215L66.9647 74.1679L66.1734 73.7769L66.6737 72.3594Z" fill="#106FA4"/>
<path opacity="0.2" d="M66.6737 72.3594L63.5161 74.7914C63.2087 75.0327 62.8682 75.2287 62.5051 75.3735C62.0286 75.5587 61.3397 75.966 61.4897 76.7318C61.5317 76.9321 61.6222 77.119 61.7535 77.2763C61.8847 77.4335 62.0525 77.5563 62.2423 77.6338C62.6209 77.7908 63.2206 77.8975 64.1025 77.6886L65.8557 76.3215L66.9647 74.1679L66.1734 73.7769L66.6737 72.3594Z" fill="black"/>
<path opacity="0.2" d="M72.8713 57.1452L67.9263 59.1478L69.8562 62.9988C69.3594 64.8051 68.7703 66.5848 68.091 68.331C68.091 68.331 66.1715 69.6463 64.1006 69.4878C69.9972 69.0109 67.1855 59.5314 67.1855 59.5314C66.5352 58.0828 67.5106 57.6577 68.1029 57.5348C68.4812 57.4571 68.8533 57.3521 69.2163 57.2208L70.7098 56.6728C71.261 56.4761 71.7671 56.1712 72.1983 55.7761C72.6294 55.381 72.9769 54.9038 73.2201 54.3725C73.3952 53.9823 73.507 53.5669 73.5512 53.1417C73.5959 52.6516 73.4675 52.1613 73.1883 51.7556C72.9091 51.3499 72.4966 51.0543 72.0221 50.9199C70.7721 50.5526 69.5192 50.6474 68.8006 50.757L70.1263 49.6861C70.1263 49.6861 71.1121 48.9707 75.8923 50.8784L72.8713 57.1452Z" fill="black"/>
<path opacity="0.2" d="M61.4683 76.5233C62.6559 77.1883 64.1167 77.1039 65.3281 76.5603C65.5047 76.4848 65.674 76.3915 65.8536 76.3145C65.6933 76.4226 65.53 76.5292 65.3637 76.6299C64.1761 77.3009 62.5757 77.3853 61.4668 76.5233H61.4683Z" fill="black"/>
<path opacity="0.2" d="M63.2637 74.9707C63.8783 75.2432 65.0718 75.9838 65.06 76.7333C64.9531 76.3171 64.5701 76.0534 64.2657 75.7765C63.9614 75.4995 63.5977 75.2477 63.2637 74.9707Z" fill="black"/>
<path opacity="0.2" d="M64.1016 74.3379C64.5618 74.4031 64.921 74.8178 65.0591 75.2414C64.728 74.9378 64.4653 74.6089 64.1016 74.3379Z" fill="black"/>
<path opacity="0.2" d="M64.6992 73.8789C64.9258 73.9381 65.1342 74.0525 65.3057 74.2117C65.4772 74.3709 65.6065 74.57 65.682 74.7913C65.3598 74.4669 65.0362 74.1988 64.6992 73.8789Z" fill="black"/>
<path opacity="0.2" d="M65.377 73.3555C65.7549 73.5718 66.0386 73.9208 66.1727 74.3345C65.8611 74.0485 65.593 73.7187 65.377 73.3555Z" fill="black"/>
<path d="M96.771 47.3828H48.0068V48.4952H96.771V47.3828Z" fill="#B3B3B3"/>
<path d="M96.7705 47.3829V48.4953L102.189 44.2029L102.192 43.252L96.7705 47.3829Z" fill="#999999"/>
<path d="M60.756 44.5194H75.3149L74.2267 35.0785C74.2044 34.8751 74.1077 34.6871 73.9551 34.5505C73.8026 34.4138 73.6048 34.3381 73.3998 34.3379H60.0389C59.9772 34.339 59.9164 34.3529 59.8604 34.3787C59.8044 34.4044 59.7543 34.4415 59.7134 34.4876C59.6726 34.5337 59.6417 34.5878 59.6229 34.6464C59.604 34.705 59.5976 34.7669 59.604 34.8282L60.756 44.5194Z" fill="#106FA4"/>
<path opacity="0.3" d="M75.3148 44.5194H60.756L59.6039 34.834C59.5975 34.7725 59.6041 34.7104 59.6231 34.6516C59.6421 34.5928 59.6732 34.5386 59.7144 34.4924C59.7557 34.4463 59.8061 34.4092 59.8625 34.3836C59.9188 34.358 59.9799 34.3444 60.0419 34.3438H73.4028C73.6075 34.3444 73.8049 34.4202 73.9572 34.5568C74.1094 34.6934 74.2059 34.8812 74.2282 35.0843L75.3148 44.5194Z" fill="white"/>
<path opacity="0.3" d="M72.0045 34.3438L60.7562 44.0424L60.5127 42.1658L69.6278 34.3438H72.0045Z" fill="white"/>
<path opacity="0.3" d="M62.1387 44.5205L73.9482 34.5508C74.0996 34.6896 74.1982 34.8764 74.2273 35.0796L74.2837 35.5743L63.7301 44.5205H62.1387Z" fill="white"/>
<path d="M74.7788 44.5195H60.7559V45.4734H74.7788V44.5195Z" fill="#106FA4"/>
<path d="M79.1562 44.5195H74.7783V45.4734H79.1562V44.5195Z" fill="#106FA4"/>
<path opacity="0.2" d="M79.1562 44.5195H74.7783V45.4734H79.1562V44.5195Z" fill="black"/>
<path d="M47.6875 45.7907H54.6129L59.5995 42.8906H53.6435L47.6875 45.7907Z" fill="white"/>
<path d="M54.6129 45.793H47.6875V46.4817H54.6129V45.793Z" fill="#E6E6E6"/>
<path d="M59.5989 42.8906V43.7586L54.6123 46.4795V45.7907L59.5989 42.8906Z" fill="#CCCCCC"/>
<path opacity="0.1" d="M59.5989 42.8906V43.7586L54.6123 46.4795V45.7907L59.5989 42.8906Z" fill="black"/>
<path d="M83.1425 42.9688C83.1425 42.9688 81.1428 43.2457 80.0324 44.758C80.0324 44.758 78.5404 46.1133 80.0057 45.8733C80.0057 45.8733 80.0755 46.5665 81.2512 46.0999C81.2512 46.0999 81.4546 46.5902 82.7358 45.8733C82.7358 45.8733 84.0184 45.1564 85.1348 44.8365C85.1377 44.838 85.6083 43.0058 83.1425 42.9688Z" fill="#F9B499"/>
<path d="M81.2781 44.3613C80.9424 44.9324 80.5134 45.4436 80.0088 45.8736C80.3453 45.3031 80.7742 44.7921 81.2781 44.3613Z" fill="#F7A48B"/>
<path d="M81.251 46.0997C81.5034 45.6457 81.8501 45.2508 82.2679 44.9414C82.0151 45.3951 81.6684 45.7899 81.251 46.0997Z" fill="#F7A48B"/>
<path d="M80.1972 26.5526C80.7253 26.5526 81.1533 26.0188 81.1533 25.3603C81.1533 24.7018 80.7253 24.168 80.1972 24.168C79.6692 24.168 79.2412 24.7018 79.2412 25.3603C79.2412 26.0188 79.6692 26.5526 80.1972 26.5526Z" fill="#F9B499"/>
<path d="M80.5165 27.3332C80.5165 27.3332 82.3277 26.603 84.115 26.7822C85.1148 26.891 86.0352 27.3769 86.6878 28.1404C87.4078 28.9699 88.4009 30.377 87.338 30.851C87.1651 30.9226 86.9785 30.9554 86.7914 30.9469C86.6044 30.9385 86.4215 30.889 86.2558 30.8021C85.5135 30.4333 83.5969 29.7786 79.1611 32.6758L83.2243 29.2572C83.2243 29.2572 84.1878 28.2975 82.7047 27.9938C82.5766 27.9689 82.4463 27.9565 82.3158 27.9568C81.8155 27.9654 81.3177 28.0284 80.8312 28.1449C80.8312 28.1449 80.5165 27.6354 80.5165 27.3332Z" fill="#106FA4"/>
<path opacity="0.3" d="M80.5165 27.3332C80.5165 27.3332 82.3277 26.603 84.115 26.7822C85.1148 26.891 86.0352 27.3769 86.6878 28.1404C87.4078 28.9699 88.4009 30.377 87.338 30.851C87.1651 30.9226 86.9785 30.9554 86.7914 30.9469C86.6044 30.9385 86.4215 30.889 86.2558 30.8021C85.5135 30.4333 83.5969 29.7786 79.1611 32.6758L83.2243 29.2572C83.2243 29.2572 84.1878 28.2975 82.7047 27.9938C82.5766 27.9689 82.4463 27.9565 82.3158 27.9568C81.8155 27.9654 81.3177 28.0284 80.8312 28.1449C80.8312 28.1449 80.5165 27.6354 80.5165 27.3332Z" fill="white"/>
<path opacity="0.3" d="M85.4554 28.1445C84.6047 29.1739 83.4542 29.9308 82.3007 30.587C82.13 30.6729 81.9622 30.7647 81.79 30.8477C83.0311 29.9708 84.3138 29.1576 85.4554 28.1445Z" fill="white"/>
<path opacity="0.3" d="M86.8893 28.7788C86.1767 29.5698 85.1153 29.9904 84.082 30.1622C85.0425 29.7816 86.0505 29.3861 86.8893 28.7773V28.7788Z" fill="white"/>
<path d="M78.2854 32.7545C77.6262 32.359 75.1144 31.7473 74.2652 31.5473C74.1004 31.5108 73.9333 31.486 73.7649 31.4733C73.0509 31.4066 73.186 31.0052 73.186 31.0052C73.186 30.3698 74.1702 29.9551 74.1702 29.9551C75.0609 30.8601 76.1714 31.3266 77.2491 31.14L78.2854 32.7545Z" fill="#106FA4"/>
<path opacity="0.3" d="M78.2854 32.7545C77.6262 32.359 75.1144 31.7473 74.2652 31.5473C74.1004 31.5108 73.9333 31.486 73.7649 31.4733C73.0509 31.4066 73.186 31.0052 73.186 31.0052C73.186 30.3698 74.1702 29.9551 74.1702 29.9551C75.0609 30.8601 76.1714 31.3266 77.2491 31.14L78.2854 32.7545Z" fill="white"/>
<path d="M67.2097 40.705C67.8697 40.705 68.4048 40.1712 68.4048 39.5126C68.4048 38.8541 67.8697 38.3203 67.2097 38.3203C66.5497 38.3203 66.0146 38.8541 66.0146 39.5126C66.0146 40.1712 66.5497 40.705 67.2097 40.705Z" fill="white"/>
<path d="M5.10524 22.4166C5.22969 22.4702 5.3357 22.5591 5.41018 22.6721C5.48466 22.7852 5.52435 22.9176 5.52435 23.053C5.52435 23.1883 5.48466 23.3207 5.41018 23.4338C5.3357 23.5469 5.22969 23.6357 5.10524 23.6894C4.95867 23.7508 4.80075 23.7805 4.64185 23.7767H4.29825V24.2908H3.74219V22.3284H4.64185C4.80081 22.3248 4.95873 22.3549 5.10524 22.4166ZM4.86917 23.2607C4.92523 23.2043 4.95669 23.1281 4.95669 23.0486C4.95669 22.9691 4.92523 22.8929 4.86917 22.8365C4.79425 22.7795 4.70073 22.7524 4.60688 22.7605H4.29738V23.3349H4.60688C4.70042 23.3427 4.7936 23.3163 4.86917 23.2607Z" fill="#FAFAFA"/>
<path d="M7.65569 22.3281V24.2914H7.09875V23.525H6.34073V24.2914H5.78467V22.3281H6.34073V23.0649H7.09875V22.3281H7.65569Z" fill="#FAFAFA"/>
<path d="M9.4154 22.4166C9.53852 22.4681 9.64374 22.5546 9.71791 22.6654C9.79055 22.7805 9.82793 22.9143 9.82545 23.0504C9.82978 23.1853 9.79287 23.3184 9.71963 23.4319C9.64638 23.5455 9.54027 23.634 9.4154 23.6859C9.26874 23.747 9.11089 23.7767 8.95201 23.7732H8.60841V24.2865H8.05322V22.3284H8.95201C9.11098 22.3248 9.26892 22.3548 9.4154 22.4166ZM9.17671 23.2608C9.20633 23.2344 9.22958 23.2017 9.24473 23.1651C9.25987 23.1286 9.26651 23.089 9.26414 23.0495C9.26678 23.0097 9.26028 22.9698 9.24512 22.9329C9.22997 22.896 9.20657 22.863 9.17671 22.8365C9.10153 22.78 9.00821 22.753 8.91442 22.7605H8.60579V23.335H8.91442C9.00649 23.3415 9.0979 23.3152 9.17234 23.2608H9.17671Z" fill="#FAFAFA"/>
</svg>
