<svg width="109" height="104" viewBox="0 0 109 104" fill="none" xmlns="http://www.w3.org/2000/svg">
<ellipse cx="55" cy="100" rx="54" ry="4" fill="#ADADAD"/>
<path d="M78.9991 20.4697C79.2836 22.3185 79.0133 24.2101 78.2224 25.9052C77.4315 27.6003 76.1555 29.0227 74.5559 29.9924C72.9564 30.9621 71.1051 31.4355 69.2364 31.3528C67.3676 31.27 65.5655 30.6348 64.0579 29.5275C62.5503 28.4202 61.405 26.8906 60.7671 25.1322C60.1291 23.3738 60.0271 21.4657 60.4739 19.6493C60.9207 17.8329 61.8963 16.1899 63.2772 14.9282C64.6581 13.6664 66.3823 12.8426 68.2315 12.5611H68.248C69.4732 12.3741 70.7232 12.4304 71.9266 12.7267C73.13 13.023 74.2633 13.5536 75.2615 14.288C76.2598 15.0225 77.1036 15.9465 77.7446 17.0071C78.3857 18.0678 78.8114 19.2444 78.9976 20.4697H78.9991Z" fill="#FDB415"/>
<path d="M76.7782 20.8105C76.995 22.2198 76.7889 23.6619 76.1861 24.9541C75.5833 26.2463 74.6107 27.3307 73.3916 28.0701C72.1724 28.8095 70.7613 29.1707 69.3369 29.1079C67.9124 29.0451 66.5386 28.5613 65.3891 27.7175C64.2397 26.8738 63.3663 25.708 62.8795 24.3678C62.3926 23.0275 62.3142 21.573 62.6541 20.1881C62.994 18.8033 63.7369 17.5504 64.7889 16.5879C65.841 15.6254 67.1548 14.9965 68.5642 14.7809H68.5823C70.4685 14.4943 72.3913 14.9684 73.9282 16.0991C75.465 17.2297 76.4901 18.9243 76.7782 20.8105Z" fill="#CD9827"/>
<path d="M76.6555 20.5316C76.6135 20.5316 76.5371 20.2299 76.3392 19.7003C76.0663 18.955 75.6804 18.2568 75.1952 17.6303C74.8588 17.2045 74.4773 16.817 74.0573 16.4746C73.0417 15.6482 71.8186 15.1208 70.5235 14.9508C70.1666 14.9043 69.8067 14.8856 69.447 14.8949C69.0773 14.9039 68.7089 14.9418 68.3451 15.0081C67.9801 15.0731 67.6203 15.1649 67.2686 15.2827C66.9286 15.4065 66.5992 15.5579 66.2836 15.7353C65.9762 15.8954 65.6824 16.0806 65.405 16.289C65.1368 16.4874 64.8837 16.7058 64.6479 16.9423C64.2083 17.3804 63.8268 17.8738 63.5129 18.4103C62.8371 19.5687 62.4911 20.8919 62.5129 22.235C62.5129 22.7902 62.5519 23.1161 62.5129 23.1252C62.4739 23.1342 62.372 22.8234 62.3 22.2471C62.2095 21.4209 62.272 20.585 62.4844 19.7818C62.803 18.5763 63.4223 17.4728 64.2835 16.5757C64.7947 16.0462 65.3814 15.5962 66.0242 15.2404C66.3642 15.0521 66.7186 14.8917 67.0842 14.7607C67.4614 14.6262 67.8483 14.5213 68.2416 14.4468C68.6379 14.3774 69.0388 14.3375 69.441 14.3276C69.8291 14.3198 70.2171 14.343 70.6015 14.3971C70.9743 14.4483 71.3423 14.5301 71.7019 14.6415C72.0459 14.744 72.3813 14.8736 72.7049 15.0292C73.8249 15.5633 74.7897 16.3779 75.5071 17.3949C75.9872 18.0716 76.339 18.8317 76.5446 19.6369C76.6855 20.2027 76.6945 20.5271 76.6555 20.5316Z" fill="#FDB415"/>
<path d="M71.0652 26.0216L71.2713 27.2496L70.1578 27.4314L69.9548 26.2392C68.8414 26.3509 67.7295 26.184 67.0327 25.8115L67.4205 24.3793C68.1345 24.7162 68.9257 24.8636 69.7155 24.807L69.4125 22.9755C68.1249 22.8801 66.6751 22.7012 66.41 21.1305C66.2146 19.9666 66.9054 18.831 68.6369 18.3466L68.4309 17.1276L69.5443 16.9473L69.7443 18.1395C70.5494 18.0528 71.3639 18.1549 72.1211 18.4375L71.7893 19.8772C71.2149 19.6616 70.6027 19.5603 69.9882 19.5791L70.3033 21.4449C71.5864 21.5284 73.0164 21.7191 73.2754 23.2586C73.4603 24.3897 72.7831 25.5149 71.0652 26.0216ZM69.1338 21.363L68.8732 19.8041C68.3157 20.0321 68.1158 20.3883 68.1855 20.749C68.2552 21.1096 68.6187 21.2691 69.1338 21.3451V21.363ZM71.4909 23.6923C71.4273 23.3093 71.0683 23.1453 70.5608 23.0649L70.8168 24.579C71.3546 24.3495 71.5515 24.0261 71.4909 23.6729V23.6923Z" fill="#8D650F"/>
<path d="M46.7748 13.2396C46.9253 14.2173 46.7823 15.2177 46.3641 16.1141C45.9458 17.0106 45.271 17.7628 44.4251 18.2757C43.5791 18.7885 42.6001 19.0389 41.6118 18.9951C40.6235 18.9513 39.6704 18.6154 38.8731 18.0298C38.0759 17.4442 37.4702 16.6353 37.1328 15.7053C36.7954 14.7754 36.7415 13.7663 36.9778 12.8057C37.2141 11.8451 37.73 10.9762 38.4603 10.3089C39.1906 9.64165 40.1024 9.206 41.0804 9.0571H41.0891C41.7371 8.95822 42.3981 8.98799 43.0346 9.14469C43.671 9.3014 44.2703 9.58198 44.7982 9.9704C45.3262 10.3588 45.7724 10.8475 46.1114 11.4084C46.4504 11.9693 46.6756 12.5916 46.774 13.2396H46.7748Z" fill="#FDB415"/>
<path d="M45.6004 13.4194C45.7151 14.1648 45.6061 14.9274 45.2873 15.6108C44.9685 16.2942 44.4542 16.8677 43.8094 17.2587C43.1647 17.6498 42.4184 17.8408 41.6651 17.8076C40.9118 17.7744 40.1852 17.5185 39.5773 17.0723C38.9695 16.626 38.5076 16.0095 38.2501 15.3007C37.9926 14.5919 37.9511 13.8227 38.1309 13.0903C38.3106 12.3579 38.7035 11.6953 39.2599 11.1863C39.8163 10.6773 40.5111 10.3447 41.2565 10.2307H41.266C42.2636 10.0791 43.2805 10.3299 44.0932 10.9278C44.906 11.5257 45.4481 12.4219 45.6004 13.4194Z" fill="#CD9827"/>
<path d="M45.5356 13.272C45.5134 13.272 45.4729 13.1124 45.3683 12.8324C45.224 12.4382 45.0199 12.0689 44.7633 11.7376C44.5854 11.5125 44.3836 11.3075 44.1615 11.1264C43.6244 10.6894 42.9776 10.4105 42.2927 10.3205C42.1039 10.296 41.9136 10.2861 41.7234 10.291C41.5279 10.2958 41.333 10.3158 41.1406 10.3509C40.9476 10.3852 40.7573 10.4338 40.5713 10.4961C40.3915 10.5616 40.2173 10.6416 40.0504 10.7355C39.8878 10.8201 39.7324 10.9181 39.5857 11.0283C39.4439 11.1332 39.31 11.2487 39.1853 11.3738C38.9528 11.6055 38.7511 11.8664 38.5851 12.1501C38.2277 12.7627 38.0447 13.4625 38.0562 14.1728C38.0562 14.4665 38.0769 14.6388 38.0562 14.6436C38.0356 14.6484 37.9817 14.484 37.9436 14.1792C37.8958 13.7423 37.9288 13.3002 38.0412 12.8754C38.2097 12.2379 38.5372 11.6543 38.9926 11.1799C39.263 10.8999 39.5732 10.6619 39.9132 10.4737C40.093 10.3742 40.2804 10.2893 40.4738 10.22C40.6732 10.1489 40.8779 10.0934 41.0859 10.054C41.2955 10.0173 41.5075 9.99624 41.7202 9.99101C41.9254 9.98688 42.1306 9.99916 42.3339 10.0277C42.531 10.0548 42.7257 10.0981 42.9159 10.157C43.0978 10.2112 43.2751 10.2798 43.4463 10.362C44.0386 10.6445 44.5489 11.0753 44.9282 11.6132C45.1822 11.971 45.3682 12.373 45.4769 12.7988C45.5514 13.0981 45.5562 13.2696 45.5356 13.272Z" fill="#FDB415"/>
<path d="M42.579 16.1759L42.6879 16.8254L42.0991 16.9215L41.9918 16.291C41.4029 16.3501 40.8149 16.2618 40.4464 16.0648L40.6514 15.3074C41.0291 15.4855 41.4475 15.5635 41.8652 15.5336L41.7049 14.565C41.024 14.5145 40.2573 14.42 40.1171 13.5893C40.0137 12.9737 40.3791 12.3732 41.2948 12.117L41.1858 11.4723L41.7746 11.377L41.8804 12.0075C42.3062 11.9616 42.7369 12.0156 43.1374 12.1651L42.9619 12.9264C42.6581 12.8124 42.3344 12.7588 42.0094 12.7688L42.176 13.7556C42.8546 13.7997 43.6109 13.9006 43.7479 14.7147C43.8456 15.3129 43.4875 15.908 42.579 16.1759ZM41.5575 13.7122L41.4197 12.8878C41.1249 13.0084 41.0192 13.1968 41.056 13.3875C41.0929 13.5782 41.2851 13.6626 41.5575 13.7027V13.7122ZM42.8041 14.9441C42.7705 14.7415 42.5806 14.6548 42.3122 14.6123L42.4476 15.413C42.732 15.2916 42.8362 15.1206 42.8041 14.9338V14.9441Z" fill="#8D650F"/>
<path d="M62.8944 89.4746H99.7405C100.405 89.4746 100.944 88.9356 100.944 88.2708V40.0962C100.944 39.4314 100.405 38.8924 99.7405 38.8924L62.8944 38.8924C62.2296 38.8924 61.6906 39.4314 61.6906 40.0962L61.6906 88.2708C61.6906 88.9356 62.2296 89.4746 62.8944 89.4746Z" fill="#2F2E41"/>
<path d="M59.8446 89.4746H96.6907C97.3556 89.4746 97.8945 88.9356 97.8945 88.2708V40.0962C97.8945 39.4314 97.3556 38.8924 96.6907 38.8924L59.8446 38.8924C59.1798 38.8924 58.6408 39.4314 58.6408 40.0962L58.6408 88.2708C58.6408 88.9356 59.1798 89.4746 59.8446 89.4746Z" fill="#106FA4"/>
<g opacity="0.2">
<path d="M59.8446 89.4746H96.6907C97.3556 89.4746 97.8945 88.9356 97.8945 88.2708V40.0962C97.8945 39.4314 97.3556 38.8924 96.6907 38.8924L59.8446 38.8924C59.1798 38.8924 58.6408 39.4314 58.6408 40.0962L58.6408 88.2708C58.6408 88.9356 59.1798 89.4746 59.8446 89.4746Z" fill="white"/>
</g>
<path d="M61.6157 49.957L95.0283 49.957C95.2775 49.957 95.4795 49.755 95.4795 49.5058V43.0712C95.4795 42.822 95.2775 42.62 95.0283 42.62L61.6157 42.62C61.3666 42.62 61.1646 42.822 61.1646 43.0712V49.5058C61.1646 49.755 61.3666 49.957 61.6157 49.957Z" fill="white"/>
<g opacity="0.2">
<path d="M79.4414 61.3945H85.3237C85.5729 61.3945 85.7749 61.1925 85.7749 60.9433V55.061C85.7749 54.8118 85.5729 54.6098 85.3237 54.6098H79.4414C79.1922 54.6098 78.9902 54.8118 78.9902 55.061V60.9433C78.9902 61.1925 79.1922 61.3945 79.4414 61.3945Z" fill="white"/>
</g>
<path d="M78.7172 61.3945H84.5996C84.8488 61.3945 85.0508 61.1925 85.0508 60.9433V55.061C85.0508 54.8118 84.8488 54.6098 84.5996 54.6098H78.7172C78.4681 54.6098 78.2661 54.8118 78.2661 55.061V60.9433C78.2661 61.1925 78.4681 61.3945 78.7172 61.3945Z" fill="#106FA4"/>
<path d="M82.0332 47.3108C82.1417 47.3893 82.2738 47.4283 82.4076 47.4212C82.4961 47.4269 82.5845 47.4077 82.6626 47.3656C82.7407 47.3236 82.8054 47.2605 82.8494 47.1834C82.9621 46.9282 83.0104 46.6492 82.9898 46.3709C82.9179 46.4713 82.8184 46.5486 82.7034 46.5937C82.576 46.647 82.439 46.6738 82.3009 46.6723C82.1272 46.6747 81.9553 46.6362 81.7991 46.56C81.6504 46.4854 81.5267 46.369 81.4434 46.2249C81.3531 46.0586 81.3085 45.8712 81.3143 45.682C81.3038 45.5442 81.3233 45.4059 81.3714 45.2764C81.4196 45.147 81.4951 45.0295 81.593 44.932C81.6908 44.8345 81.8086 44.7594 81.9382 44.7117C82.0679 44.6641 82.2063 44.6451 82.3439 44.656C82.5031 44.6416 82.6632 44.6697 82.808 44.7375C82.9527 44.8052 83.0768 44.9102 83.1677 45.0417C83.3312 45.2988 83.4123 45.6926 83.4111 46.223C83.4183 46.5246 83.3875 46.8259 83.3193 47.1198C83.2756 47.3261 83.1642 47.5119 83.0029 47.6477C82.8205 47.7757 82.6002 47.8384 82.3776 47.8256C82.1214 47.8424 81.8689 47.7569 81.6756 47.5878C81.5116 47.43 81.4133 47.216 81.4004 46.9887H81.846C81.8667 47.1154 81.9333 47.2301 82.0332 47.3108ZM82.7914 46.1051C82.8939 45.9887 82.947 45.8369 82.9393 45.682C82.9495 45.5152 82.8936 45.3511 82.7839 45.2252C82.7287 45.1698 82.6626 45.1265 82.5897 45.0981C82.5169 45.0698 82.4389 45.0569 82.3608 45.0604C82.2823 45.0563 82.2038 45.0692 82.1308 45.0983C82.0578 45.1274 81.9919 45.172 81.9377 45.2289C81.8389 45.3521 81.7851 45.5053 81.7851 45.6632C81.7851 45.8212 81.8389 45.9744 81.9377 46.0976C81.998 46.1563 82.07 46.2015 82.1491 46.2302C82.2282 46.259 82.3125 46.2705 82.3964 46.2642C82.4698 46.2675 82.543 46.255 82.6112 46.2276C82.6793 46.2001 82.7408 46.1583 82.7914 46.1051Z" fill="#2F2E41"/>
<path d="M84.1954 45.0894C84.362 44.8124 84.6466 44.6738 85.0528 44.6738C85.4591 44.6738 85.7437 44.8124 85.9103 45.0894C86.0942 45.4443 86.1802 45.8417 86.1593 46.2408C86.1809 46.6436 86.095 47.0449 85.9103 47.4034C85.8088 47.5341 85.6788 47.6398 85.5302 47.7125C85.3815 47.7853 85.2183 47.8231 85.0528 47.8231C84.8874 47.8231 84.7241 47.7853 84.5755 47.7125C84.4269 47.6398 84.2969 47.5341 84.1954 47.4034C84.0115 47.0446 83.9257 46.6435 83.9464 46.2408C83.926 45.8418 84.0119 45.4444 84.1954 45.0894ZM85.6388 45.6511C85.614 45.5064 85.5492 45.3715 85.4516 45.2617C85.339 45.1652 85.1955 45.1122 85.0472 45.1122C84.8989 45.1122 84.7555 45.1652 84.6428 45.2617C84.5459 45.3718 84.4811 45.5066 84.4556 45.6511C84.4229 45.844 84.4079 46.0395 84.4107 46.2352C84.4072 46.4358 84.4216 46.6363 84.4537 46.8343C84.4762 46.9804 84.5413 47.1165 84.641 47.2256C84.7542 47.3224 84.8983 47.3755 85.0472 47.3755C85.1962 47.3755 85.3403 47.3224 85.4535 47.2256C85.5531 47.1165 85.6183 46.9804 85.6407 46.8343C85.6712 46.6361 85.6849 46.4357 85.6819 46.2352C85.6849 46.0415 85.6705 45.8479 85.6388 45.6567V45.6511Z" fill="#2F2E41"/>
<path d="M87.2698 47.248L86.755 48.4219H86.4404L86.7419 47.248H87.2698Z" fill="#2F2E41"/>
<path d="M87.8802 45.0876C88.0468 44.8105 88.3314 44.672 88.7376 44.672C88.9049 44.6563 89.0733 44.6867 89.2244 44.76C89.3756 44.8333 89.5038 44.9466 89.5951 45.0876C89.7786 45.4426 89.8645 45.8399 89.8441 46.239C89.8648 46.6417 89.7789 47.0427 89.5951 47.4016C89.4936 47.5322 89.3636 47.638 89.215 47.7107C89.0664 47.7834 88.9031 47.8212 88.7376 47.8212C88.5722 47.8212 88.4089 47.7834 88.2603 47.7107C88.1117 47.638 87.9817 47.5322 87.8802 47.4016C87.6955 47.043 87.6096 46.6418 87.6312 46.239C87.6103 45.8399 87.6963 45.4424 87.8802 45.0876ZM89.3218 45.6493C89.2963 45.5047 89.2315 45.37 89.1345 45.2598C89.0816 45.2076 89.0182 45.1673 88.9485 45.1414C88.8788 45.1156 88.8043 45.1049 88.7302 45.1101C88.656 45.1046 88.5814 45.1151 88.5117 45.1409C88.4419 45.1668 88.3785 45.2073 88.3258 45.2598C88.2289 45.3701 88.1641 45.5048 88.1386 45.6493C88.1075 45.8424 88.0931 46.0378 88.0955 46.2334C88.0925 46.4339 88.1062 46.6343 88.1367 46.8325C88.1591 46.9785 88.2243 47.1146 88.3239 47.2237C88.4371 47.3205 88.5812 47.3737 88.7302 47.3737C88.8791 47.3737 89.0232 47.3205 89.1364 47.2237C89.2361 47.1146 89.3012 46.9785 89.3236 46.8325C89.3558 46.6344 89.3702 46.434 89.3667 46.2334C89.3692 46.0396 89.3541 45.846 89.3218 45.6549V45.6493Z" fill="#2F2E41"/>
<path d="M90.6057 45.0878C90.6972 44.9465 90.8257 44.833 90.9772 44.7597C91.1287 44.6864 91.2975 44.6561 91.465 44.6722C91.8713 44.6722 92.1559 44.8107 92.3225 45.0878C92.5064 45.4426 92.5924 45.84 92.5715 46.2392C92.5931 46.6419 92.5072 47.0432 92.3225 47.4018C92.221 47.5324 92.091 47.6381 91.9423 47.7109C91.7937 47.7836 91.6305 47.8214 91.465 47.8214C91.2996 47.8214 91.1363 47.7836 90.9877 47.7109C90.8391 47.6381 90.7091 47.5324 90.6076 47.4018C90.4237 47.0429 90.3379 46.6419 90.3586 46.2392C90.3376 45.8403 90.4229 45.4429 90.6057 45.0878ZM92.0492 45.6494C92.0243 45.5047 91.9595 45.3698 91.8619 45.26C91.8092 45.2075 91.7458 45.1669 91.676 45.1411C91.6063 45.1153 91.5318 45.1047 91.4576 45.1102C91.3834 45.1051 91.309 45.1158 91.2392 45.1416C91.1695 45.1674 91.1061 45.2078 91.0532 45.26C90.9562 45.3702 90.8914 45.5049 90.8659 45.6494C90.8332 45.8424 90.8182 46.0379 90.821 46.2335C90.8185 46.4341 90.8329 46.6345 90.8641 46.8326C90.8865 46.9787 90.9516 47.1148 91.0513 47.2239C91.1047 47.276 91.1685 47.3162 91.2385 47.342C91.3085 47.3678 91.3831 47.3786 91.4576 47.3737C91.532 47.379 91.6068 47.3684 91.6768 47.3425C91.7468 47.3167 91.8106 47.2763 91.8638 47.2239C91.9635 47.1148 92.0286 46.9787 92.051 46.8326C92.0822 46.6345 92.0966 46.4341 92.0941 46.2335C92.0965 46.0397 92.0815 45.8461 92.0492 45.655V45.6494Z" fill="#2F2E41"/>
<g opacity="0.2">
<path d="M88.0683 61.3945H93.9507C94.1999 61.3945 94.4019 61.1925 94.4019 60.9433V55.061C94.4019 54.8118 94.1999 54.6098 93.9507 54.6098H88.0683C87.8191 54.6098 87.6171 54.8118 87.6171 55.061V60.9433C87.6171 61.1925 87.8191 61.3945 88.0683 61.3945Z" fill="white"/>
</g>
<path d="M87.3422 61.3945H93.2246C93.4738 61.3945 93.6758 61.1925 93.6758 60.9433V55.061C93.6758 54.8118 93.4738 54.6098 93.2246 54.6098H87.3422C87.0931 54.6098 86.8911 54.8118 86.8911 55.061V60.9433C86.8911 61.1925 87.0931 61.3945 87.3422 61.3945Z" fill="#106FA4"/>
<g opacity="0.2">
<path d="M70.6982 61.3945H76.5805C76.8297 61.3945 77.0317 61.1925 77.0317 60.9433V55.061C77.0317 54.8118 76.8297 54.6098 76.5805 54.6098H70.6982C70.449 54.6098 70.247 54.8118 70.247 55.061V60.9433C70.247 61.1925 70.449 61.3945 70.6982 61.3945Z" fill="white"/>
</g>
<path d="M69.9731 61.3945H75.8554C76.1046 61.3945 76.3066 61.1925 76.3066 60.9433V55.061C76.3066 54.8118 76.1046 54.6098 75.8554 54.6098H69.9731C69.7239 54.6098 69.5219 54.8118 69.5219 55.061V60.9433C69.5219 61.1925 69.7239 61.3945 69.9731 61.3945Z" fill="#106FA4"/>
<path d="M81.3559 59.2212C81.4646 59.2993 81.5966 59.3383 81.7303 59.3317C81.8188 59.3372 81.907 59.3178 81.9851 59.2758C82.0632 59.2338 82.128 59.1708 82.1721 59.0939C82.2848 58.8387 82.333 58.5596 82.3125 58.2814C82.2404 58.3828 82.1402 58.4609 82.0242 58.506C81.8974 58.5593 81.7611 58.5861 81.6236 58.5847C81.4496 58.5875 81.2775 58.5483 81.1218 58.4705C80.9723 58.397 80.8483 58.2803 80.7661 58.1354C80.6757 57.969 80.6312 57.7816 80.6369 57.5924C80.6303 57.4557 80.6511 57.319 80.698 57.1904C80.745 57.0618 80.8171 56.9439 80.9103 56.8436C81.0098 56.749 81.1275 56.6757 81.2562 56.6281C81.385 56.5805 81.5221 56.5595 81.6591 56.5665C81.8182 56.5515 81.9783 56.5791 82.1231 56.6466C82.2679 56.714 82.3921 56.8189 82.4829 56.9503C82.6458 57.2068 82.7281 57.6018 82.7281 58.1316C82.7354 58.4332 82.7046 58.7345 82.6364 59.0284C82.5911 59.234 82.48 59.4194 82.32 59.5563C82.1378 59.6848 81.9173 59.7475 81.6947 59.7342C81.4384 59.751 81.186 59.6655 80.9927 59.4964C80.8284 59.3385 80.7295 59.1247 80.7156 58.8973H81.1686C81.1896 59.0245 81.2561 59.1396 81.3559 59.2212ZM82.116 58.0155C82.2171 57.8985 82.2694 57.747 82.262 57.5924C82.2725 57.4259 82.2173 57.262 82.1085 57.1356C82.0531 57.08 81.9866 57.0366 81.9134 57.0082C81.8402 56.9798 81.7619 56.9671 81.6835 56.9709C81.605 56.9671 81.5267 56.9802 81.4537 57.0093C81.3807 57.0384 81.3148 57.0827 81.2604 57.1394C81.1537 57.2605 81.0981 57.4181 81.105 57.5793C81.099 57.7363 81.1532 57.8897 81.2566 58.008C81.3163 58.0671 81.388 58.1126 81.4668 58.1413C81.5457 58.1701 81.6298 58.1815 81.7134 58.1747C81.7862 58.1771 81.8586 58.1642 81.926 58.1367C81.9934 58.1093 82.0543 58.068 82.1047 58.0155H82.116Z" fill="white"/>
<g opacity="0.2">
<path d="M62.0019 61.3945H67.8843C68.1334 61.3945 68.3354 61.1925 68.3354 60.9433V55.061C68.3354 54.8118 68.1334 54.6098 67.8843 54.6098H62.0019C61.7527 54.6098 61.5507 54.8118 61.5507 55.061V60.9433C61.5507 61.1925 61.7527 61.3945 62.0019 61.3945Z" fill="white"/>
</g>
<path d="M61.2768 61.3945H67.1592C67.4083 61.3945 67.6104 61.1925 67.6104 60.9433V55.061C67.6104 54.8118 67.4083 54.6098 67.1592 54.6098H61.2768C61.0276 54.6098 60.8256 54.8118 60.8256 55.061V60.9433C60.8256 61.1925 61.0276 61.3945 61.2768 61.3945Z" fill="#106FA4"/>
<g opacity="0.2">
<path d="M79.4414 70.125H85.3237C85.5729 70.125 85.7749 69.923 85.7749 69.6738V63.7915C85.7749 63.5423 85.5729 63.3403 85.3237 63.3403H79.4414C79.1922 63.3403 78.9902 63.5423 78.9902 63.7915V69.6738C78.9902 69.923 79.1922 70.125 79.4414 70.125Z" fill="white"/>
</g>
<path d="M78.7172 70.125H84.5996C84.8488 70.125 85.0508 69.923 85.0508 69.6738V63.7915C85.0508 63.5423 84.8488 63.3403 84.5996 63.3403H78.7172C78.4681 63.3403 78.2661 63.5423 78.2661 63.7915V69.6738C78.2661 69.923 78.4681 70.125 78.7172 70.125Z" fill="#106FA4"/>
<g opacity="0.2">
<path d="M88.0683 70.125H93.9507C94.1999 70.125 94.4019 69.923 94.4019 69.6738V63.7915C94.4019 63.5423 94.1999 63.3403 93.9507 63.3403H88.0683C87.8191 63.3403 87.6171 63.5423 87.6171 63.7915V69.6738C87.6171 69.923 87.8191 70.125 88.0683 70.125Z" fill="white"/>
</g>
<path d="M87.3422 70.125H93.2246C93.4738 70.125 93.6758 69.923 93.6758 69.6738V63.7915C93.6758 63.5423 93.4738 63.3403 93.2246 63.3403H87.3422C87.0931 63.3403 86.8911 63.5423 86.8911 63.7915V69.6738C86.8911 69.923 87.0931 70.125 87.3422 70.125Z" fill="#106FA4"/>
<g opacity="0.2">
<path d="M70.6982 70.125H76.5805C76.8297 70.125 77.0317 69.923 77.0317 69.6738V63.7915C77.0317 63.5423 76.8297 63.3403 76.5805 63.3403H70.6982C70.449 63.3403 70.247 63.5423 70.247 63.7915V69.6738C70.247 69.923 70.449 70.125 70.6982 70.125Z" fill="white"/>
</g>
<path d="M69.9731 70.125H75.8554C76.1046 70.125 76.3066 69.923 76.3066 69.6738V63.7915C76.3066 63.5423 76.1046 63.3403 75.8554 63.3403H69.9731C69.7239 63.3403 69.5219 63.5423 69.5219 63.7915V69.6738C69.5219 69.923 69.7239 70.125 69.9731 70.125Z" fill="#106FA4"/>
<path d="M82.0468 65.7967C81.9464 65.726 81.8249 65.6917 81.7023 65.6994C81.6035 65.6941 81.5051 65.7151 81.4169 65.7601C81.3288 65.8052 81.2542 65.8727 81.2006 65.9559C81.0687 66.2202 81.0086 66.5147 81.0265 66.8096C81.1023 66.6828 81.2145 66.5817 81.3485 66.5194C81.4925 66.4516 81.6499 66.417 81.809 66.4183C81.9822 66.4152 82.1531 66.4571 82.3052 66.54C82.4488 66.6213 82.5654 66.743 82.6403 66.8901C82.7192 67.0592 82.7601 67.2436 82.7601 67.4302C82.7601 67.6168 82.7192 67.8012 82.6403 67.9703C82.5656 68.1274 82.4448 68.2581 82.2939 68.3448C82.1251 68.4379 81.9343 68.4838 81.7416 68.4777C81.4981 68.494 81.2561 68.4281 81.0545 68.2905C80.8814 68.1512 80.7585 67.9593 80.7044 67.7438C80.6324 67.4562 80.599 67.1603 80.6052 66.8639C80.6052 65.8254 80.9709 65.3062 81.7023 65.3062C81.9473 65.2922 82.188 65.3749 82.3726 65.5365C82.5319 65.6838 82.6341 65.8828 82.6609 66.0982H82.2172C82.1969 65.981 82.1367 65.8745 82.0468 65.7967ZM81.2624 66.9818C81.1994 67.0379 81.15 67.1074 81.1175 67.1851C81.0851 67.2629 81.0706 67.347 81.0751 67.4311C81.0708 67.5159 81.0834 67.6006 81.1124 67.6803C81.1413 67.7601 81.1859 67.8332 81.2436 67.8954C81.3056 67.9555 81.3794 68.002 81.4603 68.0319C81.5412 68.0619 81.6274 68.0747 81.7135 68.0695C81.7919 68.0735 81.8701 68.0607 81.9431 68.032C82.0161 68.0032 82.0821 67.9592 82.1367 67.9029C82.2439 67.7814 82.2996 67.623 82.292 67.4611C82.3009 67.2934 82.2468 67.1285 82.1404 66.9987C82.0836 66.9392 82.0144 66.893 81.9377 66.8632C81.861 66.8335 81.7788 66.8209 81.6967 66.8264C81.5378 66.8235 81.3833 66.8788 81.2624 66.9818Z" fill="white"/>
<g opacity="0.2">
<path d="M62.0019 70.125H67.8843C68.1334 70.125 68.3354 69.923 68.3354 69.6738V63.7915C68.3354 63.5423 68.1334 63.3403 67.8843 63.3403H62.0019C61.7527 63.3403 61.5507 63.5423 61.5507 63.7915V69.6738C61.5507 69.923 61.7527 70.125 62.0019 70.125Z" fill="white"/>
</g>
<path d="M61.2768 70.125H67.1592C67.4083 70.125 67.6104 69.923 67.6104 69.6738V63.7915C67.6104 63.5423 67.4083 63.3403 67.1592 63.3403H61.2768C61.0276 63.3403 60.8256 63.5423 60.8256 63.7915V69.6738C60.8256 69.923 61.0276 70.125 61.2768 70.125Z" fill="#106FA4"/>
<path d="M88.9569 65.6332C89.0853 65.5173 89.2521 65.4531 89.425 65.4531C89.5979 65.4531 89.7647 65.5173 89.893 65.6332C90.0095 65.769 90.0736 65.942 90.0736 66.1209C90.0736 66.2998 90.0095 66.4728 89.893 66.6086C89.7653 66.7257 89.5983 66.7906 89.425 66.7906C89.2517 66.7906 89.0847 66.7257 88.9569 66.6086C88.8404 66.4728 88.7764 66.2998 88.7764 66.1209C88.7764 65.942 88.8404 65.769 88.9569 65.6332ZM89.1442 66.12C89.1442 66.369 89.234 66.4944 89.4119 66.4944C89.45 66.4966 89.488 66.4893 89.5226 66.4733C89.5572 66.4573 89.5873 66.4331 89.6103 66.4027C89.6638 66.3185 89.6887 66.2194 89.6815 66.12C89.6815 65.8703 89.5916 65.7455 89.4119 65.7455C89.2434 65.7493 89.1535 65.8728 89.1535 66.12H89.1442ZM91.3608 65.5115L89.6628 68.4714H89.1872L90.904 65.5115H91.3608ZM90.6775 67.3724C90.806 67.2569 90.9727 67.193 91.1455 67.193C91.3183 67.193 91.485 67.2569 91.6136 67.3724C91.7301 67.5082 91.7941 67.6812 91.7941 67.8601C91.7941 68.0391 91.7301 68.2121 91.6136 68.3478C91.4862 68.4657 91.3191 68.5312 91.1455 68.5312C90.972 68.5312 90.8048 68.4657 90.6775 68.3478C90.5609 68.2121 90.4969 68.0391 90.4969 67.8601C90.4969 67.6812 90.5609 67.5082 90.6775 67.3724ZM90.8647 67.8592C90.8647 68.1063 90.9527 68.2336 91.1324 68.2336C91.3121 68.2336 91.4001 68.1101 91.4001 67.8592C91.4001 67.6083 91.3103 67.4848 91.1324 67.4848C90.9545 67.4848 90.8815 67.6121 90.8815 67.8592H90.8647Z" fill="white"/>
<g opacity="0.2">
<path d="M79.4414 78.8555H85.3237C85.5729 78.8555 85.7749 78.6535 85.7749 78.4043V72.5219C85.7749 72.2727 85.5729 72.0707 85.3237 72.0707H79.4414C79.1922 72.0707 78.9902 72.2727 78.9902 72.5219V78.4043C78.9902 78.6535 79.1922 78.8555 79.4414 78.8555Z" fill="white"/>
</g>
<path d="M78.7172 78.8535H84.5996C84.8488 78.8535 85.0508 78.6515 85.0508 78.4023V72.52C85.0508 72.2708 84.8488 72.0688 84.5996 72.0688H78.7172C78.4681 72.0688 78.2661 72.2708 78.2661 72.52V78.4023C78.2661 78.6515 78.4681 78.8535 78.7172 78.8535Z" fill="#106FA4"/>
<g opacity="0.2">
<path d="M88.0683 78.8555H93.9507C94.1999 78.8555 94.4019 78.6535 94.4019 78.4043V72.5219C94.4019 72.2727 94.1999 72.0707 93.9507 72.0707H88.0683C87.8191 72.0707 87.6171 72.2727 87.6171 72.5219V78.4043C87.6171 78.6535 87.8191 78.8555 88.0683 78.8555Z" fill="white"/>
</g>
<path d="M87.3422 78.8535H93.2246C93.4738 78.8535 93.6758 78.6515 93.6758 78.4023V72.52C93.6758 72.2708 93.4738 72.0688 93.2246 72.0688H87.3422C87.0931 72.0688 86.8911 72.2708 86.8911 72.52V78.4023C86.8911 78.6515 87.0931 78.8535 87.3422 78.8535Z" fill="#106FA4"/>
<g opacity="0.2">
<path d="M70.6982 78.8555H76.5805C76.8297 78.8555 77.0317 78.6535 77.0317 78.4043V72.5219C77.0317 72.2727 76.8297 72.0707 76.5805 72.0707H70.6982C70.449 72.0707 70.247 72.2727 70.247 72.5219V78.4043C70.247 78.6535 70.449 78.8555 70.6982 78.8555Z" fill="white"/>
</g>
<path d="M69.9731 78.8535H75.8554C76.1046 78.8535 76.3066 78.6515 76.3066 78.4023V72.52C76.3066 72.2708 76.1046 72.0688 75.8554 72.0688H69.9731C69.7239 72.0688 69.5219 72.2708 69.5219 72.52V78.4023C69.5219 78.6515 69.7239 78.8535 69.9731 78.8535Z" fill="#106FA4"/>
<path d="M80.9471 74.249C81.1522 74.0966 81.4032 74.0187 81.6585 74.0281C81.8361 74.0236 82.0123 74.0601 82.1734 74.1348C82.3084 74.1969 82.4222 74.2971 82.501 74.4231C82.5749 74.5484 82.6131 74.6915 82.6115 74.8369C82.6158 74.9987 82.5664 75.1573 82.471 75.2881C82.3877 75.4041 82.2707 75.4917 82.1359 75.5389V75.5558C82.2947 75.6007 82.433 75.6993 82.5272 75.8347C82.6262 75.9884 82.6753 76.1689 82.6676 76.3515C82.6702 76.5078 82.6301 76.6618 82.5516 76.797C82.4719 76.9322 82.3531 77.0399 82.2108 77.1059C82.0423 77.1849 81.8577 77.2233 81.6716 77.2183C81.4023 77.2284 81.1377 77.1451 80.9228 76.9824C80.8228 76.9 80.7425 76.7965 80.6874 76.6793C80.6324 76.5621 80.6041 76.4341 80.6045 76.3047H81.0725C81.0747 76.3758 81.0915 76.4457 81.1217 76.5101C81.152 76.5745 81.1952 76.632 81.2485 76.6791C81.3667 76.7792 81.5189 76.8301 81.6735 76.8214C81.7462 76.8261 81.819 76.816 81.8876 76.7915C81.9562 76.767 82.019 76.7288 82.0723 76.6791C82.1203 76.6298 82.1576 76.571 82.1817 76.5066C82.2059 76.4421 82.2164 76.3734 82.2127 76.3047C82.221 76.2239 82.2081 76.1424 82.1753 76.0682C82.1424 75.994 82.0908 75.9297 82.0255 75.8816C81.8479 75.7853 81.6466 75.7418 81.4451 75.7561H81.3346V75.3592H81.4488C81.6312 75.368 81.8126 75.3286 81.9749 75.245C82.0351 75.2093 82.0843 75.1578 82.1173 75.0961C82.1503 75.0344 82.1658 74.9648 82.1621 74.8949C82.1646 74.8345 82.154 74.7743 82.1311 74.7184C82.1082 74.6625 82.0734 74.6123 82.0292 74.571C81.9248 74.4837 81.7906 74.4401 81.6548 74.4493C81.5189 74.4393 81.3844 74.483 81.2804 74.571C81.1937 74.6488 81.1378 74.7551 81.1231 74.8706H80.6513C80.6521 74.7516 80.679 74.6343 80.7301 74.5269C80.7812 74.4195 80.8553 74.3247 80.9471 74.249Z" fill="white"/>
<g opacity="0.2">
<path d="M62.0019 78.8555H67.8843C68.1334 78.8555 68.3354 78.6535 68.3354 78.4043V72.5219C68.3354 72.2727 68.1334 72.0707 67.8843 72.0707H62.0019C61.7527 72.0707 61.5507 72.2727 61.5507 72.5219V78.4043C61.5507 78.6535 61.7527 78.8555 62.0019 78.8555Z" fill="white"/>
</g>
<path d="M61.2768 78.8535H67.1592C67.4083 78.8535 67.6104 78.6515 67.6104 78.4023V72.52C67.6104 72.2708 67.4083 72.0688 67.1592 72.0688H61.2768C61.0276 72.0688 60.8256 72.2708 60.8256 72.52V78.4023C60.8256 78.6515 61.0276 78.8535 61.2768 78.8535Z" fill="#106FA4"/>
<path d="M91.1586 75.4141V75.8222H89.4062V75.4141H91.1586Z" fill="white"/>
<g opacity="0.2">
<path d="M79.4414 87.3203H85.3237C85.5729 87.3203 85.7749 87.1183 85.7749 86.8691V80.9868C85.7749 80.7376 85.5729 80.5356 85.3237 80.5356H79.4414C79.1922 80.5356 78.9902 80.7376 78.9902 80.9868V86.8691C78.9902 87.1183 79.1922 87.3203 79.4414 87.3203Z" fill="white"/>
</g>
<path d="M78.7172 87.3203H84.5996C84.8488 87.3203 85.0508 87.1183 85.0508 86.8691V80.9868C85.0508 80.7376 84.8488 80.5356 84.5996 80.5356H78.7172C78.4681 80.5356 78.2661 80.7376 78.2661 80.9868V86.8691C78.2661 87.1183 78.4681 87.3203 78.7172 87.3203Z" fill="#106FA4"/>
<path d="M81.6633 84.8035C81.5893 84.8054 81.5156 84.7923 81.4467 84.7649C81.3779 84.7376 81.3153 84.6966 81.2627 84.6444C81.2104 84.5933 81.1692 84.5321 81.1415 84.4644C81.1138 84.3968 81.1003 84.3243 81.1017 84.2512C81.1001 84.177 81.1136 84.1033 81.1413 84.0345C81.169 83.9657 81.2103 83.9031 81.2628 83.8507C81.3152 83.7982 81.3778 83.7569 81.4466 83.7292C81.5154 83.7015 81.5892 83.688 81.6633 83.6896C81.7367 83.6893 81.8094 83.7037 81.8772 83.732C81.9449 83.7602 82.0063 83.8017 82.0578 83.8541C82.1092 83.9064 82.1497 83.9685 82.1768 84.0367C82.2039 84.1049 82.2171 84.1778 82.2156 84.2512C82.2166 84.3491 82.1914 84.4454 82.1426 84.5302C82.0938 84.6123 82.0248 84.6806 81.9423 84.7286C81.8581 84.779 81.7615 84.805 81.6633 84.8035Z" fill="white"/>
<g opacity="0.2">
<path d="M88.0683 87.3203H93.9507C94.1999 87.3203 94.4019 87.1183 94.4019 86.8691V80.9868C94.4019 80.7376 94.1999 80.5356 93.9507 80.5356H88.0683C87.8191 80.5356 87.6171 80.7376 87.6171 80.9868V86.8691C87.6171 87.1183 87.8191 87.3203 88.0683 87.3203Z" fill="white"/>
</g>
<path d="M87.3422 87.3203H93.2246C93.4738 87.3203 93.6758 87.1183 93.6758 86.8691V80.9868C93.6758 80.7376 93.4738 80.5356 93.2246 80.5356H87.3422C87.0931 80.5356 86.8911 80.7376 86.8911 80.9868V86.8691C86.8911 87.1183 87.0931 87.3203 87.3422 87.3203Z" fill="#106FA4"/>
<g opacity="0.2">
<path d="M70.6982 87.3203H76.5805C76.8297 87.3203 77.0317 87.1183 77.0317 86.8691V80.9868C77.0317 80.7376 76.8297 80.5356 76.5805 80.5356H70.6982C70.449 80.5356 70.247 80.7376 70.247 80.9868V86.8691C70.247 87.1183 70.449 87.3203 70.6982 87.3203Z" fill="white"/>
</g>
<path d="M69.9731 87.3203H75.8554C76.1046 87.3203 76.3066 87.1183 76.3066 86.8691V80.9868C76.3066 80.7376 76.1046 80.5356 75.8554 80.5356H69.9731C69.7239 80.5356 69.5219 80.7376 69.5219 80.9868V86.8691C69.5219 87.1183 69.7239 87.3203 69.9731 87.3203Z" fill="#106FA4"/>
<path d="M71.8301 83.9268H72.6894V83.0469H73.1406V83.9268H73.9999V84.3443H73.1406V85.2261H72.6894V84.3443H71.8301V83.9268Z" fill="white"/>
<g opacity="0.2">
<path d="M62.0019 87.3203H67.8843C68.1334 87.3203 68.3354 87.1183 68.3354 86.8691V80.9868C68.3354 80.7376 68.1334 80.5356 67.8843 80.5356H62.0019C61.7527 80.5356 61.5507 80.7376 61.5507 80.9868V86.8691C61.5507 87.1183 61.7527 87.3203 62.0019 87.3203Z" fill="white"/>
</g>
<path d="M61.2768 87.3203H67.1592C67.4083 87.3203 67.6104 87.1183 67.6104 86.8691V80.9868C67.6104 80.7376 67.4083 80.5356 67.1592 80.5356H61.2768C61.0276 80.5356 60.8256 80.7376 60.8256 80.9868V86.8691C60.8256 87.1183 61.0276 87.3203 61.2768 87.3203Z" fill="#106FA4"/>
<path d="M91.4168 83.4414V83.8495H89.1533V83.4414H91.4168ZM91.4168 84.4075V84.8156H89.1533V84.4075H91.4168Z" fill="white"/>
<path d="M61.0691 9.20601C60.2472 10.266 59.0788 11.0033 57.7683 11.289C56.4578 11.5746 55.0886 11.3904 53.9001 10.7687C52.7116 10.1469 51.7796 9.12706 51.267 7.88758C50.7544 6.6481 50.6939 5.26787 51.096 3.98828L56.5497 5.7088L61.0691 9.20601Z" fill="#106FA4"/>
<path d="M56.5493 5.71792L51.0957 3.9974C51.4503 2.87414 52.1434 1.88793 53.0801 1.17376C54.0168 0.459583 55.1513 0.0523539 56.3284 0.0078125L56.5493 5.71792Z" fill="#2F2E41"/>
<path d="M62.2648 5.7176C62.2664 6.98114 61.8453 8.2089 61.0685 9.20544L56.549 5.71011L56.3281 0C56.4011 0 56.476 0 56.549 0C57.2998 -4.02732e-08 58.0432 0.147903 58.7368 0.435263C59.4304 0.722622 60.0606 1.14381 60.5913 1.67476C61.1221 2.20571 61.5431 2.83603 61.8302 3.52971C62.1174 4.22339 62.265 4.96684 62.2648 5.7176Z" fill="#FAFAFA"/>
<path d="M91.6125 58.3669H88.9559C88.9312 58.3664 88.9077 58.3564 88.8903 58.339C88.8728 58.3215 88.8628 58.298 88.8623 58.2733C88.8623 58.2485 88.8722 58.2247 88.8897 58.2071C88.9073 58.1896 88.9311 58.1797 88.9559 58.1797H91.6125C91.6373 58.1797 91.6612 58.1896 91.6787 58.2071C91.6963 58.2247 91.7061 58.2485 91.7061 58.2733C91.7061 58.2981 91.6963 58.3219 91.6787 58.3395C91.6612 58.357 91.6373 58.3669 91.6125 58.3669Z" fill="white"/>
<path d="M90.2861 59.6875C90.4857 59.6875 90.6475 59.5257 90.6475 59.3262C90.6475 59.1266 90.4857 58.9648 90.2861 58.9648C90.0866 58.9648 89.9248 59.1266 89.9248 59.3262C89.9248 59.5257 90.0866 59.6875 90.2861 59.6875Z" fill="white"/>
<path d="M90.2861 57.6211C90.4857 57.6211 90.6475 57.4593 90.6475 57.2598C90.6475 57.0602 90.4857 56.8984 90.2861 56.8984C90.0866 56.8984 89.9248 57.0602 89.9248 57.2598C89.9248 57.4593 90.0866 57.6211 90.2861 57.6211Z" fill="white"/>
<path d="M33.5285 57.8769L37.1105 58.4374C37.1105 58.4374 44.587 63.3865 38.0479 72.9242H19.2647C16.5013 72.9257 10.7024 74.3239 8.33301 73.499C5.96361 72.6742 6.63019 72.4143 5.33301 70.999C2.59172 67.9967 1.38674 61.038 5.86429 56.3673L24.0612 51.207L20.2294 54.7641L19.0125 57.0107L20.2294 58.4374L33.5285 57.8769Z" fill="#2F2E41"/>
<path d="M20.0866 23.0561C20.0866 23.0561 19.6728 23.5597 19.4051 25.5105L14.4551 27.5699L14.676 24.7616C14.676 24.7616 16.4021 23.2395 17.7969 20.2871C17.7969 20.2815 18.1769 22.2173 20.0866 23.0561Z" fill="#F9B499"/>
<path d="M20.0874 23.0547C19.6838 23.8133 19.4512 24.651 19.4059 25.5091C19.4059 25.5091 18.2171 24.1724 17.998 20.8867C17.998 20.8867 18.6683 22.435 20.0874 23.0547Z" fill="#F7A48B"/>
<path d="M18.0603 17.558C17.1029 19.6374 18.0122 22.099 20.0912 23.0561C22.1701 24.0132 24.6315 23.1034 25.5888 21.0239L27.7442 16.3422C28.7015 14.2627 27.7922 11.8011 25.7133 10.844C23.6343 9.88695 21.1729 10.7968 20.2156 12.8762L18.0603 17.558Z" fill="#F9B499"/>
<path d="M21.2214 14.282C21.2214 14.282 30.1479 15.7536 29.3504 11.3671C29.3504 11.3671 28.3244 3.44782 18.1268 5.72624C18.1268 5.72624 13.3415 6.29726 11.1192 13.4751C11.1192 13.4751 10.4359 18.1462 5.31551 20.1962C5.31551 20.1962 0.822313 21.694 0.0734462 28.636C-0.179438 30.678 0.224494 32.7475 1.2267 34.5445C2.15309 36.1744 3.58607 37.4575 5.30802 38.199L10.8927 28.0593C10.8927 28.0593 13.1075 25.3241 14.6763 24.7549C14.6763 24.7549 16.498 23.1561 17.7972 20.2805C17.7972 20.2805 17.3573 19.0748 18.0556 17.5565L19.3081 14.8343L21.2214 14.282Z" fill="#2F2E41"/>
<path d="M21.1248 14.7952C21.4673 13.6501 20.9748 12.4914 20.0248 12.2073C19.0748 11.9232 18.027 12.6212 17.6846 13.7664C17.3421 14.9115 17.8346 16.0702 18.7846 16.3543C19.7346 16.6384 20.7823 15.9404 21.1248 14.7952Z" fill="#F9B499"/>
<path d="M22.0622 31.2773C22.0622 31.2773 28.2216 39.5149 26.6097 42.7331C26.6097 42.7331 26.005 44.3657 23.6573 47.1683C22.979 47.9777 22.4697 48.9147 22.1595 49.9241C21.7458 51.274 21.3133 53.2491 21.4444 55.3328C21.4796 55.7503 19.6644 55.7396 19.7612 56.1472C19.9166 56.8736 21.3507 59.2606 11.1886 57.9314C11.1886 57.9314 7.5042 57.5289 6.17871 56.1472L12.2726 35.4804L22.0622 31.2773Z" fill="#FDB415"/>
<path d="M4.73959 39.4531L1.68422 46.3015C1.68422 46.3015 -0.670969 51.3114 3.2119 55.3984C3.2119 55.3984 5.71312 57.9894 12.7375 56.664C12.7375 56.664 25.3447 55.5706 31.3899 52.7493C31.3899 52.7493 33.7488 54.8217 37.319 50.907L39.1762 52.7212C39.3398 52.8826 39.5605 52.9731 39.7903 52.9731C40.0202 52.9731 40.2408 52.8826 40.4044 52.7212C40.5648 52.5605 40.6566 52.3439 40.6604 52.1169C40.6643 51.8899 40.5799 51.6702 40.425 51.5043L37.9911 48.9057C37.7042 48.5937 37.433 48.2675 37.1786 47.9284C36.7555 47.3668 35.5798 46.4082 32.9457 47.5746L29.4035 49.2446L14.707 45.0284L15.0028 44.4668L4.73959 39.4531Z" fill="#F9B499"/>
<path d="M14.7064 45.0293L11.8232 48.886C11.8232 48.886 15.8053 46.3454 18.8233 46.205L14.7064 45.0293Z" fill="#F7A48B"/>
<path d="M38.6161 60.2814C38.6161 60.2814 48.0067 59.8701 51.5762 60.8255C51.5762 60.8255 54.7499 61.063 56.3868 65.9206C58.0237 70.7782 62.6341 82.883 62.6341 82.883L57.8246 87.9014C57.8246 87.9014 51.5273 78.0254 50.2874 72.4516L38.2959 72.964C38.2959 72.964 40.1994 65.7991 38.6161 60.2814Z" fill="#2F2E41"/>
<path d="M56.8301 86.4042C57.9534 88.0892 60.7935 91.9927 60.7935 91.9927V92.6274C69.4804 96.7237 71.6708 94.8178 71.6708 94.8178C66.161 91.5003 62.5871 82.8359 62.5871 82.8359L56.8301 86.4042Z" fill="#F9B499"/>
<path d="M63.9011 97.573C65.4056 97.744 66.8792 98.122 68.2801 98.6963C69.5513 99.6155 72.8014 100.744 72.8014 100.744C77.8843 102.016 77.3901 99.4732 77.3901 99.4732C77.8843 96.7885 71.6706 94.8115 71.6706 94.8115C71.6706 94.8115 69.4802 96.7174 60.7933 92.6211C59.0972 97.6366 63.9011 97.573 63.9011 97.573Z" fill="#106FA4"/>
<path d="M18.0259 60.1113H44.1445V57.6251H18.0259V60.1113Z" fill="#106FA4"/>
<g opacity="0.2">
<path d="M18.0264 60.1113H44.145V57.6251H18.0264V60.1113Z" fill="black"/>
</g>
<path d="M44.1418 60.1061L53.3896 37.0781L51.0825 36.1516L41.8346 59.1796L44.1418 60.1061Z" fill="#106FA4"/>
<g opacity="0.2">
<path d="M44.1423 60.1061L53.3901 37.0781L51.083 36.1516L41.8351 59.1796L44.1423 60.1061Z" fill="white"/>
</g>
<path d="M42.7331 59.7123C43.1984 59.7123 43.5756 59.3351 43.5756 58.8698C43.5756 58.4045 43.1984 58.0273 42.7331 58.0273C42.2678 58.0273 41.8906 58.4045 41.8906 58.8698C41.8906 59.3351 42.2678 59.7123 42.7331 59.7123Z" fill="white"/>
<path d="M6.17297 77.9375H40.6602V72.5906H6.17297V77.9375Z" fill="#106FA4"/>
<g opacity="0.2">
<path d="M6.17297 77.9375H40.6602V72.5906H6.17297V77.9375Z" fill="white"/>
</g>
<g opacity="0.2">
<path d="M6.17297 74.3965H40.6602V72.5898H6.17297V74.3965Z" fill="black"/>
</g>
<g opacity="0.2">
<path d="M27.7219 77.9375H34.3887V72.5906H27.7219V77.9375Z" fill="white"/>
</g>
<g opacity="0.2">
<path d="M13.4288 77.9375H15.3853V72.5906H13.4288V77.9375Z" fill="white"/>
</g>
<g opacity="0.2">
<path d="M10.7811 77.9375H11.8164V72.5906H10.7811V77.9375Z" fill="white"/>
</g>
<path d="M10.7784 83.2852H45.2656V77.9382H10.7784V83.2852Z" fill="#106FA4"/>
<g opacity="0.2">
<path d="M10.7784 83.2871H45.2656V77.9402H10.7784V83.2871Z" fill="white"/>
</g>
<g opacity="0.2">
<path d="M10.7784 79.7441H45.2656V77.9375H10.7784V79.7441Z" fill="black"/>
</g>
<g opacity="0.2">
<path d="M32.3274 83.2871H38.9941V77.9402H32.3274V83.2871Z" fill="white"/>
</g>
<g opacity="0.2">
<path d="M18.0333 83.2871H19.9897V77.9402H18.0333V83.2871Z" fill="white"/>
</g>
<g opacity="0.2">
<path d="M15.3856 83.2871H16.4209V77.9402H15.3856V83.2871Z" fill="white"/>
</g>
<path d="M6.17297 88.6328H40.6602V83.2859H6.17297V88.6328Z" fill="#106FA4"/>
<g opacity="0.2">
<path d="M6.17297 88.6328H40.6602V83.2859H6.17297V88.6328Z" fill="white"/>
</g>
<g opacity="0.2">
<path d="M6.17297 85.0879H40.6602V83.2813H6.17297V85.0879Z" fill="black"/>
</g>
<g opacity="0.2">
<path d="M27.7219 88.6328H34.3887V83.2859H27.7219V88.6328Z" fill="white"/>
</g>
<g opacity="0.2">
<path d="M13.4288 88.6328H15.3853V83.2859H13.4288V88.6328Z" fill="white"/>
</g>
<g opacity="0.2">
<path d="M10.7811 88.6328H11.8164V83.2859H10.7811V88.6328Z" fill="white"/>
</g>
<path d="M7.75891 93.9805H42.2461V88.6336H7.75891V93.9805Z" fill="#106FA4"/>
<g opacity="0.2">
<path d="M7.75793 93.9805H42.2451V88.6336H7.75793V93.9805Z" fill="white"/>
</g>
<g opacity="0.2">
<path d="M7.75793 90.4395H42.2451V88.6328H7.75793V90.4395Z" fill="black"/>
</g>
<g opacity="0.2">
<path d="M29.3059 93.9805H35.9727V88.6336H29.3059V93.9805Z" fill="white"/>
</g>
<g opacity="0.2">
<path d="M15.0118 93.9805H16.9683V88.6336H15.0118V93.9805Z" fill="white"/>
</g>
<g opacity="0.2">
<path d="M12.3661 93.9805H13.4014V88.6336H12.3661V93.9805Z" fill="white"/>
</g>
<path d="M10.7784 99.1875H45.2656V93.8406H10.7784V99.1875Z" fill="#106FA4"/>
<g opacity="0.2">
<path d="M10.7784 99.1875H45.2656V93.8406H10.7784V99.1875Z" fill="white"/>
</g>
<g opacity="0.2">
<path d="M10.7784 95.6465H45.2656V93.8398H10.7784V95.6465Z" fill="black"/>
</g>
<g opacity="0.2">
<path d="M32.3274 99.1875H38.9941V93.8406H32.3274V99.1875Z" fill="white"/>
</g>
<g opacity="0.2">
<path d="M18.0333 99.1875H19.9897V93.8406H18.0333V99.1875Z" fill="white"/>
</g>
<g opacity="0.2">
<path d="M15.3861 99.1875H16.4214V93.8406H15.3861V99.1875Z" fill="white"/>
</g>
<path d="M14.995 44.468L4.73926 39.4543L10.8931 28.0603C10.8931 28.0603 14.5962 21.7923 19.9506 25.8942C19.9506 25.8942 24.2809 28.5153 20.6995 35.4086L14.995 44.468Z" fill="#106FA4"/>
<g opacity="0.2">
<path d="M14.994 44.466L4.73828 39.4524L10.8921 28.0584C10.8921 28.0584 14.5952 21.7904 19.9496 25.8923C19.9496 25.8923 24.28 28.5133 20.6985 35.4066L14.994 44.466Z" fill="black"/>
</g>
<path d="M65.5735 57.0117L64.3903 59.7395H63.9016L65.0979 57.0623H63.5234V56.6504H65.5735V57.0117Z" fill="white"/>
<path d="M63.0908 67.8248V67.4598L64.5193 65.4004H65.1071V67.3961H65.5022V67.8174H65.1071V68.4633H64.6297V67.8174L63.0908 67.8248ZM64.6522 65.9021L63.6487 67.3999H64.6522V65.9021Z" fill="white"/>
<path d="M63.5439 74.5434V74.1016H64.4295V77.2019H63.9446V74.5434H63.5439Z" fill="white"/>
<path d="M63.8565 82.9255C64.0231 82.6484 64.3077 82.5117 64.714 82.5117C65.1202 82.5117 65.4048 82.6484 65.5714 82.9255C65.7554 83.2803 65.8413 83.6777 65.8204 84.0768C65.8421 84.4796 65.7561 84.8809 65.5714 85.2395C65.4699 85.3701 65.3399 85.4758 65.1913 85.5486C65.0427 85.6213 64.8794 85.6591 64.714 85.6591C64.5485 85.6591 64.3853 85.6213 64.2367 85.5486C64.0881 85.4758 63.958 85.3701 63.8565 85.2395C63.6727 84.8806 63.5868 84.4795 63.6075 84.0768C63.5871 83.6778 63.673 83.2804 63.8565 82.9255ZM65.3 83.4871C65.2744 83.3426 65.2096 83.2079 65.1127 83.0977C65.0001 83.0012 64.8567 82.9482 64.7084 82.9482C64.56 82.9482 64.4166 83.0012 64.304 83.0977C64.207 83.2079 64.1422 83.3426 64.1168 83.4871C64.0841 83.68 64.069 83.8756 64.0718 84.0712C64.0683 84.2718 64.0827 84.4723 64.1149 84.6703C64.1373 84.8164 64.2025 84.9525 64.3021 85.0616C64.4153 85.1584 64.5594 85.2116 64.7084 85.2116C64.8573 85.2116 65.0014 85.1584 65.1146 85.0616C65.2133 84.9518 65.2782 84.816 65.3018 84.6703C65.3323 84.4721 65.3461 84.2717 65.343 84.0712C65.3451 83.8775 65.3307 83.684 65.3 83.4927V83.4871Z" fill="white"/>
<path d="M71.8933 57.4236C71.8901 57.2709 71.9321 57.1206 72.0141 56.9917C72.096 56.8628 72.2142 56.761 72.3538 56.6991C72.5317 56.6244 72.7226 56.5859 72.9155 56.5859C73.1083 56.5859 73.2993 56.6244 73.4771 56.6991C73.6204 56.763 73.7411 56.8687 73.8235 57.0023C73.9004 57.1293 73.9406 57.2751 73.9395 57.4236C73.9423 57.5725 73.8999 57.7187 73.8178 57.8429C73.7383 57.9632 73.6277 58.0596 73.4977 58.1219C73.6496 58.1783 73.7804 58.2803 73.8721 58.414C73.9672 58.5533 74.0163 58.7189 74.0126 58.8876C74.0158 59.0609 73.9668 59.2311 73.8721 59.3763C73.7756 59.5205 73.6398 59.6341 73.4809 59.7039C73.3009 59.7805 73.1073 59.82 72.9117 59.82C72.7161 59.82 72.5225 59.7805 72.3426 59.7039C72.1845 59.6336 72.0495 59.52 71.9532 59.3763C71.8585 59.2311 71.8096 59.0609 71.8128 58.8876C71.8085 58.7177 71.8576 58.5507 71.9532 58.4102C72.046 58.2785 72.1765 58.178 72.3276 58.1219C72.1937 58.0622 72.0808 57.9638 72.0034 57.8393C71.926 57.7148 71.8876 57.57 71.8933 57.4236ZM72.4549 58.472C72.396 58.5197 72.3494 58.5808 72.3188 58.6501C72.2882 58.7195 72.2745 58.7951 72.2789 58.8708C72.2764 58.9448 72.2904 59.0185 72.3199 59.0865C72.3493 59.1545 72.3935 59.2151 72.4493 59.2639C72.5789 59.3708 72.744 59.4249 72.9117 59.4156C73.0785 59.4244 73.2425 59.3695 73.3704 59.262C73.4253 59.213 73.4688 59.1526 73.4979 59.085C73.527 59.0174 73.541 58.9443 73.5389 58.8708C73.5429 58.7956 73.5293 58.7205 73.4991 58.6516C73.4688 58.5827 73.4228 58.5218 73.3648 58.4739C73.2347 58.3759 73.0743 58.3268 72.9117 58.3353C72.749 58.3285 72.5888 58.3766 72.4568 58.472H72.4549ZM73.3217 57.1184C73.2055 57.0266 73.0596 56.9806 72.9117 56.9892C72.7662 56.9814 72.623 57.0274 72.5092 57.1184C72.4574 57.1653 72.4169 57.2234 72.391 57.2883C72.365 57.3532 72.3542 57.4232 72.3594 57.4929C72.3577 57.5588 72.3707 57.6243 72.3976 57.6846C72.4245 57.7448 72.4646 57.7983 72.5148 57.8411C72.6265 57.9323 72.7676 57.9795 72.9117 57.974C73.0577 57.9801 73.2006 57.9314 73.3124 57.8373C73.3632 57.7949 73.4037 57.7416 73.431 57.6813C73.4582 57.621 73.4714 57.5553 73.4696 57.4891C73.4753 57.4203 73.4651 57.351 73.4397 57.2868C73.4144 57.2225 73.3747 57.1649 73.3236 57.1184H73.3217Z" fill="white"/>
<path d="M73.8106 65.7882H72.3859V66.6344C72.4558 66.5459 72.5473 66.4769 72.6517 66.4341C72.7692 66.3804 72.897 66.3529 73.0261 66.3536C73.2307 66.3442 73.4333 66.3978 73.6065 66.5071C73.7486 66.6011 73.8595 66.7354 73.9248 66.8928C73.9882 67.0498 74.0207 67.2176 74.0203 67.387C74.0245 67.581 73.9835 67.7733 73.9004 67.9487C73.8186 68.1063 73.6923 68.2365 73.5372 68.3231C73.3276 68.4293 73.0932 68.4772 72.8587 68.4617C72.6242 68.4462 72.3981 68.368 72.2043 68.2351C72.0176 68.0837 71.8974 67.8654 71.8691 67.6267H72.3409C72.3692 67.754 72.4431 67.8665 72.5487 67.943C72.6674 68.0247 72.8092 68.066 72.9531 68.061C73.0379 68.0661 73.1227 68.0519 73.2012 68.0194C73.2796 67.987 73.3497 67.9372 73.4062 67.8738C73.5126 67.7352 73.5663 67.5634 73.5578 67.3889C73.5688 67.2184 73.5138 67.0501 73.4043 66.919C73.345 66.8612 73.2742 66.8166 73.1964 66.7882C73.1186 66.7598 73.0357 66.7482 72.9531 66.7542C72.8281 66.7501 72.7052 66.787 72.603 66.8591C72.5063 66.9297 72.4338 67.0284 72.3952 67.1418H71.9384V65.3613H73.8106V65.7882Z" fill="white"/>
<path d="M72.2098 76.5424C72.4832 76.3066 72.6985 76.1131 72.8557 75.9621C73.0051 75.8197 73.1371 75.66 73.2489 75.4865C73.3481 75.3412 73.4028 75.1701 73.4062 74.9942C73.4143 74.8504 73.3711 74.7085 73.2845 74.5935C73.2365 74.5434 73.178 74.5046 73.1133 74.4797C73.0486 74.4547 72.9792 74.4444 72.91 74.4494C72.8373 74.4449 72.7646 74.457 72.6972 74.4845C72.6298 74.5121 72.5694 74.5544 72.5206 74.6085C72.4237 74.7303 72.3715 74.8816 72.3727 75.0372H71.9047C71.8952 74.9035 71.9146 74.7693 71.9615 74.6437C72.0084 74.5182 72.0817 74.4041 72.1765 74.3093C72.2713 74.2145 72.3853 74.1412 72.5109 74.0943C72.6365 74.0474 72.7707 74.028 72.9044 74.0375C73.0363 74.0294 73.1686 74.0478 73.2933 74.0915C73.418 74.1352 73.5328 74.2034 73.6308 74.2921C73.7192 74.3814 73.7881 74.4881 73.8332 74.6054C73.8783 74.7227 73.8987 74.848 73.8929 74.9736C73.8922 75.1796 73.8387 75.382 73.7375 75.5614C73.6362 75.7466 73.5102 75.9173 73.3631 76.0688C73.2208 76.2167 73.0373 76.3889 72.8164 76.5855L72.6292 76.7559H73.9772V77.1584H71.9178V76.8064L72.2098 76.5424Z" fill="white"/>
</svg>
