<svg width="1280" height="871" viewBox="0 0 1280 871" fill="none" xmlns="http://www.w3.org/2000/svg">
<ellipse cx="640.5" cy="579.299" rx="899.5" ry="288.73" fill="#072E55"/>
<ellipse cx="640.5" cy="581.751" rx="899.5" ry="288.73" fill="#1D7599"/>
<ellipse cx="640.5" cy="477.539" rx="899.5" ry="288.73" fill="#1D7599"/>
<ellipse cx="640.5" cy="343.901" rx="899.5" ry="288.73" fill="#145980"/>
<ellipse cx="640.5" cy="272.792" rx="899.5" ry="288.73" fill="#0A3C6F"/>
<ellipse cx="640.5" cy="189.422" rx="899.5" ry="288.73" fill="#072E55"/>
<path fill-rule="evenodd" clip-rule="evenodd" d="M1390.7 60.7322C1451.34 55.4831 1520.82 28.346 1566.16 68.9933C1612.08 110.17 1609.53 184.442 1595.78 244.601C1584.54 293.763 1534.11 316.964 1500.83 354.827C1463.04 397.813 1447.82 474.88 1390.7 477.907C1333.58 480.934 1307.08 409.178 1268.25 367.153C1232.06 327.983 1145.2 297.722 1140.27 244.601C1135.07 188.501 1205.43 139.617 1248.27 103.071C1288.33 68.8989 1336.2 153.571 1390.7 60.7322Z" fill="#61B3D5" fill-opacity="0.3"/>
<path fill-rule="evenodd" clip-rule="evenodd" d="M430.726 -24.273C449.891 -19.7325 460.155 0.750917 477.358 10.3376C494.925 20.1269 518.779 17.6084 532.41 32.3917C546.619 47.8029 561.742 72.6254 551.8 91.0774C539.846 113.263 501.491 103.614 484.17 121.922C472.701 134.043 485.422 156.364 476.62 170.54C466.025 187.604 450.816 207.708 430.726 207.997C410.713 208.285 397.383 186.804 384.064 171.87C373.529 160.058 368.611 145.134 361.883 130.81C355.72 117.689 344.769 105.51 346.113 91.0774C347.445 76.7835 365.848 69.4259 368.908 55.3997C374.015 31.9876 354.618 3.67324 369.309 -15.2613C382.21 -31.8888 410.243 -29.1258 430.726 -24.273Z" fill="#61B3D5" fill-opacity="0.3"/>
<path fill-rule="evenodd" clip-rule="evenodd" d="M-2.73436 110.07C19.6687 108.962 42.0049 121.153 57.522 137.348C71.8747 152.328 65.8057 178.393 78.4719 194.823C94.1546 215.165 136.707 216.047 137.971 241.7C139.204 266.724 101.162 273.827 83.2263 291.323C70.6106 303.629 61.5834 318.314 47.9638 329.5C32.1938 342.451 17.6155 363.457 -2.73436 361.92C-23.4135 360.358 -29.9668 329.929 -49.1943 322.16C-73.2997 312.42 -112.603 335.137 -125.242 312.42C-137.992 289.505 -102.902 266.352 -93.9602 241.7C-88.4611 226.541 -88.121 210.7 -82.8186 195.47C-76.4374 177.142 -72.9214 157.299 -59.6454 143.142C-44.3775 126.86 -25.029 111.172 -2.73436 110.07Z" fill="#61B3D5" fill-opacity="0.3"/>
</svg>
